<svg viewBox="0 0 32 32" fill="none" xmlns="http://www.w3.org/2000/svg" height="1em" width="1em">
  <path d="m23.576 24.99 4.717 4.717a1 1 0 0 0 1.414-1.414l-26-26a1 1 0 0 0-1.414 1.414l6.71 6.711A5 5 0 1 0 6 19.9V22a5 5 0 0 0 5 5h9.106c1.484 0 2.78-.808 3.47-2.01Zm-1.525-1.525A2 2 0 0 1 20.106 25H18v-.5a4.5 4.5 0 0 0-4.5-4.5H12a1 1 0 1 0 0 2h1.5a2.5 2.5 0 0 1 2.5 2.5v.5h-5a3 3 0 0 1-3-3v-4.002A4 4 0 0 1 11.861 14h.725l9.465 9.465ZM6.003 17.831a3.001 3.001 0 1 1 3.022-5.044 5.998 5.998 0 0 0-3.022 5.043ZM28 17a4 4 0 0 1-3.494 3.968l1.638 1.638a6.002 6.002 0 0 0 1.689-10.223l-7.173-7.46a3.002 3.002 0 0 0-4.497 3.971l1.904 2.35A5.467 5.467 0 0 0 17.6 12h-2.062l2 2h1.425l.236-.666c.182-.515.481-.976.867-1.35l.658-.636-3.007-3.713a1.002 1.002 0 0 1 1.501-1.325l7.256 7.546.047.038A3.99 3.99 0 0 1 28.001 17Z" fill="#212121"/>
</svg>
