<svg viewBox="0 0 32 32" fill="none" xmlns="http://www.w3.org/2000/svg" height="1em" width="1em">
  <path d="m23.576 24.99 4.717 4.717a1 1 0 0 0 1.414-1.414l-26-26a1 1 0 0 0-1.414 1.414l6.71 6.711A5 5 0 1 0 6 19.9V22a5 5 0 0 0 5 5h5v-2.5a2.5 2.5 0 0 0-2.5-2.5H12a1 1 0 1 1 0-2h1.5a4.5 4.5 0 0 1 4.5 4.5V27h2.106c1.484 0 2.78-.808 3.47-2.01ZM30 17a6.002 6.002 0 0 1-3.856 5.606L15.538 12H17.6c.135-.265.292-.518.467-.756l-1.904-2.35a3.002 3.002 0 0 1 4.497-3.97l7.173 7.46A5.99 5.99 0 0 1 30 17Z" fill="#212121"/>
</svg>
