<svg viewBox="0 0 16 16" fill="none" xmlns="http://www.w3.org/2000/svg" height="1em" width="1em">
  <path d="M7.146.646a.5.5 0 0 1 .708 0l1.5 1.5a.5.5 0 0 1 0 .708l-1.5 1.5a.5.5 0 1 1-.708-.708l.643-.642a5 5 0 0 0-2.937 8.88.5.5 0 1 1-.63.777A6 6 0 0 1 7.797 2.003l-.65-.65a.5.5 0 0 1 0-.707Zm3.929 2.766a.5.5 0 0 1 .703-.073 6 6 0 0 1-3.575 10.658l.65.65a.5.5 0 0 1-.707.707l-1.5-1.5a.5.5 0 0 1 0-.708l1.5-1.5a.5.5 0 0 1 .708.708l-.643.642a5 5 0 0 0 2.937-8.88.5.5 0 0 1-.073-.704Z" fill="#212121"/>
</svg>
