<svg viewBox="0 0 24 24" fill="none" xmlns="http://www.w3.org/2000/svg" height="1em" width="1em">
  <path d="M21.245 4.5a.75.75 0 0 0-.744.648l-.006.102.002 13.004a.75.75 0 0 0 1.493.102l.007-.102-.002-13.004a.75.75 0 0 0-.75-.75ZM8.35 6.304l-.073-.084a.75.75 0 0 0-.976-.073l-.084.073-4.997 4.997a.75.75 0 0 0-.073.976l.073.085 4.996 5.003a.75.75 0 0 0 1.134-.976l-.072-.084-3.71-3.717h13.676a.75.75 0 0 0 .743-.647l.007-.102a.75.75 0 0 0-.648-.743l-.102-.007-13.69-.001L8.277 7.28a.75.75 0 0 0 .073-.976l-.073-.084.073.084Z" fill="#212121"/>
</svg>
