<svg viewBox="0 0 24 24" fill="none" xmlns="http://www.w3.org/2000/svg" height="1em" width="1em">
  <path d="m19.69 9.5-2.963-2.963a.75.75 0 0 1 .977-1.133l.084.073 4.242 4.242a.75.75 0 0 1 .073.977l-.073.084-4.242 4.243a.75.75 0 0 1-1.134-.977l.073-.084L19.69 11H14a7.75 7.75 0 0 1-7.746-7.504L6.25 3.25a.75.75 0 1 1 1.5 0 6.25 6.25 0 0 0 6.02 6.246L14 9.5h5.69ZM9 13.5a2.5 2.5 0 1 1-5 0 2.5 2.5 0 0 1 5 0Zm2 5.375C11 20.431 9.714 22 6.5 22S2 20.437 2 18.875v-.103C2 17.792 2.794 17 3.773 17h5.454c.98 0 1.773.793 1.773 1.772v.103Z" fill="#212121"/>
</svg>
