<svg viewBox="0 0 32 32" fill="none" xmlns="http://www.w3.org/2000/svg" height="1em" width="1em">
  <path d="m26.329 27.743 1.964 1.964a1 1 0 0 0 1.414-1.414l-26-26a1 1 0 0 0-1.414 1.414l9.705 9.705v.026a4 4 0 0 1-.711 2.277l-5.71 8.248C4.103 26.092 5.627 29 8.216 29H23.78c1.083 0 1.98-.51 2.549-1.257Zm-1.449-1.449a1.199 1.199 0 0 1-1.1.706H8.216a1.21 1.21 0 0 1-.995-1.899l3.55-5.127a1 1 0 0 0 .227.026h7.588l6.294 6.294ZM16.586 18h-4.449l.794-1.147c.36-.52.635-1.093.815-1.693l2.84 2.84Zm1.412-4.562c0 .381.036.759.107 1.13l5.88 5.88-3.276-4.733a4 4 0 0 1-.711-2.277V5h1a1 1 0 0 0 0-2h-10a1 1 0 1 0 0 2h1v3.46l2 2V5h4v8.438Z" fill="#212121"/>
</svg>
