<svg viewBox="0 0 24 24" fill="none" xmlns="http://www.w3.org/2000/svg" height="1em" width="1em">
  <path d="M13.409 2.513a3.75 3.75 0 0 0-2.818 0l-2.19.888 9.592 3.73 3.374-1.303a1.747 1.747 0 0 0-.46-.275l-7.498-3.04ZM22 7.191l-9.25 3.574v1.713A5.5 5.5 0 0 1 22 16.452v-9.26Zm-10.75 7.666a5.498 5.498 0 0 0-.25 1.644c0 .572.088 1.125.25 1.644v3.543a3.748 3.748 0 0 1-.659-.199l-7.498-3.04A1.75 1.75 0 0 1 2 16.827V7.192l9.25 3.574v4.092Zm-8.617-9.03L12 9.448l3.917-1.514-9.543-3.71-3.281 1.33c-.17.069-.324.162-.46.275Zm17.535 13.281a4.5 4.5 0 1 0-1.06 1.06l2.612 2.613a.75.75 0 1 0 1.06-1.06l-2.612-2.613Zm-.668-2.607a3 3 0 1 1-6 0 3 3 0 0 1 6 0Z" fill="#212121"/>
</svg>
