<svg viewBox="0 0 24 24" fill="none" xmlns="http://www.w3.org/2000/svg" height="1em" width="1em">
  <path d="M10.591 2.513a3.75 3.75 0 0 1 2.818 0l7.498 3.04A1.75 1.75 0 0 1 22 7.175V16.5a5.48 5.48 0 0 0-1.5-3.775V7.773l-7.75 2.992v1.712a5.502 5.502 0 0 0-1.5 2.379v-4.092L3.5 7.75v9.078a.25.25 0 0 0 .156.231l7.499 3.04c.024.01.048.02.072.028l.212.086a1.5 1.5 0 0 0 1.035.035c.394.424.854.785 1.364 1.067l-.43.174a3.75 3.75 0 0 1-2.817 0l-7.498-3.04A1.75 1.75 0 0 1 2 16.827V7.176a1.75 1.75 0 0 1 1.093-1.622l7.498-3.04Zm2.254 1.39a2.25 2.25 0 0 0-1.69 0L9.24 4.68l7.527 2.927 2.669-1.03-6.592-2.673Zm1.846 4.505L7.215 5.5 4.59 6.564l7.411 2.882 2.69-1.038ZM22 16.563v-.062.062Zm-1.832 2.545a4.5 4.5 0 1 0-1.06 1.06l2.612 2.613a.75.75 0 1 0 1.06-1.06l-2.612-2.613Zm-.668-2.607a3 3 0 1 1-6 0 3 3 0 0 1 6 0Z" fill="#212121"/>
</svg>
