<svg viewBox="0 0 32 32" fill="none" xmlns="http://www.w3.org/2000/svg" height="1em" width="1em">
  <path d="M9.25 4.005a3.75 3.75 0 0 0-3.75 3.75v5.025c0 .571-.021.833-.154 1.07-.113.204-.433.59-1.518.978a1.25 1.25 0 0 0 0 2.354c1.082.387 1.372.76 1.488.995.16.326.184.746.184 1.66v4.418a3.75 3.75 0 0 0 3.75 3.75h.5a1.25 1.25 0 0 0 0-2.5h-.5c-.69 0-1.25-.56-1.25-1.25v-4.526c.001-.756.003-1.752-.44-2.654a3.612 3.612 0 0 0-.795-1.061 3.66 3.66 0 0 0 .764-.945c.473-.848.472-1.715.471-2.228V7.755c0-.69.56-1.25 1.25-1.25h.5a1.25 1.25 0 1 0 0-2.5h-.5Zm13.5 0a3.75 3.75 0 0 1 3.75 3.75v5.025c0 .571.021.833.154 1.07.113.204.433.59 1.518.978a1.25 1.25 0 0 1 0 2.354c-1.082.387-1.372.76-1.488.995-.16.326-.184.746-.184 1.66v4.418a3.75 3.75 0 0 1-3.75 3.75h-.5a1.25 1.25 0 0 1 0-2.5h.5c.69 0 1.25-.56 1.25-1.25v-4.526c-.001-.756-.003-1.752.44-2.654a3.62 3.62 0 0 1 .795-1.061 3.661 3.661 0 0 1-.764-.945c-.473-.848-.472-1.715-.471-2.228V7.755c0-.69-.56-1.25-1.25-1.25h-.5a1.25 1.25 0 1 1 0-2.5h.5Z" fill="#212121"/>
</svg>
