<svg viewBox="0 0 16 16" fill="none" xmlns="http://www.w3.org/2000/svg" height="1em" width="1em">
  <path d="m13.195 13.902.951.952a.5.5 0 0 0 .708-.708l-13-13a.5.5 0 1 0-.708.708L4.293 5H3.5A2.5 2.5 0 0 0 1 7.5v4A2.5 2.5 0 0 0 3.5 14h9c.241 0 .474-.034.695-.098ZM12.293 13H3.5A1.5 1.5 0 0 1 2 11.5v-4A1.5 1.5 0 0 1 3.5 6h1.793l7 7ZM14 11.5c0 .117-.013.23-.039.34l.777.776A2.49 2.49 0 0 0 15 11.5v-4A2.5 2.5 0 0 0 12.5 5H11V2.5a.5.5 0 0 0-.5-.5h-5a.5.5 0 0 0-.5.5v.379l1 1V3h4v2H7.121l1 1H12.5A1.5 1.5 0 0 1 14 7.5v4Z" fill="#212121"/>
</svg>
