<svg viewBox="0 0 28 28" fill="none" xmlns="http://www.w3.org/2000/svg" height="1em" width="1em">
  <path d="M3.28 2.22a.75.75 0 0 0-1.06 1.06L6.94 8h-.19A3.75 3.75 0 0 0 3 11.75v8.5A3.75 3.75 0 0 0 6.75 24h14.5c.5 0 .977-.098 1.414-.276l2.056 2.056a.75.75 0 1 0 1.06-1.06L3.28 2.22Zm18.152 20.273c-.06.004-.12.007-.182.007H6.75a2.25 2.25 0 0 1-2.25-2.25v-8.5A2.25 2.25 0 0 1 6.75 9.5h1.69l12.992 12.993ZM23.5 20.25v.067l1.259 1.26c.156-.413.241-.86.241-1.327v-8.5A3.75 3.75 0 0 0 21.25 8H19V3.75a.75.75 0 0 0-.75-.75h-8.5a.75.75 0 0 0-.75.75v2.068l1.5 1.5V4.5h7V8h-6.318l1.5 1.5h8.568a2.25 2.25 0 0 1 2.25 2.25v8.5Z" fill="#212121"/>
</svg>
