<svg viewBox="0 0 16 16" fill="none" xmlns="http://www.w3.org/2000/svg" height="1em" width="1em">
  <path d="M3.25 1C2.56 1 2 1.558 2 2.248v8.501c0 .69.56 1.25 1.25 1.25H5v-1.564a2.5 2.5 0 0 1 .799-1.832l.652-.606A.5.5 0 1 1 7 7.487l1.64-1.522A2 2 0 0 1 11 5.698a1.25 1.25 0 0 0-1.25-1.199h-.497a.25.25 0 0 1-.25-.25l.002-1.998c0-.691-.56-1.252-1.25-1.252H3.25ZM4.5 4a.5.5 0 1 1 0-1 .5.5 0 0 1 0 1ZM5 5.5a.5.5 0 1 1-1 0 .5.5 0 0 1 1 0ZM4.5 8a.5.5 0 1 1 0-1 .5.5 0 0 1 0 1ZM7 3.5a.5.5 0 1 1-1 0 .5.5 0 0 1 1 0ZM6.5 6a.5.5 0 1 1 0-1 .5.5 0 0 1 0 1Zm4.18.699a1 1 0 0 0-1.36 0L6.48 9.336a1.5 1.5 0 0 0-.48 1.1v3.563a1 1 0 0 0 1 1h1.5a1 1 0 0 0 1-1v-1h1v1a1 1 0 0 0 1 1H13a1 1 0 0 0 1-1v-3.564a1.5 1.5 0 0 0-.48-1.099L10.68 6.7Zm-3.52 3.37L10 7.432l2.84 2.637a.5.5 0 0 1 .16.366V14h-1.5v-1a1 1 0 0 0-1-1h-1a1 1 0 0 0-1 1v1H7v-3.564a.5.5 0 0 1 .16-.366Z" fill="#212121"/>
</svg>
