<svg viewBox="0 0 24 24" fill="none" xmlns="http://www.w3.org/2000/svg" height="1em" width="1em">
  <path d="M6.75 2A2.25 2.25 0 0 0 4.5 4.25v16.5c0 .414.336.75.75.75H7.5v-4.25a.75.75 0 0 1 .75-.75h7.5a.75.75 0 0 1 .75.75v4.25h2.25a.75.75 0 0 0 .75-.75v-9a2.25 2.25 0 0 0-2.25-2.25h-.75V4.25A2.25 2.25 0 0 0 14.25 2h-7.5Zm.75 4.5a1 1 0 1 1 2 0 1 1 0 0 1-2 0Zm1 6a1 1 0 1 1 0 2 1 1 0 0 1 0-2Zm-1-2.5a1 1 0 1 1 2 0 1 1 0 0 1-2 0ZM12 5.5a1 1 0 1 1 0 2 1 1 0 0 1 0-2Zm-1 8a1 1 0 1 1 2 0 1 1 0 0 1-2 0Zm4.5-1a1 1 0 1 1 0 2 1 1 0 0 1 0-2ZM11 10a1 1 0 1 1 2 0 1 1 0 0 1-2 0Zm4 11.5V18h-2.25v3.5H15Zm-3.75 0V18H9v3.5h2.25Z" fill="#212121"/>
</svg>
