<svg viewBox="0 0 16 16" fill="none" xmlns="http://www.w3.org/2000/svg" height="1em" width="1em">
  <path d="M11.5 2A2.5 2.5 0 0 1 14 4.5v1.757A5.478 5.478 0 0 0 10.5 5H13v-.5A1.5 1.5 0 0 0 11.5 3h-7A1.5 1.5 0 0 0 3 4.5V5h7.5c-1.177 0-2.268.37-3.163 1H3v5.5A1.5 1.5 0 0 0 4.5 13h1.1c.183.358.404.693.657 1H4.5A2.5 2.5 0 0 1 2 11.5v-7A2.5 2.5 0 0 1 4.5 2h7Zm-1 13a4.5 4.5 0 1 0 0-9 4.5 4.5 0 0 0 0 9ZM9.408 7.834A.5.5 0 0 1 9.88 7.5h1.18a.5.5 0 0 1 .474.658l-.28.842H12a.5.5 0 0 1 .42.77l-2.25 3.5a.5.5 0 0 1-.902-.401L9.776 11H9a.5.5 0 0 1-.472-.666l.88-2.5Z" fill="#212121"/>
</svg>
