<svg viewBox="0 0 16 16" fill="none" xmlns="http://www.w3.org/2000/svg" height="1em" width="1em">
  <path d="M14 11.5V6H2v5.5A2.5 2.5 0 0 0 4.5 14h7a2.5 2.5 0 0 0 2.5-2.5ZM5.997 8.248a.748.748 0 1 1-1.497 0 .748.748 0 0 1 1.497 0Zm0 2.5a.748.748 0 1 1-1.497 0 .748.748 0 0 1 1.497 0Zm2.752-2.5a.748.748 0 1 1-1.497 0 .748.748 0 0 1 1.497 0Zm0 2.5a.748.748 0 1 1-1.497 0 .748.748 0 0 1 1.497 0Zm2.748-2.5a.748.748 0 1 1-1.497 0 .748.748 0 0 1 1.497 0ZM14 4.5A2.5 2.5 0 0 0 11.5 2h-7A2.5 2.5 0 0 0 2 4.5V5h12v-.5Z" fill="#212121"/>
</svg>
