<svg viewBox="0 0 16 16" fill="none" xmlns="http://www.w3.org/2000/svg" height="1em" width="1em">
  <path d="M11.5 2A2.5 2.5 0 0 1 14 4.5v1.757A5.478 5.478 0 0 0 10.5 5H13v-.5A1.5 1.5 0 0 0 11.5 3h-7A1.5 1.5 0 0 0 3 4.5V5h7.5c-1.177 0-2.268.37-3.163 1H3v5.5A1.5 1.5 0 0 0 4.5 13h1.1c.183.358.404.693.657 1H4.5A2.5 2.5 0 0 1 2 11.5v-7A2.5 2.5 0 0 1 4.5 2h7Zm-1 13a4.5 4.5 0 1 0 0-9 4.5 4.5 0 0 0 0 9Zm.354-2.146a.5.5 0 0 1-.708-.708L11.293 11H8.5a.5.5 0 0 1 0-1h2.793l-1.147-1.146a.5.5 0 0 1 .708-.708l2 2a.5.5 0 0 1 .146.351v.006a.5.5 0 0 1-.144.348l-.003.003-2 2Z" fill="#212121"/>
</svg>
