<svg viewBox="0 0 16 16" fill="none" xmlns="http://www.w3.org/2000/svg" height="1em" width="1em">
  <path d="m5.757 7.023 1.072-.984a2 2 0 0 0 .521-2.176l-.434-1.16A1.988 1.988 0 0 0 4.473 1.5c-1.683.514-3.034 2.023-2.748 3.908.2 1.316.661 2.99 1.678 4.738a13.73 13.73 0 0 0 3.262 3.805c1.488 1.195 3.474.787 4.764-.415a1.98 1.98 0 0 0 .179-2.708l-.792-.962a2 2 0 0 0-2.144-.636l-1.389.437a6.591 6.591 0 0 1-.936-1.222 6.267 6.267 0 0 1-.59-1.422ZM2.714 5.258c-.191-1.256.696-2.388 2.051-2.802a.988.988 0 0 1 1.214.598l.435 1.16a1 1 0 0 1-.26 1.088L4.86 6.487a.501.501 0 0 0-.152.47l.012.052.031.13a7.265 7.265 0 0 0 .729 1.805 7.263 7.263 0 0 0 1.296 1.627l.04.036a.5.5 0 0 0 .482.103l1.673-.526a1 1 0 0 1 1.072.318l.792.961c.33.4.29.988-.089 1.341-1.037.967-2.463 1.165-3.455.368a12.732 12.732 0 0 1-3.024-3.529 12.432 12.432 0 0 1-1.554-4.385Zm11.64-3.612a.5.5 0 0 1 0 .708L12.707 4l1.647 1.646a.5.5 0 0 1-.708.708L12 4.707l-1.646 1.647a.5.5 0 0 1-.708-.708L11.293 4 9.646 2.354a.5.5 0 1 1 .708-.708L12 3.293l1.646-1.647a.5.5 0 0 1 .708 0Z" fill="#212121"/>
</svg>
