<svg viewBox="0 0 16 16" fill="none" xmlns="http://www.w3.org/2000/svg" height="1em" width="1em">
  <path d="M4.765 2.455C3.41 2.87 2.523 4 2.714 5.256a12.422 12.422 0 0 0 1.554 4.383 12.727 12.727 0 0 0 3.024 3.527c.992.797 2.418.6 3.455-.367a.98.98 0 0 0 .089-1.34l-.792-.961a1 1 0 0 0-1.072-.319l-1.673.527a.5.5 0 0 1-.482-.103l-.04-.037a7.268 7.268 0 0 1-.42-.432 7.26 7.26 0 0 1-.876-1.193 7.26 7.26 0 0 1-.76-1.935l-.012-.052a.501.501 0 0 1 .152-.47L6.153 5.3a1 1 0 0 0 .26-1.087l-.434-1.16a.988.988 0 0 0-1.214-.598ZM6.83 6.036l-1.072.984a6.608 6.608 0 0 0 .59 1.421 6.264 6.264 0 0 0 .936 1.222l1.389-.437a2 2 0 0 1 2.144.636l.792.961a1.98 1.98 0 0 1-.179 2.707c-1.29 1.202-3.276 1.61-4.764.415a13.727 13.727 0 0 1-3.262-3.803 13.42 13.42 0 0 1-1.678-4.736C1.439 3.522 2.79 2.014 4.473 1.5a1.988 1.988 0 0 1 2.443 1.203l.434 1.159c.286.763.08 1.624-.52 2.174ZM12.293 3H9.5a.5.5 0 0 1 0-1h4a.5.5 0 0 1 .5.5v4a.5.5 0 0 1-1 0V3.707l-2.146 2.147a.5.5 0 0 1-.708-.708L12.293 3ZM10 6.5a.5.5 0 1 1-1 0 .5.5 0 0 1 1 0ZM8.5 8a.5.5 0 1 0 0-1 .5.5 0 0 0 0 1Z" fill="#212121"/>
</svg>
