<svg viewBox="0 0 16 16" fill="none" xmlns="http://www.w3.org/2000/svg" height="1em" width="1em">
  <path d="m5.756 7.023 1.073-.984a2 2 0 0 0 .52-2.176L6.892 2.64a1.916 1.916 0 0 0-2.354-1.16c-1.716.525-3.035 2.12-2.629 4.014a15.3 15.3 0 0 0 1.746 4.475c.97 1.667 2.078 2.9 3.028 3.765 1.434 1.306 3.484.979 4.803-.25a1.899 1.899 0 0 0 .171-2.597l-.84-1.02A2 2 0 0 0 8.67 9.23l-1.388.437a6.618 6.618 0 0 1-.936-1.222 6.268 6.268 0 0 1-.59-1.422Zm8.598-5.377a.5.5 0 0 1 0 .708L12.707 4l1.647 1.646a.5.5 0 0 1-.708.708L12 4.707l-1.646 1.647a.5.5 0 0 1-.708-.708L11.293 4 9.646 2.354a.5.5 0 1 1 .708-.708L12 3.293l1.646-1.647a.5.5 0 0 1 .708 0Z" fill="#212121"/>
</svg>
