<svg viewBox="0 0 24 24" fill="none" xmlns="http://www.w3.org/2000/svg" height="1em" width="1em">
  <path d="m9.367 3.312.86 2.027c.374.883.166 1.922-.514 2.568L7.818 9.705c.117 1.076.479 2.135 1.085 3.178a8.678 8.678 0 0 0 2.27 2.594l2.276-.759c.863-.287 1.802.043 2.33.82l1.233 1.81c.615.904.504 2.15-.259 2.917l-.817.82c-.814.818-1.977 1.114-3.052.779-2.54-.792-4.873-3.144-7.003-7.054-2.133-3.916-2.886-7.239-2.258-9.968.264-1.148 1.081-2.063 2.149-2.404l1.076-.344c1.009-.322 2.087.199 2.519 1.218Zm7.781-1.31.102-.006a.75.75 0 0 1 .743.648l.007.102V6h3.252a.75.75 0 0 1 .743.649l.007.102a.75.75 0 0 1-.648.743l-.102.007H18v3.248a.75.75 0 0 1-.648.743l-.102.007a.75.75 0 0 1-.743-.648l-.007-.102V7.5h-3.252a.75.75 0 0 1-.743-.647l-.007-.102a.75.75 0 0 1 .649-.743L13.248 6H16.5V2.745a.75.75 0 0 1 .648-.743l.102-.007-.102.007Z" fill="#212121"/>
</svg>
