<svg viewBox="0 0 24 24" fill="none" xmlns="http://www.w3.org/2000/svg" height="1em" width="1em">
  <path d="M3.75 17a.75.75 0 0 1 .743.648l.007.102v1.5a.75.75 0 0 1-1.493.102L3 19.25v-1.5a.75.75 0 0 1 .75-.75Zm8-6a.75.75 0 0 1 .743.648l.007.102v7.5a.75.75 0 0 1-1.493.102L11 19.25v-7.5a.75.75 0 0 1 .75-.75Zm4-3a.75.75 0 0 1 .743.648l.007.102v10.5a.75.75 0 0 1-1.493.102L15 19.25V8.75a.75.75 0 0 1 .75-.75Zm-8 6a.75.75 0 0 1 .743.648l.007.102v4.499a.75.75 0 0 1-1.493.102L7 19.248V14.75a.75.75 0 0 1 .75-.75Z" fill="#212121"/>
</svg>
