<svg viewBox="0 0 32 32" fill="none" xmlns="http://www.w3.org/2000/svg" height="1em" width="1em">
  <path d="M3 15.998C3 8.82 8.82 3 16 3c7.179 0 13 5.82 13 12.998 0 .097-.002.194-.004.29a9 9 0 0 0-12.71 12.706 13.032 13.032 0 0 1-5.716-1.182l-5.453 1.604c-1.55.456-2.972-1.019-2.461-2.55l1.696-5.088a12.948 12.948 0 0 1-1.353-5.78ZM23 30.5a7.5 7.5 0 1 0 0-15 7.5 7.5 0 0 0 0 15Zm1-12.25V22h3.75a.75.75 0 0 1 0 1.5H24v3.75a.75.75 0 0 1-1.5 0V23.5h-3.75a.75.75 0 0 1 0-1.5h3.75v-3.75a.75.75 0 0 1 1.5 0Z" fill="#212121"/>
</svg>
