<svg viewBox="0 0 48 48" fill="none" xmlns="http://www.w3.org/2000/svg" height="1em" width="1em">
  <path d="M16.536 5.451c17.288-6.919 34.346 11.436 25.057 28.156-4.22 7.595-14.702 13.71-26.908 7.926L6.2 43.957c-1.316.376-2.533-.835-2.163-2.153.506-1.806 1.706-6.064 2.408-8.371C1.183 24.044 4.73 10.175 16.535 5.45Zm22.872 26.942c8.085-14.555-6.723-30.712-21.943-24.62C6.988 11.964 3.939 24.464 8.87 32.63l.291.482-.168.537c-.532 1.703-1.537 5.234-2.185 7.533l8.114-2.318.433.215c11.007 5.456 20.322.027 24.053-6.687Z" fill="#212121"/>
</svg>
