<svg viewBox="0 0 48 48" fill="none" xmlns="http://www.w3.org/2000/svg" height="1em" width="1em">
  <path d="M15.996 20.25c0-.69.56-1.25 1.25-1.25H30.75a1.25 1.25 0 0 1 0 2.5H17.246c-.69 0-1.25-.56-1.25-1.25Zm1.254 6.226a1.25 1.25 0 0 0 0 2.5h9.5a1.25 1.25 0 0 0 0-2.5h-9.5Zm-.714-21.024c17.288-6.92 34.346 11.435 25.057 28.156-4.22 7.594-14.702 13.71-26.908 7.926L6.2 43.958c-1.316.376-2.533-.836-2.163-2.153.506-1.806 1.706-6.064 2.408-8.372-5.262-9.388-1.714-23.257 10.09-27.981Zm22.872 26.942c8.085-14.555-6.723-30.712-21.943-24.621C6.988 11.965 3.939 24.466 8.87 32.632l.291.482-.168.537c-.532 1.703-1.537 5.234-2.185 7.533l8.114-2.318.433.215c11.007 5.456 20.322.027 24.053-6.688Z" fill="#212121"/>
</svg>
