<svg viewBox="0 0 28 28" fill="none" xmlns="http://www.w3.org/2000/svg" height="1em" width="1em">
  <path d="M14.004 2.5c6.351 0 11.5 5.149 11.5 11.5 0 .297-.011.592-.034.883a7.518 7.518 0 0 0-1.467-1.016C23.932 8.405 19.483 4 14.003 4c-5.522 0-10 4.477-10 10 0 1.77.46 3.472 1.323 4.973l.16.28-1.403 4.67 4.672-1.403.28.16a9.946 9.946 0 0 0 4.83 1.32 7.52 7.52 0 0 0 1.015 1.467 11.452 11.452 0 0 1-6.306-1.327L4.07 25.493a1.25 1.25 0 0 1-1.556-1.557l1.353-4.503A11.451 11.451 0 0 1 2.504 14c0-6.351 5.149-11.5 11.5-11.5ZM27 20.5a6.5 6.5 0 1 1-13 0 6.5 6.5 0 0 1 13 0Zm-6-4a.5.5 0 0 0-1 0V20h-3.5a.5.5 0 0 0 0 1H20v3.5a.5.5 0 0 0 1 0V21h3.5a.5.5 0 0 0 0-1H21v-3.5Z" fill="#212121"/>
</svg>
