<svg viewBox="0 0 48 48" fill="none" xmlns="http://www.w3.org/2000/svg" height="1em" width="1em">
  <path d="M16.536 5.452c17.288-6.92 34.346 11.435 25.057 28.156-4.22 7.594-14.702 13.71-26.908 7.926L6.2 43.958c-1.316.376-2.533-.836-2.163-2.153.506-1.806 1.706-6.064 2.408-8.372-5.262-9.388-1.714-23.257 10.09-27.981Zm-.54 14.799c0 .69.56 1.25 1.25 1.25H30.75a1.25 1.25 0 0 0 0-2.5H17.246c-.69 0-1.25.56-1.25 1.25Zm1.254 6.224a1.25 1.25 0 0 0 0 2.5h9.5a1.25 1.25 0 0 0 0-2.5h-9.5Z" fill="#212121"/>
</svg>
