<svg viewBox="0 0 48 48" fill="none" xmlns="http://www.w3.org/2000/svg" height="1em" width="1em">
  <path d="M16.536 5.451c14.58-5.835 28.997 6.307 27.583 20.284a13.056 13.056 0 0 0-2.426-1.882C41.689 12.373 29.71 2.872 17.465 7.772 6.988 11.965 3.939 24.465 8.87 32.632l.291.481-.168.537c-.532 1.703-1.537 5.234-2.185 7.533l8.114-2.318.433.215c2.898 1.437 5.68 2.119 8.271 2.221.5.901 1.105 1.737 1.797 2.49-3.322.187-6.947-.461-10.738-2.258L6.2 43.957c-1.316.376-2.533-.835-2.163-2.153.506-1.806 1.706-6.064 2.408-8.371C1.183 24.044 4.73 10.175 16.535 5.45ZM46 35c0 6.075-4.925 11-11 11s-11-4.925-11-11 4.925-11 11-11 11 4.925 11 11Zm-10-7a1 1 0 1 0-2 0v6h-6a1 1 0 1 0 0 2h6v6a1 1 0 1 0 2 0v-6h6a1 1 0 1 0 0-2h-6v-6Z" fill="#212121"/>
</svg>
