<svg viewBox="0 0 48 48" fill="none" xmlns="http://www.w3.org/2000/svg" height="1em" width="1em">
  <path d="M22 35a12.95 12.95 0 0 0 3.423 8.791c-3.322.187-6.947-.461-10.738-2.258L6.2 43.957c-1.316.376-2.533-.835-2.163-2.153.506-1.806 1.706-6.064 2.408-8.371C1.183 24.044 4.73 10.175 16.535 5.45c14.582-5.834 29 6.308 27.585 20.285A12.958 12.958 0 0 0 35 22c-7.18 0-13 5.82-13 13Zm24 0c0 6.075-4.925 11-11 11s-11-4.925-11-11 4.925-11 11-11 11 4.925 11 11Zm-10-7a1 1 0 1 0-2 0v6h-6a1 1 0 1 0 0 2h6v6a1 1 0 1 0 2 0v-6h6a1 1 0 1 0 0-2h-6v-6Z" fill="#212121"/>
</svg>
