<svg viewBox="0 0 28 28" fill="none" xmlns="http://www.w3.org/2000/svg" height="1em" width="1em">
  <path d="M14.001 2.5c6.352 0 11.5 5.149 11.5 11.5s-5.148 11.5-11.5 11.5c-1.95 0-3.83-.487-5.5-1.398l-4.724 1.36a1 1 0 0 1-1.238-1.238l1.362-4.721A11.452 11.452 0 0 1 2.501 14c0-6.351 5.15-11.5 11.5-11.5Zm.749 13h-4.5l-.101.007a.75.75 0 0 0 0 1.486l.101.007h4.499l.101-.007a.75.75 0 0 0 0-1.486l-.101-.007Zm3.006-4.5H10.25l-.101.007a.75.75 0 0 0 0 1.486l.101.007h7.505l.102-.007a.75.75 0 0 0 0-1.486L17.756 11Z" fill="#212121"/>
</svg>
