<svg viewBox="0 0 32 32" fill="none" xmlns="http://www.w3.org/2000/svg" height="1em" width="1em">
  <path d="M16 3C8.82 3 3 8.82 3 15.998c0 2.075.487 4.038 1.353 5.78l-1.696 5.087c-.511 1.532.912 3.007 2.461 2.55l5.454-1.603a12.957 12.957 0 0 0 5.714 1.181 9.014 9.014 0 0 1-1.378-2.05 10.924 10.924 0 0 1-3.805-1.093l-.351-.175-6.198 1.822 1.967-5.899-.206-.38A10.944 10.944 0 0 1 5 15.998C5 9.924 9.925 5 16 5c5.708 0 10.4 4.346 10.948 9.91a9.015 9.015 0 0 1 2.05 1.38c.002-.097.003-.194.003-.292C29 8.82 23.18 3 16 3Zm7 27.5a7.5 7.5 0 1 0 0-15 7.5 7.5 0 0 0 0 15Zm1-12.25V22h3.75a.75.75 0 0 1 0 1.5H24v3.75a.75.75 0 0 1-1.5 0V23.5h-3.75a.75.75 0 0 1 0-1.5h3.75v-3.75a.75.75 0 0 1 1.5 0Z" fill="#212121"/>
</svg>
