<svg viewBox="0 0 28 28" fill="none" xmlns="http://www.w3.org/2000/svg" height="1em" width="1em">
  <path d="M25.501 14c0-6.351-5.148-11.5-11.5-11.5-6.35 0-11.5 5.149-11.5 11.5 0 1.95.487 3.83 1.4 5.503l-1.362 4.721a1 1 0 0 0 1.238 1.238l4.724-1.36a11.452 11.452 0 0 0 6.38 1.365 7.5 7.5 0 0 1 10.588-10.585c.021-.291.032-.585.032-.882ZM27 20.5a6.5 6.5 0 1 1-13 0 6.5 6.5 0 0 1 13 0Zm-6-4a.5.5 0 0 0-1 0V20h-3.5a.5.5 0 0 0 0 1H20v3.5a.5.5 0 0 0 1 0V21h3.5a.5.5 0 0 0 0-1H21v-3.5Z" fill="#212121"/>
</svg>
