<svg viewBox="0 0 32 32" fill="none" xmlns="http://www.w3.org/2000/svg" height="1em" width="1em">
  <path d="M14.707 9.293a1 1 0 1 0-1.414 1.414L18.586 16l-5.293 5.293a1 1 0 0 0 1.414 1.414l5.879-5.878.028-.033c.024-.027.047-.053.073-.08A.997.997 0 0 0 20.98 16c.003-.26-.097-.484-.293-.718a1.229 1.229 0 0 0-.1-.11h-.002l-5.878-5.88ZM16 2C8.268 2 2 8.268 2 16s6.268 14 14 14 14-6.268 14-14S23.732 2 16 2ZM4 16C4 9.373 9.373 4 16 4s12 5.373 12 12-5.373 12-12 12S4 22.627 4 16Z" fill="#212121"/>
</svg>
