<svg viewBox="0 0 24 24" fill="none" xmlns="http://www.w3.org/2000/svg" height="1em" width="1em">
  <path d="M15.75 13.5h-4a.75.75 0 0 1-.136-.012A6.472 6.472 0 0 1 13 17.5a6.478 6.478 0 0 1-1.78 4.47c.257.02.517.03.78.03 5.522 0 10-4.478 10-10S17.522 2 12 2 2 6.478 2 12c0 .263.01.523.03.78A6.478 6.478 0 0 1 6.5 11c1.748 0 3.334.69 4.502 1.812A.793.793 0 0 1 11 12.75v-6a.75.75 0 0 1 1.5 0V12h3.25a.75.75 0 0 1 0 1.5Zm-3.75 4a5.5 5.5 0 1 1-11 0 5.5 5.5 0 0 1 11 0Zm-7.5-3a.5.5 0 0 0-.5.5v5a.5.5 0 0 0 1 0v-5a.5.5 0 0 0-.5-.5Zm4 0a.5.5 0 0 0-.5.5v5a.5.5 0 0 0 1 0v-5a.5.5 0 0 0-.5-.5Z" fill="#212121"/>
</svg>
