<svg viewBox="0 0 24 24" fill="none" xmlns="http://www.w3.org/2000/svg" height="1em" width="1em">
  <path d="M22 12c0-5.522-4.477-10-10-10S2 6.478 2 12c0 .446.03.885.086 1.316a2.756 2.756 0 0 1 1.598-1.852C3.961 7.118 7.585 3.667 12 3.667c4.595 0 8.333 3.738 8.333 8.333 0 4.257-3.208 7.778-7.333 8.273V21.5c0 .155-.014.307-.041.455C18.032 21.472 22 17.199 22 12Zm-9.507-5.352A.75.75 0 0 0 11 6.75v6l.007.102a.75.75 0 0 0 .743.648h4l.102-.007A.75.75 0 0 0 15.75 12H12.5V6.75l-.007-.102ZM3 15h-.5A1.5 1.5 0 0 0 1 16.5V18h2.5v-.25a.75.75 0 0 1 1.5 0V18h3v-.25a.75.75 0 0 1 1.5 0V18H12v-1.5a1.5 1.5 0 0 0-1.5-1.5H10v-1a1.75 1.75 0 0 0-1.75-1.75h-3.5A1.75 1.75 0 0 0 3 14v1Zm1.5-1a.25.25 0 0 1 .25-.25h3.5a.25.25 0 0 1 .25.25v1h-4v-1ZM1 21.5v-2h2.5v.75a.75.75 0 0 0 1.5 0v-.75h3v.75a.75.75 0 0 0 1.5 0v-.75H12v2a1.5 1.5 0 0 1-1.5 1.5h-8A1.5 1.5 0 0 1 1 21.5Z" fill="#212121"/>
</svg>
