<svg viewBox="0 0 16 16" fill="none" xmlns="http://www.w3.org/2000/svg" height="1em" width="1em">
  <path d="M7.999 2c-1.4 0-2.417.567-3.074 1.37a4.203 4.203 0 0 0-.897 2.153C1.965 5.734 1 7.32 1 8.499c0 .572.142 1.332.686 1.954.556.635 1.46 1.045 2.813 1.045h2.448c.118-.164.25-.32.394-.463l4.288-4.288a2.552 2.552 0 0 1 1.806-.75 3.969 3.969 0 0 0-1.459-.47c-.112-1.158-.638-2.02-1.348-2.602C9.84 2.281 8.848 2 7.999 2Zm6.544 5.454a1.56 1.56 0 0 0-2.207 0l-4.288 4.288a2.776 2.776 0 0 0-.73 1.29l-.303 1.21a.61.61 0 0 0 .74.74l1.21-.303a2.777 2.777 0 0 0 1.29-.73l4.288-4.288a1.56 1.56 0 0 0 0-2.207Z" fill="#212121"/>
</svg>
