<svg viewBox="0 0 24 24" fill="none" xmlns="http://www.w3.org/2000/svg" height="1em" width="1em">
  <path d="M11.75 2a5.752 5.752 0 0 0-5.663 4.75H6a4 4 0 1 0 0 8h7.232c.043-.13.085-.25.125-.352.147-.424.363-.816.654-1.148H6a2.5 2.5 0 0 1 0-5h.756c.4 0 .73-.314.75-.713a4.25 4.25 0 0 1 8.489 0c.02.4.349.713.749.713h.756c1.14 0 2.102.763 2.403 1.807a3.732 3.732 0 0 1 1.597.693 4 4 0 0 0-4-4h-.087A5.752 5.752 0 0 0 11.75 2Zm4.5 12.75a.469.469 0 0 0-.283.08c-.067.047-.171.154-.256.407a.755.755 0 0 1-.015.041c-.143.36-.38 1.241-.593 2.091a86.97 86.97 0 0 0-.343 1.424l-.021.092-.008.032a.744.744 0 0 1-.02.07c-.165.497-.436.89-.806 1.155a1.965 1.965 0 0 1-1.155.358H11.7a2.75 2.75 0 1 1 .289-1.5h.761c.124 0 .214-.03.283-.08.064-.045.162-.145.245-.376l.02-.09a99.379 99.379 0 0 1 .35-1.448c.2-.8.456-1.771.644-2.256l.004-.008c.166-.487.434-.873.8-1.134a1.965 1.965 0 0 1 1.154-.358h.295a2.75 2.75 0 1 1 .142 1.5h-.437Zm2.134-.098a1.25 1.25 0 1 0 1.731-1.804 1.25 1.25 0 0 0-1.73 1.804ZM9.25 20.5a1.25 1.25 0 1 0 0-2.5 1.25 1.25 0 0 0 0 2.5Zm5.845-6.892-.256-.358Z" fill="#212121"/>
</svg>
