<svg viewBox="0 0 16 16" fill="none" xmlns="http://www.w3.org/2000/svg" height="1em" width="1em">
  <path d="M8 2c-1.4 0-2.417.567-3.074 1.37a4.204 4.204 0 0 0-.898 2.154C1.965 5.735 1 7.322 1 8.5c0 .573.142 1.332.686 1.954.556.636 1.46 1.046 2.814 1.046h.645A3.5 3.5 0 0 1 8.5 7h4a3.49 3.49 0 0 1 2.456 1.006c-.132-.717-.545-1.304-1.088-1.724a3.865 3.865 0 0 0-1.89-.753c-.113-1.16-.638-2.022-1.349-2.603C9.841 2.28 8.85 2 8 2Zm.5 6a2.5 2.5 0 0 0 0 5H9a.5.5 0 0 0 0-1h-.5a1.5 1.5 0 0 1 0-3H9a.5.5 0 0 0 0-1h-.5ZM12 8a.5.5 0 0 0 0 1h.5a1.5 1.5 0 0 1 0 3H12a.5.5 0 0 0 0 1h.5a2.5 2.5 0 0 0 0-5H12Zm-3.5 2a.5.5 0 0 0 0 1h4a.5.5 0 0 0 0-1h-4Z" fill="#212121"/>
</svg>
