<svg viewBox="0 0 16 16" fill="none" xmlns="http://www.w3.org/2000/svg" height="1em" width="1em">
  <path d="M5 6c0-.65.22-1.409.7-1.996C6.166 3.433 6.9 3 8 3c.65 0 1.409.22 1.996.7.38.31.698.737.869 1.312.366.024.723.084 1.066.176-.173-.99-.663-1.74-1.302-2.262C9.841 2.28 8.85 2 8 2c-1.4 0-2.417.567-3.074 1.37a4.204 4.204 0 0 0-.898 2.154C1.965 5.735 1 7.322 1 8.5c0 .573.142 1.332.686 1.954.556.636 1.46 1.046 2.814 1.046h.59a5.531 5.531 0 0 1-.09-1h-.5c-1.146 0-1.742-.34-2.061-.704C2.108 9.418 2 8.927 2 8.5c0-.736.688-2 2.5-2A.5.5 0 0 0 5 6Zm5.5 9a4.5 4.5 0 1 0 0-9 4.5 4.5 0 0 0 0 9Zm0-7a.5.5 0 0 1 .5.5V10h1.5a.5.5 0 0 1 0 1H11v1.5a.5.5 0 0 1-1 0V11H8.5a.5.5 0 0 1 0-1H10V8.5a.5.5 0 0 1 .5-.5Z" fill="#212121"/>
</svg>
