<svg viewBox="0 0 16 16" fill="none" xmlns="http://www.w3.org/2000/svg" height="1em" width="1em">
  <path d="M6.5 6a.5.5 0 0 0 0 1h3a.5.5 0 0 0 0-1h-3ZM4 9.5a.5.5 0 0 1 .5-.5h2a.5.5 0 0 1 0 1h-2a.5.5 0 0 1-.5-.5ZM9.5 9a.5.5 0 0 0 0 1h2a.5.5 0 0 0 0-1h-2ZM8 3c-1.4 0-2.417.567-3.074 1.37a4.204 4.204 0 0 0-.898 2.154C1.965 6.735 1 8.322 1 9.5c0 .573.142 1.332.686 1.954.556.636 1.46 1.046 2.814 1.046h7c1.075 0 1.957-.262 2.578-.8.63-.548.922-1.323.922-2.2 0-.943-.469-1.705-1.132-2.218a3.865 3.865 0 0 0-1.89-.753c-.113-1.16-.638-2.022-1.349-2.603C9.841 3.28 8.85 3 8 3ZM5 7c0-.65.22-1.409.7-1.996C6.166 4.433 6.9 4 8 4c.65 0 1.409.22 1.996.7C10.567 5.166 11 5.9 11 7a.5.5 0 0 0 .5.5c.648 0 1.289.212 1.757.574.462.356.743.844.743 1.426 0 .648-.208 1.123-.578 1.444-.38.33-.997.556-1.922.556h-7c-1.146 0-1.742-.34-2.061-.704C2.108 10.418 2 9.927 2 9.5c0-.736.688-2 2.5-2A.5.5 0 0 0 5 7Z" fill="#212121"/>
</svg>
