<svg viewBox="0 0 24 24" fill="none" xmlns="http://www.w3.org/2000/svg" height="1em" width="1em">
  <path d="M6.087 9.75a5.752 5.752 0 0 1 11.326 0h.087A4 4 0 0 1 21.098 12h-1.813a2.493 2.493 0 0 0-1.785-.75h-.756a.75.75 0 0 1-.75-.713 4.25 4.25 0 0 0-8.489 0 .75.75 0 0 1-.749.713H6a2.5 2.5 0 0 0 0 5h5.439c.155.194.345.358.561.482v1.018H6a4 4 0 0 1 0-8h.087ZM12 14a1 1 0 0 1 1-1h9a1 1 0 0 1 1 1v1a1 1 0 0 1-1 1h-9a1 1 0 0 1-1-1v-1Zm10 3h-9v4a2 2 0 0 0 2 2h5a2 2 0 0 0 2-2v-4Zm-6 1h3a.5.5 0 0 1 0 1h-3a.5.5 0 1 1 0-1Z" fill="#212121"/>
</svg>
