<svg viewBox="0 0 16 16" fill="none" xmlns="http://www.w3.org/2000/svg" height="1em" width="1em">
  <path d="M5 6c0-.65.22-1.409.7-1.996C6.166 3.433 6.9 3 8 3c.65 0 1.409.22 1.996.7C10.567 4.166 11 4.9 11 6a.5.5 0 0 0 .5.5c.648 0 1.289.212 1.757.574l.015.011a3.505 3.505 0 0 1 1.684.92c-.132-.716-.545-1.303-1.088-1.723a3.865 3.865 0 0 0-1.89-.753c-.113-1.16-.638-2.022-1.349-2.603C9.841 2.28 8.85 2 8 2c-1.4 0-2.417.567-3.074 1.37a4.204 4.204 0 0 0-.898 2.154C1.965 5.735 1 7.322 1 8.5c0 .573.142 1.332.686 1.954.556.636 1.46 1.046 2.814 1.046h.645a3.5 3.5 0 0 1-.145-1h-.5c-1.146 0-1.742-.34-2.061-.704C2.108 9.418 2 8.927 2 8.5c0-.736.688-2 2.5-2A.5.5 0 0 0 5 6Zm3.5 2a2.5 2.5 0 0 0 0 5H9a.5.5 0 0 0 0-1h-.5a1.5 1.5 0 0 1 0-3H9a.5.5 0 0 0 0-1h-.5ZM12 8a.5.5 0 0 0 0 1h.5a1.5 1.5 0 0 1 0 3H12a.5.5 0 0 0 0 1h.5a2.5 2.5 0 0 0 0-5H12Zm-3.5 2a.5.5 0 0 0 0 1h4a.5.5 0 0 0 0-1h-4Z" fill="#212121"/>
</svg>
