<svg viewBox="0 0 16 16" fill="none" xmlns="http://www.w3.org/2000/svg" height="1em" width="1em">
  <path d="M5.7 5.004A3.23 3.23 0 0 0 5 7a.5.5 0 0 1-.5.5C2.688 7.5 2 8.764 2 9.5c0 .427.108.918.439 1.296.319.364.915.704 2.061.704h7c.925 0 1.543-.226 1.922-.556.37-.32.578-.796.578-1.444 0-.582-.281-1.07-.743-1.426-.468-.362-1.109-.574-1.757-.574A.5.5 0 0 1 11 7c0-1.1-.433-1.833-1.004-2.3A3.23 3.23 0 0 0 8 4c-1.1 0-1.833.433-2.3 1.004Zm-.774-.633C5.583 3.567 6.6 3 8 3c.85 0 1.841.28 2.63.926.71.58 1.235 1.443 1.348 2.603a3.865 3.865 0 0 1 1.89.753C14.531 7.795 15 8.557 15 9.5c0 .877-.292 1.652-.922 2.2-.62.538-1.503.8-2.578.8h-7c-1.354 0-2.258-.41-2.814-1.046C1.142 10.832 1 10.073 1 9.5c0-1.178.965-2.765 3.028-2.976a4.2 4.2 0 0 1 .898-2.153Z" fill="#212121"/>
</svg>
