<svg viewBox="0 0 16 16" fill="none" xmlns="http://www.w3.org/2000/svg" height="1em" width="1em">
  <path d="M8 2c-1.4 0-2.417.567-3.074 1.37a4.204 4.204 0 0 0-.898 2.154C1.965 5.735 1 7.322 1 8.5c0 .573.142 1.332.686 1.954.556.636 1.46 1.046 2.814 1.046h.59a5.5 5.5 0 0 1 6.84-6.312c-.172-.99-.662-1.74-1.3-2.262A4.23 4.23 0 0 0 8 2Zm2.5 13a4.5 4.5 0 1 0 0-9 4.5 4.5 0 0 0 0 9Zm0-7a.5.5 0 0 1 .5.5V10h1.5a.5.5 0 0 1 0 1H11v1.5a.5.5 0 0 1-1 0V11H8.5a.5.5 0 0 1 0-1H10V8.5a.5.5 0 0 1 .5-.5Z" fill="#212121"/>
</svg>
