<svg viewBox="0 0 16 16" fill="none" xmlns="http://www.w3.org/2000/svg" height="1em" width="1em">
  <path d="m11.787 12.494 2.36 2.36a.5.5 0 0 0 .707-.708l-13-13a.5.5 0 1 0-.708.708L4.434 5.14a4.33 4.33 0 0 0-.406 1.383C1.965 6.735 1 8.322 1 9.5c0 .573.142 1.332.686 1.954.556.636 1.46 1.046 2.814 1.046h7c.097 0 .193-.002.287-.006Zm2.29-.795c-.045.04-.092.079-.141.116L5.749 3.628C6.342 3.24 7.09 3 8 3c.85 0 1.841.28 2.63.926.71.58 1.235 1.443 1.348 2.603a3.865 3.865 0 0 1 1.89.753C14.531 7.795 15 8.557 15 9.5c0 .877-.292 1.652-.922 2.2Z" fill="#212121"/>
</svg>
