<svg viewBox="0 0 16 16" fill="none" xmlns="http://www.w3.org/2000/svg" height="1em" width="1em">
  <path d="M4.926 3.37C5.583 2.568 6.6 2 8 2c.85 0 1.841.28 2.63.926.638.522 1.128 1.273 1.301 2.262a5.5 5.5 0 0 0-6.84 6.312H4.5c-1.354 0-2.258-.41-2.814-1.046C1.142 9.832 1 9.073 1 8.5c0-1.178.965-2.765 3.028-2.976a4.2 4.2 0 0 1 .898-2.153ZM15 10.5a4.5 4.5 0 1 0-9 0 4.5 4.5 0 0 0 9 0Zm-4.146-2.353 2 2a.5.5 0 0 1-.708.707L11 9.707V12.5a.5.5 0 0 1-1 0V9.707l-1.146 1.147a.5.5 0 0 1-.708-.708l2-2A.499.499 0 0 1 10.497 8h.006a.498.498 0 0 1 .348.144l.003.003Z" fill="#212121"/>
</svg>
