<svg viewBox="0 0 16 16" fill="none" xmlns="http://www.w3.org/2000/svg" height="1em" width="1em">
  <path d="M5.7 4.004A3.23 3.23 0 0 0 5 6a.5.5 0 0 1-.5.5C2.688 6.5 2 7.764 2 8.5c0 .427.108.918.439 1.296.319.364.915.704 2.061.704h2.177a2 2 0 0 0 .323.232v.768H4.5c-1.354 0-2.258-.41-2.814-1.046C1.142 9.832 1 9.073 1 8.5c0-1.178.965-2.765 3.028-2.976a4.2 4.2 0 0 1 .898-2.153C5.583 2.567 6.6 2 8 2c.85 0 1.841.28 2.63.926.71.58 1.235 1.443 1.348 2.603a3.865 3.865 0 0 1 1.89.753 3.1 3.1 0 0 1 .677.718h-1.39a2.954 2.954 0 0 0-1.655-.5.5.5 0 0 1-.5-.5c0-1.1-.433-1.833-1.004-2.3A3.23 3.23 0 0 0 8 3c-1.1 0-1.833.433-2.3 1.004ZM7 9a1 1 0 0 1 1-1h7a1 1 0 1 1 0 2H8a1 1 0 0 1-1-1Zm6 7a2 2 0 0 0 2-2v-3H8v3a2 2 0 0 0 2 2h3Zm-2.5-4h2a.5.5 0 0 1 0 1h-2a.5.5 0 0 1 0-1Z" fill="#212121"/>
</svg>
