<svg viewBox="0 0 16 16" fill="none" xmlns="http://www.w3.org/2000/svg" height="1em" width="1em">
  <path d="M5.7 4.004A3.23 3.23 0 0 0 5 6a.5.5 0 0 1-.5.5C2.688 6.5 2 7.764 2 8.5c0 .427.108.918.439 1.296.319.364.915.704 2.061.704H5c0 .341.031.676.09 1H4.5c-1.354 0-2.258-.41-2.814-1.046C1.142 9.832 1 9.073 1 8.5c0-1.178.965-2.765 3.028-2.976a4.2 4.2 0 0 1 .898-2.153C5.583 2.567 6.6 2 8 2c.85 0 1.841.28 2.63.926.638.522 1.128 1.273 1.301 2.262a5.487 5.487 0 0 0-1.066-.176 2.638 2.638 0 0 0-.87-1.313A3.23 3.23 0 0 0 8 3c-1.1 0-1.833.433-2.3 1.004ZM15 10.5a4.5 4.5 0 1 1-9 0 4.5 4.5 0 0 1 9 0Zm-4.146-2.353-.003-.003A.498.498 0 0 0 10.503 8h-.006a.498.498 0 0 0-.35.146l-2 2a.5.5 0 0 0 .707.708L10 9.707V12.5a.5.5 0 0 0 1 0V9.707l1.146 1.147a.5.5 0 0 0 .708-.708l-2-2Z" fill="#212121"/>
</svg>
