<svg viewBox="0 0 16 16" fill="none" xmlns="http://www.w3.org/2000/svg" height="1em" width="1em">
  <path d="M1.75 2.5a.75.75 0 0 0 0 1.5h5a.75.75 0 0 0 0-1.5h-5Zm3 3a.75.75 0 0 0 0 1.5h3.5a.75.75 0 0 0 0-1.5h-3.5ZM3 9.25a.75.75 0 0 1 .75-.75h7.5a.75.75 0 0 1 0 1.5h-7.5A.75.75 0 0 1 3 9.25ZM1.75 11.5a.75.75 0 0 0 0 1.5h7a.75.75 0 0 0 0-1.5h-7Zm8.75-5.25a.75.75 0 0 1 .75-.75h2a.75.75 0 0 1 0 1.5h-2a.75.75 0 0 1-.75-.75ZM9.75 2.5a.75.75 0 0 0 0 1.5h4.5a.75.75 0 0 0 0-1.5h-4.5Z" fill="#212121"/>
</svg>
