<svg viewBox="0 0 16 16" fill="none" xmlns="http://www.w3.org/2000/svg" height="1em" width="1em">
  <path d="M15 5.5a4.5 4.5 0 1 1-9 0 4.5 4.5 0 0 1 9 0Zm-6.853-.354-.003.003A.498.498 0 0 0 8 5.497v.006a.498.498 0 0 0 .146.35l2 2a.5.5 0 0 0 .708-.707L9.707 6H12.5a.5.5 0 0 0 0-1H9.707l1.147-1.146a.5.5 0 0 0-.708-.708l-2 2ZM10.5 11c1.86 0 3.505-.923 4.5-2.337V9.5a2.5 2.5 0 0 1-2.5 2.5H8.688l-3.063 2.68A.98.98 0 0 1 4 13.942V12h-.5A2.5 2.5 0 0 1 1 9.5v-5A2.5 2.5 0 0 1 3.5 2h2.757a5.5 5.5 0 0 0 4.243 9Z" fill="#212121"/>
</svg>
