<svg viewBox="0 0 24 24" fill="none" xmlns="http://www.w3.org/2000/svg" height="1em" width="1em">
  <path d="M3.25 11H2.048a10.003 10.003 0 0 1 8.95-8.951v1.2a.75.75 0 0 0 1.5 0V2.012a10.001 10.001 0 0 1 9.451 8.987h-1.2a.75.75 0 0 0 0 1.5h1.237a10.001 10.001 0 0 1-9.488 9.488V20.75a.75.75 0 0 0-1.5 0v1.201a10 10 0 0 1-8.987-9.45h1.237a.75.75 0 0 0 0-1.5Zm11.403.525a4 4 0 0 0-2.196-2.14L8.43 7.78a.5.5 0 0 0-.65.65l1.606 4.028a4 4 0 0 0 2.14 2.195l4.325 1.854a.5.5 0 0 0 .657-.656l-1.854-4.326Z" fill="#212121"/>
</svg>
