<svg viewBox="0 0 16 16" fill="none" xmlns="http://www.w3.org/2000/svg" height="1em" width="1em">
  <path d="M6.479 5.13c-.867-.448-1.797.482-1.348 1.348l.988 1.909a3.5 3.5 0 0 0 1.493 1.495l1.921 1c.867.451 1.8-.482 1.349-1.349l-1-1.922A3.5 3.5 0 0 0 8.387 6.12L6.48 5.131Zm-.46.888 1.908.99a2.5 2.5 0 0 1 1.068 1.065l1 1.922-1.922-1a2.5 2.5 0 0 1-1.066-1.068L6.02 6.018ZM8 1a7 7 0 1 0 0 14A7 7 0 0 0 8 1Zm0 1v1.5a.5.5 0 0 0 1 0V2.083A6.005 6.005 0 0 1 13.917 7H12.5a.5.5 0 0 0 0 1H14a6.002 6.002 0 0 1-5 5.917V12.5a.5.5 0 0 0-1 0V14a6 6 0 0 1-6-6h1.5a.5.5 0 0 0 0-1H2.083A6.002 6.002 0 0 1 8 2Z" fill="#212121"/>
</svg>
