<svg viewBox="0 0 28 28" fill="none" xmlns="http://www.w3.org/2000/svg" height="1em" width="1em">
  <path d="M2.043 13c.48-5.83 5.129-10.478 10.959-10.96v1.21a.75.75 0 0 0 1.5 0V2.01C20.564 2.258 25.465 7.004 25.96 13h-1.209a.75.75 0 0 0 0 1.5h1.24c-.255 6.23-5.26 11.234-11.49 11.49v-1.24a.75.75 0 0 0-1.5 0v1.209c-5.995-.495-10.74-5.397-10.99-11.46h1.24a.75.75 0 1 0 0-1.5H2.043Zm8.66 1.423a5 5 0 0 0 2.875 2.874l4.994 1.92a.5.5 0 0 0 .646-.647L17.3 13.576a5 5 0 0 0-2.874-2.874l-4.994-1.92a.5.5 0 0 0-.647.647l1.92 4.994Z" fill="#212121"/>
</svg>
