<svg viewBox="0 0 32 32" fill="none" xmlns="http://www.w3.org/2000/svg" height="1em" width="1em">
  <path d="M9.394 10.08a1 1 0 1 0-.788 1.84L15 14.66V21a1 1 0 1 0 2 0v-6.34l6.394-2.74a1 1 0 0 0-.788-1.84L16 12.913l-6.606-2.831Zm8.76-7.323a6 6 0 0 0-4.308 0L3.923 6.574A3 3 0 0 0 2 9.374v13.252a3 3 0 0 0 1.923 2.8l9.923 3.817a6 6 0 0 0 4.308 0l9.923-3.816a3 3 0 0 0 1.923-2.8V9.373a3 3 0 0 0-1.923-2.8l-9.923-3.817Zm-3.59 1.867a4 4 0 0 1 2.872 0l9.923 3.816a1 1 0 0 1 .641.934v13.252a1 1 0 0 1-.641.934l-9.923 3.816a4 4 0 0 1-2.872 0L4.641 23.56A1 1 0 0 1 4 22.627V9.373a1 1 0 0 1 .641-.934l9.923-3.816Z" fill="#212121"/>
</svg>
