<svg viewBox="0 0 28 28" fill="none" xmlns="http://www.w3.org/2000/svg" height="1em" width="1em">
  <path d="M18.722 8.551a.5.5 0 0 0-.444 0l-4.5 2.224a.5.5 0 0 0-.278.449v5.552a.5.5 0 0 0 .278.449l4.5 2.224a.5.5 0 0 0 .444 0l4.5-2.224a.5.5 0 0 0 .278-.449v-5.552a.5.5 0 0 0-.278-.449l-4.5-2.224Zm-1.108-1.345a2 2 0 0 1 1.772 0l4.5 2.225A2 2 0 0 1 25 11.224v5.552a2 2 0 0 1-1.114 1.793l-4.5 2.225a2 2 0 0 1-1.772 0l-4.5-2.225A2 2 0 0 1 12 16.776v-5.552a2 2 0 0 1 1.114-1.793l4.5-2.225ZM4 9.25a.75.75 0 0 1 .75-.75h5a.75.75 0 0 1 0 1.5h-5A.75.75 0 0 1 4 9.25Zm-2 4.5a.75.75 0 0 1 .75-.75h5a.75.75 0 0 1 0 1.5h-5a.75.75 0 0 1-.75-.75Zm2.75 3.75a.75.75 0 0 0 0 1.5h5a.75.75 0 0 0 0-1.5h-5Zm11.36-5.908a.75.75 0 1 0-.72 1.316l2.36 1.287v3.055a.75.75 0 0 0 1.5 0v-3.055l2.36-1.287a.75.75 0 1 0-.72-1.316l-2.39 1.304-2.39-1.304Z" fill="#212121"/>
</svg>
