<svg viewBox="0 0 16 16" fill="none" xmlns="http://www.w3.org/2000/svg" height="1em" width="1em">
  <path d="M11.07 4.139a1.25 1.25 0 0 0-1.14 0L7.68 5.293A1.25 1.25 0 0 0 7 6.405v3.19c0 .468.262.898.68 1.112l2.25 1.154a1.25 1.25 0 0 0 1.14 0l2.25-1.154A1.25 1.25 0 0 0 14 9.594V6.405a1.25 1.25 0 0 0-.68-1.112L11.07 4.14Zm-.684.89a.25.25 0 0 1 .228 0l2.25 1.154a.25.25 0 0 1 .136.222v3.19a.25.25 0 0 1-.136.222l-2.25 1.155a.25.25 0 0 1-.228 0l-2.25-1.155A.25.25 0 0 1 8 9.594V6.405a.25.25 0 0 1 .136-.222l2.25-1.155ZM9.224 6.552a.5.5 0 1 0-.448.894L10 8.06V9.5a.5.5 0 0 0 1 0V8.059l1.224-.612a.5.5 0 1 0-.448-.894L10.5 7.19l-1.276-.638ZM1.5 7.5a.5.5 0 0 0 0 1h3a.5.5 0 0 0 0-1h-3Zm.5-2a.5.5 0 0 1 .5-.5h3a.5.5 0 0 1 0 1h-3a.5.5 0 0 1-.5-.5Zm.5 4.5a.5.5 0 0 0 0 1h3a.5.5 0 1 0 0-1h-3Z" fill="#212121"/>
</svg>
