<svg viewBox="0 0 16 16" fill="none" xmlns="http://www.w3.org/2000/svg" height="1em" width="1em">
  <path d="M9.93 4.139a1.25 1.25 0 0 1 1.14 0l2.25 1.154c.418.215.68.644.68 1.113v3.189c0 .468-.262.898-.68 1.112l-2.25 1.154a1.25 1.25 0 0 1-1.14 0l-2.25-1.154A1.25 1.25 0 0 1 7 9.595v-3.19c0-.468.262-.897.68-1.112L9.93 4.14ZM8.552 6.776a.5.5 0 0 0 .223.671L10 8.06V9.5a.5.5 0 0 0 1 0V8.059l1.224-.612a.5.5 0 1 0-.448-.894L10.5 7.19l-1.276-.638a.5.5 0 0 0-.671.223ZM1.5 7.5a.5.5 0 0 0 0 1h3a.5.5 0 0 0 0-1h-3Zm.5-2a.5.5 0 0 1 .5-.5h3a.5.5 0 0 1 0 1h-3a.5.5 0 0 1-.5-.5Zm.5 4.5a.5.5 0 0 0 0 1h3a.5.5 0 0 0 0-1h-3Z" fill="#212121"/>
</svg>
