<svg viewBox="0 0 24 24" fill="none" xmlns="http://www.w3.org/2000/svg" height="1em" width="1em">
  <path d="M15.494 4.25A.82.82 0 0 1 15 3.51c0-.52.507-.892.986-.684a10.037 10.037 0 0 1 5.188 5.189c.208.478-.163.986-.684.986a.82.82 0 0 1-.739-.494 8.533 8.533 0 0 0-4.257-4.258ZM9 3.51c0-.52-.507-.892-.986-.684a10.037 10.037 0 0 0-5.188 5.189c-.208.478.163.986.684.986a.82.82 0 0 0 .739-.494 8.532 8.532 0 0 1 4.257-4.258A.82.82 0 0 0 9 3.511Zm6.494 16.242a.82.82 0 0 0-.494.738c0 .522.507.893.986.685a10.037 10.037 0 0 0 5.188-5.189c.208-.478-.163-.985-.684-.985a.82.82 0 0 0-.739.493 8.533 8.533 0 0 1-4.257 4.258ZM3.51 15c.322 0 .607.2.739.493a8.533 8.533 0 0 0 4.257 4.258.82.82 0 0 1 .494.738c0 .522-.507.893-.986.685a10.037 10.037 0 0 1-5.188-5.189c-.208-.478.163-.985.684-.985ZM12 6.5c-.193 0-.384.01-.572.029a.75.75 0 1 1-.154-1.492 7.002 7.002 0 0 1 7.552 5.406.75.75 0 1 1-1.463.332A5.502 5.502 0 0 0 12 6.501Zm-2.879-.1a.75.75 0 0 1-.2 1.042A5.494 5.494 0 0 0 6.5 12c0 1.142.347 2.2.942 3.08a.75.75 0 1 1-1.242.84A6.97 6.97 0 0 1 5 12a6.994 6.994 0 0 1 3.08-5.8.75.75 0 0 1 1.041.2Zm9.11 6.505a.75.75 0 0 1 .529.919 7.003 7.003 0 0 1-10.01 4.377.75.75 0 1 1 .697-1.328 5.503 5.503 0 0 0 7.864-3.439.75.75 0 0 1 .92-.53ZM12 8a4 4 0 1 0 0 8 4 4 0 0 0 0-8Zm-2.5 4a2.5 2.5 0 1 1 5 0 2.5 2.5 0 0 1-5 0Z" fill="#212121"/>
</svg>
