<svg viewBox="0 0 28 28" fill="none" xmlns="http://www.w3.org/2000/svg" height="1em" width="1em">
  <path d="M9 4.5a1.5 1.5 0 1 1-3 0 1.5 1.5 0 0 1 3 0Zm0 6a1.5 1.5 0 1 1-3 0 1.5 1.5 0 0 1 3 0Zm0 6a1.5 1.5 0 1 1-3 0 1.5 1.5 0 0 1 3 0Zm6.5-12a1.5 1.5 0 1 1-3 0 1.5 1.5 0 0 1 3 0Zm0 6a1.5 1.5 0 1 1-3 0 1.5 1.5 0 0 1 3 0Zm0 6a1.5 1.5 0 1 1-3 0 1.5 1.5 0 0 1 3 0Zm0 6a1.5 1.5 0 1 1-3 0 1.5 1.5 0 0 1 3 0Zm6.5-18a1.5 1.5 0 1 1-3 0 1.5 1.5 0 0 1 3 0Zm0 6a1.5 1.5 0 1 1-3 0 1.5 1.5 0 0 1 3 0Zm0 6a1.5 1.5 0 1 1-3 0 1.5 1.5 0 0 1 3 0Z" fill="#212121"/>
</svg>
