<svg viewBox="0 0 24 24" fill="none" xmlns="http://www.w3.org/2000/svg" height="1em" width="1em">
  <path d="M12 17.75a1.5 1.5 0 1 1 0 3 1.5 1.5 0 0 1 0-3Zm0-5a1.5 1.5 0 1 1 0 3 1.5 1.5 0 0 1 0-3Zm4.996 0a1.5 1.5 0 1 1 0 3 1.5 1.5 0 0 1 0-3Zm-9.992 0a1.5 1.5 0 1 1 0 3 1.5 1.5 0 0 1 0-3Zm4.996-5a1.5 1.5 0 1 1 0 3 1.5 1.5 0 0 1 0-3Zm4.996 0a1.5 1.5 0 1 1 0 3 1.5 1.5 0 0 1 0-3Zm-9.992 0a1.5 1.5 0 1 1 0 3 1.5 1.5 0 0 1 0-3Zm4.996-5a1.5 1.5 0 1 1 0 3 1.5 1.5 0 0 1 0-3Zm4.996 0a1.5 1.5 0 1 1 0 3 1.5 1.5 0 0 1 0-3Zm-9.992 0a1.5 1.5 0 1 1 0 3 1.5 1.5 0 0 1 0-3Z" fill="#212121"/>
</svg>
