<svg viewBox="0 0 24 24" fill="none" xmlns="http://www.w3.org/2000/svg" height="1em" width="1em">
  <path d="m14.298 2.985 6.718 6.718a3.25 3.25 0 0 1 0 4.596l-6.718 6.717a3.25 3.25 0 0 1-4.596 0L2.985 14.3a3.25 3.25 0 0 1 0-4.596l6.717-6.718a3.25 3.25 0 0 1 4.596 0Zm-.707 4.236-.084-.073a.75.75 0 0 0-.883-.007l-.093.08-.073.084a.75.75 0 0 0-.007.883l.08.094.718.718H11.75l-.167.006a2.75 2.75 0 0 0-2.577 2.57L9 11.752V15l.007.101a.75.75 0 0 0 1.486 0L10.5 15v-3.25l.007-.128a1.25 1.25 0 0 1 1.115-1.116l.128-.006h1.5l-.72.72-.072.084a.75.75 0 0 0 1.05 1.05l.083-.073 2-2 .073-.084a.75.75 0 0 0 .007-.883l-.08-.094-2-2-.084-.073.084.073Z" fill="#212121"/>
</svg>
