<svg viewBox="0 0 24 24" fill="none" xmlns="http://www.w3.org/2000/svg" height="1em" width="1em">
  <path d="M12 8V2H6a2 2 0 0 0-2 2v16a2 2 0 0 0 2 2h12a2 2 0 0 0 2-2V10h-6a2 2 0 0 1-2-2Zm-5 4.25a.75.75 0 1 1 1.5 0 .75.75 0 0 1-1.5 0Zm0 3a.75.75 0 1 1 1.5 0 .75.75 0 0 1-1.5 0Zm0 3a.75.75 0 1 1 1.5 0 .75.75 0 0 1-1.5 0Zm3-6a.75.75 0 0 1 .75-.75h5.5a.75.75 0 0 1 0 1.5h-5.5a.75.75 0 0 1-.75-.75Zm0 3a.75.75 0 0 1 .75-.75h5.5a.75.75 0 0 1 0 1.5h-5.5a.75.75 0 0 1-.75-.75Zm0 3a.75.75 0 0 1 .75-.75h5.5a.75.75 0 0 1 0 1.5h-5.5a.75.75 0 0 1-.75-.75ZM13.5 8V2.5l6 6H14a.5.5 0 0 1-.5-.5Z" fill="#212121"/>
</svg>
