<svg viewBox="0 0 24 24" fill="none" xmlns="http://www.w3.org/2000/svg" height="1em" width="1em">
  <path d="M17.75 2.008a2.25 2.25 0 0 1 2.245 2.096l.005.154v15.498A2.25 2.25 0 0 1 17.904 22l-.154.005H6.25a2.25 2.25 0 0 1-2.245-2.096L4 19.756V4.258a2.25 2.25 0 0 1 2.096-2.245l.154-.005h11.5ZM7.75 7a.75.75 0 1 0 0 1.5h8.5a.75.75 0 0 0 0-1.5h-8.5ZM7 11.75c0 .414.336.75.75.75h8.5a.75.75 0 0 0 0-1.5h-8.5a.75.75 0 0 0-.75.75ZM7.75 15a.75.75 0 0 0 0 1.5h8.5a.75.75 0 0 0 0-1.5h-8.5Z" fill="#212121"/>
</svg>
