<svg viewBox="0 0 24 24" fill="none" xmlns="http://www.w3.org/2000/svg" height="1em" width="1em">
  <path d="M6.25 3A3.25 3.25 0 0 0 3 6.25v13.004a.75.75 0 0 0 1.5 0V6.25c0-.966.784-1.75 1.75-1.75h11.5c.967 0 1.75.784 1.75 1.75v4.982c.48-.19.994-.263 1.5-.22V6.25A3.25 3.25 0 0 0 17.75 3H6.25Zm6.948 15.572L19.1 12.67a2.285 2.285 0 1 1 3.233 3.232l-5.903 5.902a2.684 2.684 0 0 1-1.247.707l-1.83.457a.985.985 0 0 1-.15.027c-.59.204-2.979.574-3.827-.088-.574-.448-.46-1.334-.218-1.818.04-.078-.02-.18-.105-.166-.66.103-1.243.45-1.827.799-.783.468-1.57.936-2.549.815-.979-.122-1.468-.726-1.71-1.255-.099-.216.18-.401.388-.287.469.255 1.106.496 1.631.38.375-.084.904-.458 1.496-.877 1.066-.753 2.337-1.653 3.292-1.268.84.337 1.46 1.15 1.03 2.113-.053.118 0 .264.127.293.423.097.778.066 1.133-.105l.428-1.712c.118-.472.362-.903.706-1.247Z" fill="#212121"/>
</svg>
