<svg viewBox="0 0 32 32" fill="none" xmlns="http://www.w3.org/2000/svg" height="1em" width="1em">
  <path d="M11 4.5A2.5 2.5 0 0 1 13.5 2h5a2.5 2.5 0 0 1 .875 4.842c.2 1.015.88 1.854 1.908 2.872a8.99 8.99 0 0 1 3.714 7.405v.027l.001.054V26a4 4 0 0 1-6.5 3.122 3.984 3.984 0 0 1-2.5.878 3.984 3.984 0 0 1-2.5-.878A4 4 0 0 1 6.998 26v-9.001a8.968 8.968 0 0 1 2.19-5.884 8.97 8.97 0 0 1 1.118-1.087c1.215-1.176 2.024-2.08 2.235-3.218A2.5 2.5 0 0 1 11 4.5Zm2.5-.5a.5.5 0 0 0 0 1h5a.5.5 0 0 0 0-1h-5Zm-1.329 7h7.569c-1.02-1.022-2.027-2.202-2.332-3.8h-2.906c-.304 1.591-1.306 2.775-2.33 3.8ZM8.998 26a2 2 0 0 0 3.667 1.105 1 1 0 0 1 1.666 0 1.998 1.998 0 0 0 3.334 0 1 1 0 0 1 1.666 0A2 2 0 0 0 22.998 26v-2h-14v2Z" fill="#212121"/>
</svg>
