<svg viewBox="0 0 32 32" fill="none" xmlns="http://www.w3.org/2000/svg" height="1em" width="1em">
  <path d="M13.5 2a2.5 2.5 0 0 0-.959 4.81c-.21 1.138-1.02 2.042-2.235 3.218a9.039 9.039 0 0 0-1.18 1.16A8.968 8.968 0 0 0 6.997 17.2V26a4 4 0 0 0 6.5 3.122 3.984 3.984 0 0 0 2.5.878c.946 0 1.816-.33 2.5-.878a4 4 0 0 0 6.5-3.122v-9.001a8.99 8.99 0 0 0-3.715-7.285c-1.029-1.018-1.708-1.857-1.908-2.872A2.5 2.5 0 0 0 18.5 2h-5ZM13 4.5a.5.5 0 0 1 .5-.5h5a.5.5 0 0 1 0 1h-5a.5.5 0 0 1-.5-.5Zm6.74 6.5h-7.57c1.025-1.025 2.027-2.209 2.331-3.8h2.905c.306 1.598 1.313 2.778 2.333 3.8Zm-9.488 2h11.492a6.966 6.966 0 0 1 1.253 4.146l.001.054V22h-14v-4.8a2.276 2.276 0 0 1 0-.093V17c0-1.488.463-2.866 1.254-4ZM8.998 24h14v2a2 2 0 0 1-3.667 1.105 1 1 0 0 0-1.666 0c-.36.541-.972.895-1.667.895a1.997 1.997 0 0 1-1.667-.895 1 1 0 0 0-1.666 0A2 2 0 0 1 8.998 26v-2Z" fill="#212121"/>
</svg>
