<svg viewBox="0 0 32 32" fill="none" xmlns="http://www.w3.org/2000/svg" height="1em" width="1em">
  <path d="m18.75 20.164 9.543 9.543a1 1 0 0 0 1.414-1.414l-26-26a1 1 0 0 0-1.414 1.414l9.543 9.543-7.48 7.48a3.7 3.7 0 0 0-1 1.84l-1.333 6.22a1 1 0 0 0 1.187 1.188l6.22-1.333a3.7 3.7 0 0 0 1.841-1.002l7.479-7.479Zm-1.414-1.414-7.479 7.48a1.7 1.7 0 0 1-.846.46l-4.71 1.008 1.01-4.709a1.7 1.7 0 0 1 .46-.846l7.479-7.479 4.086 4.086Zm7.5-7.5-5.024 5.024 1.414 1.414 7.339-7.34a4.89 4.89 0 0 0-6.915-6.914l-7.338 7.34 1.414 1.414 5.024-5.024 4.085 4.085Zm-1.771-6.402a2.889 2.889 0 1 1 4.086 4.086l-.901.901-4.086-4.086.9-.9Z" fill="#212121"/>
</svg>
