<svg viewBox="0 0 32 32" fill="none" xmlns="http://www.w3.org/2000/svg" height="1em" width="1em">
  <path d="M28.564 3.434a4.889 4.889 0 0 0-6.914 0L4.357 20.73a3.7 3.7 0 0 0-1.002 1.841l-1.333 6.22a1 1 0 0 0 1.188 1.188l6.22-1.333a3.7 3.7 0 0 0 1.84-1.002l17.295-17.295a4.89 4.89 0 0 0 0-6.914Zm-5.5 1.414a2.89 2.89 0 0 1 4.086 4.086l-.9.901-4.086-4.086.9-.9ZM20.75 7.164l4.086 4.085L9.857 26.23a1.7 1.7 0 0 1-.846.46L4.3 27.7l1.01-4.71a1.7 1.7 0 0 1 .46-.846l14.978-14.98Z" fill="#212121"/>
</svg>
