<svg viewBox="0 0 24 24" fill="none" xmlns="http://www.w3.org/2000/svg" height="1em" width="1em">
  <path d="M15.891 3.048a3.578 3.578 0 1 1 5.061 5.06L20.06 9 15 3.94l.891-.892ZM13.94 5l-10 9.999a3.106 3.106 0 0 0-.825 1.477L2.02 21.077a.75.75 0 0 0 .904.903l4.601-1.095a3.105 3.105 0 0 0 1.477-.826l1.151-1.15a6.5 6.5 0 0 1 7.754-7.756L19 10.06 13.939 5Zm-.662 8.976a2 2 0 0 1-1.441 2.496l-.584.145a5.729 5.729 0 0 0 .006 1.807l.54.13a2 2 0 0 1 1.45 2.51l-.187.631c.44.386.94.7 1.485.922l.493-.519a2 2 0 0 1 2.899 0l.499.526a5.282 5.282 0 0 0 1.482-.913l-.198-.686a2 2 0 0 1 1.442-2.496l.583-.145a5.729 5.729 0 0 0-.006-1.807l-.54-.13a2 2 0 0 1-1.449-2.51l.186-.631a5.278 5.278 0 0 0-1.484-.922l-.493.518a2 2 0 0 1-2.9 0l-.498-.525c-.544.22-1.044.53-1.483.913l.198.686ZM16.5 19c-.8 0-1.45-.671-1.45-1.5 0-.828.65-1.5 1.45-1.5.8 0 1.45.672 1.45 1.5 0 .829-.65 1.5-1.45 1.5Z" fill="#212121"/>
</svg>
