<svg viewBox="0 0 32 32" fill="none" xmlns="http://www.w3.org/2000/svg" height="1em" width="1em">
  <path d="M21.65 3.434a4.889 4.889 0 1 1 6.915 6.914l-.902.901-6.914-6.914.901-.9ZM19.335 5.75 4.357 20.73a3.7 3.7 0 0 0-1.002 1.84l-1.333 6.22a1 1 0 0 0 1.188 1.188l6.22-1.333a3.7 3.7 0 0 0 1.84-1.002l2.096-2.095a9 9 0 0 1 11.182-11.183l1.701-1.701-6.914-6.914ZM22 30.5a7.5 7.5 0 1 0 0-15 7.5 7.5 0 0 0 0 15Zm0-2a5.475 5.475 0 0 1-3.117-.968l7.649-7.65A5.5 5.5 0 0 1 22 28.5Zm3.118-10.032-7.65 7.65a5.5 5.5 0 0 1 7.65-7.65Z" fill="#212121"/>
</svg>
