<svg viewBox="0 0 48 48" fill="none" xmlns="http://www.w3.org/2000/svg" height="1em" width="1em">
  <path d="M41.974 6.025a6.907 6.907 0 0 0-9.768 0L8.038 30.198a6.007 6.007 0 0 0-1.572 2.758L4.039 42.44a1.25 1.25 0 0 0 1.52 1.521l9.487-2.425a6.007 6.007 0 0 0 2.76-1.572l24.168-24.171a6.907 6.907 0 0 0 0-9.768Zm-8 1.768a4.407 4.407 0 0 1 6.233 6.232L38 16.232 31.768 10l2.206-2.207ZM30 11.768 36.232 18 16.038 38.196a3.507 3.507 0 0 1-1.611.918l-7.443 1.903 1.904-7.442c.156-.61.473-1.166.917-1.61L30 11.768Z" fill="#212121"/>
</svg>
