<svg viewBox="0 0 24 24" fill="none" xmlns="http://www.w3.org/2000/svg" height="1em" width="1em">
  <path d="M12 1.998c5.524 0 10.002 4.478 10.002 10.002 0 5.523-4.478 10-10.002 10-5.524.001-10.002-4.477-10.002-10C1.998 6.476 6.476 1.998 12 1.998ZM8.462 14.783a.75.75 0 0 0-1.178.928A5.991 5.991 0 0 0 12 18.001c1.86 0 3.581-.853 4.712-2.284a.75.75 0 0 0-1.177-.93A4.491 4.491 0 0 1 12 16.501c-1.398 0-2.69-.64-3.538-1.718ZM9 8.75a1.25 1.25 0 1 0 0 2.499A1.25 1.25 0 0 0 9 8.75Zm6 0a1.25 1.25 0 1 0 0 2.499 1.25 1.25 0 0 0 0-2.499Z" fill="#212121"/>
</svg>
