<svg viewBox="0 0 24 24" fill="none" xmlns="http://www.w3.org/2000/svg" height="1em" width="1em">
  <path d="M12 1.999c5.27 0 9.59 4.077 9.973 9.25a3.286 3.286 0 0 0-3.58.713l-2.636 2.636a.747.747 0 0 0-.223.19c-.053.068-.11.135-.167.2l-.383.383A4.486 4.486 0 0 1 12 16.502a4.49 4.49 0 0 1-3.539-1.718.75.75 0 0 0-1.178.928 5.991 5.991 0 0 0 5.087 2.279c-.409.45-.701.994-.85 1.586l-.457 1.83a2.121 2.121 0 0 0-.064.546C5.945 21.45 2 17.187 2 12 1.999 6.476 6.477 1.998 12 1.998ZM9 8.751a1.25 1.25 0 1 0 0 2.499 1.25 1.25 0 0 0 0-2.5Zm6 0a1.25 1.25 0 1 0 0 2.499 1.25 1.25 0 0 0 0-2.499Zm4.1 3.918-5.903 5.903a2.686 2.686 0 0 0-.706 1.247l-.458 1.831a1.087 1.087 0 0 0 1.319 1.318l1.83-.457a2.685 2.685 0 0 0 1.248-.707l5.902-5.902A2.286 2.286 0 0 0 19.1 12.67Z" fill="#212121"/>
</svg>
