<svg viewBox="0 0 24 24" fill="none" xmlns="http://www.w3.org/2000/svg" height="1em" width="1em">
  <path d="M12 1.998c5.524 0 10.002 4.478 10.002 10.002 0 5.523-4.479 10-10.002 10-5.524.001-10.002-4.477-10.002-10C1.998 6.476 6.476 1.998 12 1.998Zm0 1.5a8.502 8.502 0 1 0 0 17.003 8.502 8.502 0 0 0 0-17.003Zm0 10c1.631 0 3.16.654 4.281 1.795a.75.75 0 1 1-1.07 1.05A4.485 4.485 0 0 0 12 14.998a4.485 4.485 0 0 0-3.217 1.352.75.75 0 1 1-1.071-1.05A5.985 5.985 0 0 1 12 13.498ZM9 8.75a1.25 1.25 0 1 1 0 2.499A1.25 1.25 0 0 1 9 8.75Zm6 0a1.25 1.25 0 1 1 0 2.499 1.25 1.25 0 0 1 0-2.499Z" fill="#212121"/>
</svg>
