<svg viewBox="0 0 24 24" fill="none" xmlns="http://www.w3.org/2000/svg" height="1em" width="1em">
  <path d="M12 1.999c5.27 0 9.59 4.077 9.973 9.25a3.295 3.295 0 0 0-1.529-.238 8.503 8.503 0 0 0-16.946.99 8.502 8.502 0 0 0 7.799 8.472l-.234.934a2.121 2.121 0 0 0-.064.546C5.945 21.45 2 17.187 2 12 1.999 6.476 6.477 1.998 12 1.998Zm0 14.503a4.486 4.486 0 0 0 2.984-1.13l-2.494 2.493a3.66 3.66 0 0 0-.12.126 5.991 5.991 0 0 1-5.087-2.279.75.75 0 0 1 1.178-.928A4.491 4.491 0 0 0 12 16.502Zm-3-7.75a1.25 1.25 0 1 1 0 2.498 1.25 1.25 0 0 1 0-2.5Zm6 0a1.25 1.25 0 1 1 0 2.498 1.25 1.25 0 0 1 0-2.499Zm4.1 3.917-5.903 5.903a2.686 2.686 0 0 0-.706 1.247l-.458 1.831a1.087 1.087 0 0 0 1.319 1.318l1.83-.457a2.685 2.685 0 0 0 1.248-.707l5.902-5.902A2.286 2.286 0 0 0 19.1 12.67Z" fill="#212121"/>
</svg>
