<svg viewBox="0 0 24 24" fill="none" xmlns="http://www.w3.org/2000/svg" height="1em" width="1em">
  <path d="M15.841 2.661a2.25 2.25 0 0 0-3.19-.023l-9.599 9.508a2.25 2.25 0 0 0 .007 3.204l5.1 5.008a2.25 2.25 0 0 0 3.175-.023l.215-.217a6.454 6.454 0 0 1-.477-1.65l-.804.812a.75.75 0 0 1-1.058.008l-5.1-5.008a.75.75 0 0 1-.002-1.068l1.53-1.515 5.376 5.377a6.49 6.49 0 0 1 .362-1.759l-4.673-4.673 7.004-6.938a.75.75 0 0 1 1.063.007l4.91 5.009a.75.75 0 0 1-.003 1.052l-1.276 1.29a6.44 6.44 0 0 1 1.656.46l.687-.695a2.25 2.25 0 0 0 .007-3.158l-4.91-5.008Z" fill="#212121"/>
  <path d="M19.29 12.297A5.502 5.502 0 0 1 17.5 23a5.502 5.502 0 0 1-5.324-6.885A5.502 5.502 0 0 1 17.473 12m.027 0a5.5 5.5 0 0 1 1.79.297Zm0 0h-.027Z" fill="#212121"/>
</svg>
