<svg viewBox="0 0 24 24" fill="none" xmlns="http://www.w3.org/2000/svg" height="1em" width="1em">
  <path d="m8.94 10-4.78 4.78a2.25 2.25 0 0 0-.659 1.591v.688l-1.28 2.347c-.836 1.533.841 3.21 2.374 2.374l2.347-1.28h.688a2.25 2.25 0 0 0 1.59-.659l4.78-4.78 6.72 6.72a.75.75 0 0 0 1.06-1.061L3.28 2.22a.75.75 0 1 0-1.06 1.06L8.94 10Zm4 4-4.78 4.78a.75.75 0 0 1-.53.22h-.88a.75.75 0 0 0-.359.092l-2.515 1.372a.234.234 0 0 1-.159.032.264.264 0 0 1-.138-.075.264.264 0 0 1-.075-.138.234.234 0 0 1 .033-.159L4.91 17.61a.75.75 0 0 0 .09-.36v-.879a.75.75 0 0 1 .22-.53l4.78-4.78 2.939 2.94Zm5.548-.927a1.75 1.75 0 0 1-1.818.414L10.514 7.33a1.75 1.75 0 0 1 .414-1.818l.585-.586a1.75 1.75 0 0 1 2.475 0l.013.012 1.97-1.97a3.578 3.578 0 0 1 5.06 5.061L19.061 10l.013.013a1.75 1.75 0 0 1 0 2.475l-.586.585Z" fill="#212121"/>
</svg>
