<svg viewBox="0 0 24 24" fill="none" xmlns="http://www.w3.org/2000/svg" height="1em" width="1em">
  <path d="M19.75 4A2.25 2.25 0 0 1 22 6.25v11.5A2.25 2.25 0 0 1 19.75 20H4.25A2.25 2.25 0 0 1 2 17.75V6.25A2.25 2.25 0 0 1 4.25 4h15.5Zm.75 2.25a.75.75 0 0 0-.75-.75H18v2h2.5V6.25Zm0 2.75H18v2.5h2.5V9Zm0 4H18v2h2.5v-2Zm0 3.5H18v2h1.75a.75.75 0 0 0 .75-.75V16.5Zm-4 2v-13h-9v13h9ZM4.25 5.5a.75.75 0 0 0-.75.75V7.5H6v-2H4.25ZM6 18.5v-2H3.5v1.25c0 .414.336.75.75.75H6ZM6 13H3.5v2H6v-2Zm0-1.5V9H3.5v2.5H6Z" fill="#212121"/>
</svg>
