<svg viewBox="0 0 24 24" fill="none" xmlns="http://www.w3.org/2000/svg" height="1em" width="1em">
  <path d="M22 6.25A2.25 2.25 0 0 0 19.75 4H4.25A2.25 2.25 0 0 0 2 6.25v11.5A2.25 2.25 0 0 0 4.25 20h15.5A2.25 2.25 0 0 0 22 17.75V6.25Zm-2.25-.75a.75.75 0 0 1 .75.75V7.5H18v-2h1.75ZM18 9h2.5v2.5H18V9Zm0 4h2.5v2H18v-2Zm0 3.5h2.5v1.25a.75.75 0 0 1-.75.75H18v-2ZM6 5.5v2H3.5V6.25a.75.75 0 0 1 .75-.75H6Zm0 11v2H4.25a.75.75 0 0 1-.75-.75V16.5H6ZM6 15H3.5v-2H6v2Zm0-6v2.5H3.5V9H6Z" fill="#212121"/>
</svg>
