<svg viewBox="0 0 28 28" fill="none" xmlns="http://www.w3.org/2000/svg" height="1em" width="1em">
  <path d="M8.406 2.852A1.333 1.333 0 0 1 9.649 2h8.516c.926 0 1.57.922 1.251 1.792L17.323 9.5h4.838c1.178 0 1.777 1.416.957 2.262L9.784 25.503c-1.14 1.175-3.106.117-2.753-1.482L8.69 16.5H5.917a1.917 1.917 0 0 1-1.788-2.61L8.406 2.853Zm1.357.648L5.528 14.433a.417.417 0 0 0 .389.567h3.708a.75.75 0 0 1 .732.912l-1.861 8.433c-.01.047-.002.069.004.08a.14.14 0 0 0 .058.057.14.14 0 0 0 .08.018c.013-.002.036-.007.07-.041L21.766 11H16.25a.75.75 0 0 1-.704-1.008l2.38-6.492H9.763Z" fill="#212121"/>
</svg>
