<svg viewBox="0 0 16 16" fill="none" xmlns="http://www.w3.org/2000/svg" height="1em" width="1em">
  <path d="M4.913 1.697a1 1 0 0 1 .959-.714h4.406a1 1 0 0 1 .936 1.35l-.993 2.65h2.03a.75.75 0 0 1 .586 1.217l-1.265 1.59-.23-.46a1.494 1.494 0 0 0-.11-.185 2.574 2.574 0 0 0-1.685-1.103L9.53 6.04a2.5 2.5 0 1 0-.476 3.42l.105.212.009.016.345.69L6.23 14.5c-.854 1.072-2.562.187-2.178-1.129l1.28-4.388H3.75a.75.75 0 0 1-.72-.965l1.884-6.32Zm3.998 5.294a1.5 1.5 0 1 0 .007 1c.094-.002.177.002.268.018a.568.568 0 0 1 .384.25l.983 1.965a1.575 1.575 0 0 0 1.08.75c.148.027.309.035.456.035a1.5 1.5 0 1 0-.007-1 1.336 1.336 0 0 1-.268-.018.568.568 0 0 1-.384-.25l-.983-1.965a1.575 1.575 0 0 0-1.08-.75 2.598 2.598 0 0 0-.456-.035ZM7.5 7a.5.5 0 1 1 0 1 .5.5 0 0 1 0-1Zm6 3a.5.5 0 1 1 0 1 .5.5 0 0 1 0-1Z" fill="#212121"/>
</svg>
