<svg viewBox="0 0 28 28" fill="none" xmlns="http://www.w3.org/2000/svg" height="1em" width="1em">
  <path d="M25.979 8.438A2.25 2.25 0 0 0 23.75 6.5h-7.929l-4.174 3.479-.156.119a2.25 2.25 0 0 1-1.088.393l-.196.009L2 10.499V21.75l.005.154A2.25 2.25 0 0 0 4.25 24l11.773.001A6.5 6.5 0 0 1 26 15.811V8.75l-.005-.154-.017-.158ZM11.49 4.402A2.25 2.25 0 0 0 10.207 4H4.25l-.154.005A2.25 2.25 0 0 0 2 6.25v2.749L10.207 9l.104-.007a.75.75 0 0 0 .291-.106l.085-.06 3.063-2.554-2.103-1.752-.156-.119ZM21.5 26a5.5 5.5 0 1 1 0-11 5.5 5.5 0 0 1 0 11Zm3-5a.5.5 0 0 0 0-1h-4.793l1.647-1.646a.5.5 0 0 0-.708-.708l-2.5 2.5a.5.5 0 0 0 0 .708l2.5 2.5a.5.5 0 0 0 .708-.708L19.707 21H24.5Z" fill="#212121"/>
</svg>
