<svg viewBox="0 0 28 28" fill="none" xmlns="http://www.w3.org/2000/svg" height="1em" width="1em">
  <path d="M11.49 4.402A2.25 2.25 0 0 0 10.208 4H4.25l-.154.005A2.25 2.25 0 0 0 2 6.25v15.5l.005.154A2.25 2.25 0 0 0 4.25 24l11.773.001a6.469 6.469 0 0 1-.71-1.5L4.25 22.5l-.102-.007a.75.75 0 0 1-.648-.743V10.499l6.707.001.196-.009a2.25 2.25 0 0 0 1.244-.512L14.021 8h9.729l.102.007a.75.75 0 0 1 .648.743l.001 5.983a6.516 6.516 0 0 1 1.5 1.077L26 8.75l-.005-.154-.017-.158A2.25 2.25 0 0 0 23.75 6.5h-9.728l-2.375-1.979-.156-.119ZM4.25 5.5h5.957l.104.007a.75.75 0 0 1 .376.167l1.891 1.575-1.89 1.577-.086.061a.75.75 0 0 1-.395.113L3.5 8.999V6.25l.007-.102A.75.75 0 0 1 4.25 5.5ZM21.5 26a5.5 5.5 0 1 1 0-11 5.5 5.5 0 0 1 0 11Zm3-5a.5.5 0 0 0 0-1h-4.793l1.647-1.646a.5.5 0 0 0-.708-.708l-2.5 2.5a.5.5 0 0 0 0 .708l2.5 2.5a.5.5 0 0 0 .708-.708L19.707 21H24.5Z" fill="#212121"/>
</svg>
