<svg viewBox="0 0 28 28" fill="none" xmlns="http://www.w3.org/2000/svg" height="1em" width="1em">
  <path d="M21.5 15a5.5 5.5 0 1 1 0 11 5.5 5.5 0 0 1 0-11Zm0 2-.09.007a.5.5 0 0 0-.402.402L21 17.5V20h-2.502l-.09.008a.5.5 0 0 0-.402.402l-.008.09.008.09a.5.5 0 0 0 .402.402l.09.008H21v2.503l.008.09a.5.5 0 0 0 .402.402l.09.008.09-.008a.5.5 0 0 0 .402-.402l.008-.09V21l2.504.001.09-.008a.5.5 0 0 0 .402-.402l.008-.09-.008-.09a.5.5 0 0 0-.403-.402l-.09-.008H22v-2.5l-.008-.09a.5.5 0 0 0-.402-.403L21.5 17Zm2.25-10.5a2.25 2.25 0 0 1 2.229 1.938l.016.158.005.154v7.06A6.5 6.5 0 0 0 16.023 24H4.25a2.25 2.25 0 0 1-2.245-2.096L2 21.75V10.499l8.207.001.196-.009a2.25 2.25 0 0 0 1.088-.393l.156-.12L15.821 6.5h7.929ZM10.207 4c.46 0 .908.141 1.284.402l.156.12 2.103 1.751-3.063 2.553-.085.061a.75.75 0 0 1-.29.106L10.206 9 2 8.999V6.25a2.25 2.25 0 0 1 2.096-2.245L4.25 4h5.957Z" fill="#212121"/>
</svg>
