<svg viewBox="0 0 28 28" fill="none" xmlns="http://www.w3.org/2000/svg" height="1em" width="1em">
  <path d="M21.5 15a5.5 5.5 0 1 1 0 11 5.5 5.5 0 0 1 0-11Zm2.25-8.5a2.25 2.25 0 0 1 2.229 1.938l.016.158.005.154v7.06A6.5 6.5 0 0 0 16.023 24H4.25a2.25 2.25 0 0 1-2.245-2.096L2 21.75V10.499l8.207.001.196-.009a2.25 2.25 0 0 0 1.088-.393l.156-.12L15.821 6.5h7.929Zm-1.958 11.045-.076.044-.07.057-.057.07a.5.5 0 0 0 0 .568l.057.07 1.646 1.645-4.798.001-.09.008a.5.5 0 0 0-.402.402l-.008.09.008.09a.5.5 0 0 0 .402.402l.09.008 4.8-.001-1.648 1.647-.057.07a.5.5 0 0 0 .695.695l.07-.057 2.535-2.541.031-.042.042-.08.026-.083.01-.064-.002-.11-.008-.042-.026-.083-.041-.08-.038-.05-2.53-2.533-.069-.057a.5.5 0 0 0-.492-.044ZM10.207 4c.46 0 .908.141 1.284.402l.156.12 2.103 1.751-3.063 2.553-.085.061a.75.75 0 0 1-.29.106L10.206 9 2 8.999V6.25a2.25 2.25 0 0 1 2.096-2.245L4.25 4h5.957Z" fill="#212121"/>
</svg>
