<svg viewBox="0 0 28 28" fill="none" xmlns="http://www.w3.org/2000/svg" height="1em" width="1em">
  <path d="M21.5 15a5.5 5.5 0 1 1 0 11 5.5 5.5 0 0 1 0-11ZM10.207 4c.46 0 .908.141 1.284.402l.156.12L14.022 6.5h9.728a2.25 2.25 0 0 1 2.229 1.938l.016.158.005.154v7.06a6.517 6.517 0 0 0-1.499-1.077L24.5 8.75a.75.75 0 0 0-.648-.743L23.75 8h-9.729l-2.374 1.979a2.25 2.25 0 0 1-1.244.512l-.196.009-6.707-.001V21.75c0 .38.282.694.648.743l.102.007h11.064c.172.534.412 1.038.709 1.501L4.25 24a2.25 2.25 0 0 1-2.245-2.096L2 21.75V6.25a2.25 2.25 0 0 1 2.096-2.245L4.25 4h5.957Zm11.585 13.545-.076.044-.07.057-.057.07a.5.5 0 0 0 0 .568l.057.07 1.646 1.645-4.798.001-.09.008a.5.5 0 0 0-.402.402l-.008.09.008.09a.5.5 0 0 0 .402.402l.09.008 4.8-.001-1.648 1.647-.057.07a.5.5 0 0 0 .695.695l.07-.057 2.535-2.541.031-.042.042-.08.026-.083.01-.064-.002-.11-.008-.042-.026-.083-.041-.08-.038-.05-2.53-2.533-.069-.057a.5.5 0 0 0-.492-.044ZM10.207 5.5H4.25a.75.75 0 0 0-.743.648L3.5 6.25v2.749L10.207 9a.75.75 0 0 0 .395-.113l.085-.06 1.891-1.578-1.89-1.575a.75.75 0 0 0-.377-.167l-.104-.007Z" fill="#212121"/>
</svg>
