<svg viewBox="0 0 24 24" fill="none" xmlns="http://www.w3.org/2000/svg" height="1em" width="1em">
  <path d="m8.613 16.21.094.083 2 2a1 1 0 0 1 .083 1.32l-.083.094-2 2a1 1 0 0 1-1.498-1.32l.084-.094.293-.294L4 20a1 1 0 0 1-.117-1.993L4 18l3.585-.001-.292-.292a1 1 0 0 1-.084-1.32l.084-.094a1 1 0 0 1 1.32-.083Zm6.774 0a1 1 0 0 1 1.226 0l.094.083.083.094a1 1 0 0 1 0 1.226l-.083.094-.293.292L20 18a1 1 0 0 1 .116 1.993L20 20l-3.587-.001.294.294.083.094a1 1 0 0 1-1.403 1.403l-.094-.083-2-2-.083-.094a1 1 0 0 1 0-1.226l.083-.094 2-2 .094-.083ZM9.119 2.446l.063.104.053.115 4.305 11a1 1 0 0 1-1.814.835l-.049-.106-1.111-2.84H6.042l-1.111 2.84a1 1 0 0 1-1.185.603l-.11-.036a1 1 0 0 1-.604-1.185l.037-.11 4.304-11c.3-.768 1.31-.84 1.746-.22Zm10.021.084a1 1 0 0 1 1.85.724l-.036.11-4.304 11-.053.116c-.371.694-1.385.694-1.757 0l-.053-.115-4.304-11-.036-.111a1 1 0 0 1 .497-1.136l.106-.049.11-.036a1 1 0 0 1 1.137.497l.048.106 3.373 8.62 3.374-8.62.049-.106ZM8.304 5.773l-1.48 3.781h2.959l-1.48-3.781Z" fill="#212121"/>
</svg>
