<svg viewBox="0 0 16 16" fill="none" xmlns="http://www.w3.org/2000/svg" height="1em" width="1em">
  <path d="M10.5 9a.75.75 0 0 0 .694-.466l2.25-5.5a.75.75 0 0 0-1.388-.568L10.5 6.27 8.943 2.466a.75.75 0 1 0-1.388.568l2.25 5.5A.75.75 0 0 0 10.5 9ZM6.194 2.466a.75.75 0 0 0-1.389 0l-2.25 5.5a.75.75 0 0 0 1.388.568L4.366 7.5h2.266l.423 1.034a.75.75 0 0 0 1.389-.568l-2.25-5.5Zm-.695 2.265.52 1.27H4.98l.52-1.27Zm.03 5.489a.75.75 0 0 0-1.088 1.03H2.683a.75.75 0 1 0 0 1.5h1.758a.75.75 0 0 0 1.09 1.03l1.25-1.25a.75.75 0 0 0-.001-1.061l-1.25-1.25Zm6.001 3.56a.75.75 0 0 1-1.06 0l-1.25-1.248a.75.75 0 0 1 0-1.06l1.25-1.252a.75.75 0 0 1 1.114 1h1.732a.75.75 0 1 1 0 1.5h-1.785a.75.75 0 0 1 0 1.06Z" fill="#212121"/>
</svg>
