<svg viewBox="0 0 24 24" fill="none" xmlns="http://www.w3.org/2000/svg" height="1em" width="1em">
  <path d="M10.357 4.103c-1.001 1.001-1.58 2.335-1.912 3.673-.333 1.343-.431 2.747-.43 3.949a.327.327 0 0 1-.322.324c-1.771.007-4.016.22-5.832 1.087-.682.326-.967.998-.826 1.635.133.596.615 1.085 1.267 1.244.795.194 1.717.445 2.519.73.401.142.76.288 1.052.434.302.151.487.28.578.371.091.092.22.276.371.578.146.292.292.65.434 1.05.284.802.534 1.723.728 2.518.159.652.648 1.134 1.245 1.267.637.141 1.309-.143 1.635-.825.867-1.814 1.08-4.054 1.09-5.823 0-.175.147-.321.323-.321 1.202 0 2.606-.098 3.95-.431 1.34-.333 2.674-.912 3.676-1.915 1.12-1.119 1.668-2.608 1.917-4.055.25-1.452.209-2.926.095-4.093a3.771 3.771 0 0 0-3.41-3.409c-1.166-.114-2.64-.154-4.092.095-1.447.249-2.936.797-4.056 1.917ZM16 5a1 1 0 1 1 0 2 1 1 0 0 1 0-2Z" fill="#212121"/>
</svg>
