<svg viewBox="0 0 16 16" fill="none" xmlns="http://www.w3.org/2000/svg" height="1em" width="1em">
  <path d="M4 3.5a.5.5 0 0 0-.5.5v1.614a.75.75 0 0 1-1.5 0V4a2 2 0 0 1 2-2h1.614a.75.75 0 0 1 0 1.5H4Zm5.636-.75a.75.75 0 0 1 .75-.75H12a2 2 0 0 1 2 2v1.614a.75.75 0 0 1-1.5 0V4a.5.5 0 0 0-.5-.5h-1.614a.75.75 0 0 1-.75-.75ZM2.75 9.636a.75.75 0 0 1 .75.75V12a.5.5 0 0 0 .5.5h1.614a.75.75 0 0 1 0 1.5H4a2 2 0 0 1-2-2v-1.614a.75.75 0 0 1 .75-.75Zm10.5 0a.75.75 0 0 1 .75.75V12a2 2 0 0 1-2 2h-1.614a.75.75 0 1 1 0-1.5H12a.5.5 0 0 0 .5-.5v-1.614a.75.75 0 0 1 .75-.75Z" fill="#212121"/>
</svg>
