<svg viewBox="0 0 24 24" fill="none" xmlns="http://www.w3.org/2000/svg" height="1em" width="1em">
  <path d="M13.002 4.753a1.75 1.75 0 0 0-1.75-1.75h-6.5a1.75 1.75 0 0 0-1.75 1.75v4.5c0 .966.783 1.75 1.75 1.75h6.5a1.75 1.75 0 0 0 1.75-1.75v-4.5ZM8.99 14.735a1.75 1.75 0 0 0-1.75-1.75H4.752a1.75 1.75 0 0 0-1.75 1.75v4.514c0 .966.783 1.75 1.75 1.75H7.24a1.75 1.75 0 0 0 1.75-1.75v-4.514Zm12.014.014a1.75 1.75 0 0 0-1.75-1.75h-6.5a1.75 1.75 0 0 0-1.745 1.606l-.005.144v4.5c0 .966.783 1.75 1.75 1.75h6.5a1.75 1.75 0 0 0 1.75-1.75v-4.5Zm0-9.996a1.75 1.75 0 0 0-1.75-1.75h-2.5a1.75 1.75 0 0 0-1.75 1.75v4.5c0 .966.783 1.75 1.75 1.75h2.5a1.75 1.75 0 0 0 1.75-1.75v-4.5Z" fill="#212121"/>
</svg>
