<svg viewBox="0 0 24 24" fill="none" xmlns="http://www.w3.org/2000/svg" height="1em" width="1em">
  <path d="M13 4.753a1.75 1.75 0 0 0-1.75-1.75h-6.5A1.75 1.75 0 0 0 3 4.753v4.5c0 .966.784 1.75 1.75 1.75h6.5A1.75 1.75 0 0 0 13 9.253v-4.5Zm-4.012 9.982a1.75 1.75 0 0 0-1.75-1.75H4.75A1.75 1.75 0 0 0 3 14.735v4.514c0 .966.784 1.75 1.75 1.75h2.488a1.75 1.75 0 0 0 1.75-1.75v-4.514ZM11.5 4.753v4.5a.25.25 0 0 1-.25.25h-6.5a.25.25 0 0 1-.25-.25v-4.5a.25.25 0 0 1 .25-.25h6.5a.25.25 0 0 1 .25.25Zm-4.012 9.982v4.514a.25.25 0 0 1-.25.25H4.75a.25.25 0 0 1-.25-.25v-4.514a.25.25 0 0 1 .25-.25h2.488a.25.25 0 0 1 .25.25Zm13.514.014a1.75 1.75 0 0 0-1.75-1.75h-6.5a1.75 1.75 0 0 0-1.745 1.606l-.005.144v4.5c0 .966.783 1.75 1.75 1.75h6.5a1.75 1.75 0 0 0 1.75-1.75v-4.5Zm-1.5 0v4.5a.25.25 0 0 1-.25.25h-6.5a.25.25 0 0 1-.25-.25v-4.5l.006-.057a.25.25 0 0 1 .244-.193h6.5a.25.25 0 0 1 .25.25Zm1.5-9.996a1.75 1.75 0 0 0-1.75-1.75h-2.5a1.75 1.75 0 0 0-1.75 1.75v4.5c0 .966.783 1.75 1.75 1.75h2.5a1.75 1.75 0 0 0 1.75-1.75v-4.5Zm-1.5 4.5a.25.25 0 0 1-.25.25h-2.5a.25.25 0 0 1-.25-.25v-4.5a.25.25 0 0 1 .25-.25h2.5a.25.25 0 0 1 .25.25v4.5Z" fill="#212121"/>
</svg>
