<svg viewBox="0 0 48 48" fill="none" xmlns="http://www.w3.org/2000/svg" height="1em" width="1em">
  <path d="M15.818 10h2.68a1.5 1.5 0 0 1 .204 2.986L18.5 13h-2.681a1.5 1.5 0 0 0-.954.342l-.15.143-4.148 4.513 6.932.001a4.5 4.5 0 0 1 4.473 4.009h4.055a4.5 4.5 0 0 1 4.474-4.009l6.954-.001-4.166-4.515a1.5 1.5 0 0 0-.896-.469L32.185 13h-2.692a1.5 1.5 0 0 1-.203-2.986l.204-.014h2.691a4.5 4.5 0 0 1 3.042 1.184l.265.264 7.284 7.895c.1.109.182.229.244.355.612.769.978 1.742.978 2.801v6.993a6.5 6.5 0 0 1-6.5 6.5H32.5a6.5 6.5 0 0 1-6.5-6.5l-.002-4.484h-4.002l.002 4.484a6.5 6.5 0 0 1-6.5 6.5H10.5a6.5 6.5 0 0 1-6.5-6.5V22.5c0-1.123.412-2.15 1.092-2.939l.076-.11.087-.105 7.249-7.89a4.5 4.5 0 0 1 2.938-1.44l.376-.015h2.68-2.68Zm1.68 11H8.5A1.5 1.5 0 0 0 7 22.5v6.992a3.5 3.5 0 0 0 3.5 3.5h4.998a3.5 3.5 0 0 0 3.5-3.5V22.5a1.5 1.5 0 0 0-1.5-1.5Zm22 0H30.5a1.5 1.5 0 0 0-1.5 1.5v6.992a3.5 3.5 0 0 0 3.5 3.5h4.998a3.5 3.5 0 0 0 3.5-3.5V22.5a1.5 1.5 0 0 0-1.5-1.5Z" fill="#212121"/>
</svg>
