<svg viewBox="0 0 48 48" fill="none" xmlns="http://www.w3.org/2000/svg" height="1em" width="1em">
  <path d="m34.224 35.992 7.642 7.642a1.25 1.25 0 0 0 1.768-1.768l-37.5-37.5a1.25 1.25 0 1 0-1.768 1.768l6.79 6.79-5.9 6.421-.088.105-.076.11A4.483 4.483 0 0 0 4 22.5v6.992a6.5 6.5 0 0 0 6.5 6.5h4.998a6.5 6.5 0 0 0 6.5-6.5l-.002-4.484h1.244L26 27.767v1.725a6.5 6.5 0 0 0 6.5 6.5h1.724ZM16.231 18l-5.665-.001 2.712-2.952L16.232 18Zm24.31 17.238L26.268 20.965a4.502 4.502 0 0 1 4.232-2.966l6.954-.001-4.166-4.515a1.5 1.5 0 0 0-.896-.469L32.185 13h-2.692a1.5 1.5 0 0 1-.203-2.986l.204-.014h2.691a4.5 4.5 0 0 1 3.042 1.184l.265.264 7.284 7.895c.1.109.182.229.244.355.612.769.978 1.742.978 2.801v6.993a6.5 6.5 0 0 1-3.457 5.745ZM15.33 10.027 18.303 13h.196l.203-.014A1.5 1.5 0 0 0 18.5 10h-2.681l-.376.016a4.2 4.2 0 0 0-.112.01Z" fill="#212121"/>
</svg>
