<svg viewBox="0 0 28 28" fill="none" xmlns="http://www.w3.org/2000/svg" height="1em" width="1em">
  <path d="m21.193 4.132 1.498-1.517a1 1 0 0 1 1.42-.005l1.186 1.188a1 1 0 0 1 .005 1.41l-1.508 1.526-2.601-2.602ZM20.139 5.2l-4.194 4.247-.191-.192c-1.546-1.546-4.152-1.123-5.13.832l-.51 1.021a.916.916 0 0 1-.999.489l-.089-.018a5.604 5.604 0 0 0-5.582 2.133 7.221 7.221 0 0 0 .671 9.439l.734.734a7.222 7.222 0 0 0 9.44.67 5.604 5.604 0 0 0 2.132-5.581l-.017-.089a.916.916 0 0 1 .488-.998l1.021-.511c1.955-.978 2.378-3.584.833-5.13l-.2-.198 4.194-4.247-2.6-2.601Zm-9.553 12.214a2 2 0 1 1 2.828-2.828 2 2 0 0 1-2.828 2.828Z" fill="#212121"/>
</svg>
