<svg viewBox="0 0 32 32" fill="none" xmlns="http://www.w3.org/2000/svg" height="1em" width="1em">
  <path d="m24 5-.532-.655a3.638 3.638 0 1 0-5.457 4.804l4.958 5.191.284.32c.09.1.194.178.307.233a.929.929 0 0 0 1.111-.176l5.32-5.563a3.641 3.641 0 1 0-5.46-4.81L24 5Zm1.292 11.704a20.16 20.16 0 0 1 1.007 2.644l.489 1.615a5 5 0 0 1-.798 4.463l-1.92 2.54c-1.609 2.128-4.519 2.545-6.783 1.455-3.224-1.55-7.036-2.703-10.188-2.839a2.28 2.28 0 0 1-1.714-.88c-.418-.554-.56-1.352-.112-2.088.865-1.421 2.229-2.071 3.353-2.367L2.44 15.06a1.5 1.5 0 0 1 2.122-2.122l4.103 4.104a.621.621 0 1 0 .879-.878L3.44 10.061a1.5 1.5 0 0 1 2.122-2.122l5.977 5.978a.798.798 0 1 0 1.129-1.129L7.439 7.561a1.5 1.5 0 1 1 2.122-2.122l4.637 4.637a1.632 1.632 0 0 0 2.308 0l.104.12 5.148 5.792a3.001 3.001 0 0 0 3.534.716Zm-9.096 5.276c1.142-.228 2.088-.211 2.881.037.778.243 1.485.731 2.125 1.582a1 1 0 1 0 1.599-1.2c-.862-1.148-1.905-1.91-3.127-2.291-1.207-.377-2.512-.36-3.87-.09a1 1 0 0 0 .392 1.962ZM15.798 9a5.535 5.535 0 0 1-.324-4.148l-.913-.913a1.5 1.5 0 0 0-2.122 2.122L15.38 9h.42Z" fill="#212121"/>
</svg>
