<svg viewBox="0 0 24 24" fill="none" xmlns="http://www.w3.org/2000/svg" height="1em" width="1em">
  <path d="M7.94 2.66a1 1 0 0 0-1.88.68l2.25 6.233a.68.68 0 0 1-1.273.478L4.932 4.638a1 1 0 0 0-1.864.724l3.159 8.123c-1.702-.184-2.917.25-3.65.668a1.118 1.118 0 0 0-.565 1.136c.059.416.339.767.727.937 1.336.585 4.386 2.088 6.998 4.58 1.026.978 2.522 1.47 3.963 1.04l2.799-.838c.83-.249 1.524-.886 1.775-1.763.3-1.047.726-2.82.726-4.495 0-1.15-.403-2.585-.77-3.67-.728-2.146-1.542-4.266-2.285-6.408a1 1 0 0 0-1.89.656l.994 2.864a.701.701 0 0 1-1.323.466l-1.784-4.994a1 1 0 0 0-1.883.672l1.618 4.53a.703.703 0 0 1-1.323.476L7.94 2.66Zm10.694-.338a.75.75 0 0 1 1.044-.188c.808.56 1.478 1.544 1.898 2.627.424 1.094.63 2.384.413 3.618a.75.75 0 1 1-1.478-.258c.16-.913.013-1.924-.334-2.818-.35-.906-.869-1.6-1.355-1.937a.75.75 0 0 1-.188-1.044Zm-.335 1.917A.75.75 0 0 0 17.2 5.26c.418.448.799.99.799 1.989a.75.75 0 0 0 1.5 0c0-1.501-.623-2.39-1.201-3.011Z" fill="#212121"/>
</svg>
