<svg viewBox="0 0 32 32" fill="none" xmlns="http://www.w3.org/2000/svg" height="1em" width="1em">
  <path d="M23.468 4.345 24 5l.532-.656a3.641 3.641 0 1 1 5.46 4.81l-5.32 5.563a.928.928 0 0 1-1.343 0L18.01 9.149a3.638 3.638 0 1 1 5.457-4.804Zm-8.049.69-.208-.211a2.764 2.764 0 0 0-4.45.712 2.769 2.769 0 0 0-3.758 1.268 2.62 2.62 0 0 0-3.035 4.159l.434.462a2.7 2.7 0 0 0-.68 4.199l5.159 5.561c-1.167.264-2.676.9-3.608 2.43-.448.736-.306 1.534.113 2.088.394.522 1.033.85 1.713.88 3.153.136 6.964 1.288 10.188 2.839 2.265 1.09 5.175.673 6.784-1.455l1.92-2.54a5 5 0 0 0 .797-4.464l-1.317-4.352a3.009 3.009 0 0 1-1.987.34l.007.021 1.383 4.57a3 3 0 0 1-.479 2.679l-1.92 2.54c-.944 1.248-2.77 1.604-4.32.859-3.385-1.628-7.466-2.884-10.97-3.035a.333.333 0 0 1-.136-.036c.548-.817 1.425-1.224 2.286-1.416a6.203 6.203 0 0 1 1.482-.141c.033 0 .066.002.098.004h.002a1 1 0 0 0 .816-1.676L5.19 14.264a.697.697 0 0 1 .87-1.072l4.211 4.493a1 1 0 0 0 1.463-1.366l-4.058-4.365a2.721 2.721 0 0 0-.286-.267L5.427 9.595a.62.62 0 0 1 .89-.862l5.976 5.975a1 1 0 0 0 1.414-1.415l-4.75-4.75a.768.768 0 1 1 1.085-1.086l1.084 1.084c.051.06.105.12.162.177l4.005 3.991.017.017.982.981a1 1 0 0 0 1.414-1.414L12.62 7.206a.764.764 0 0 1 1.165-.98l1.59 1.618a5.544 5.544 0 0 1 .045-2.808Zm.777 16.945c1.142-.228 2.088-.211 2.881.037.778.243 1.485.731 2.125 1.582a1 1 0 1 0 1.599-1.2c-.862-1.148-1.905-1.91-3.127-2.291-1.207-.377-2.512-.36-3.87-.09a1 1 0 0 0 .392 1.962Z" fill="#212121"/>
</svg>
