<svg viewBox="0 0 16 16" fill="none" xmlns="http://www.w3.org/2000/svg" height="1em" width="1em">
  <path d="M9.368 2.448a2.5 2.5 0 0 0-2.736 0L1.226 5.982a.5.5 0 0 0-.224.47A.507.507 0 0 0 1 6.5v4a.5.5 0 0 0 1 0V7.344l1 .677v3.68a.5.5 0 0 0 .12.325l.002.003.006.007.02.022.068.074c.059.062.144.148.254.25.22.203.543.471.959.74.83.535 2.049 1.08 3.571 1.08 1.522 0 2.74-.545 3.571-1.08.416-.269.739-.537.959-.74a5.456 5.456 0 0 0 .322-.324l.02-.022.006-.007.002-.002.001-.002a.5.5 0 0 0 .119-.323V8.02l1.78-1.205a.45.45 0 0 0 .22-.418.5.5 0 0 0-.227-.415L9.368 2.448ZM12 8.696v2.807a6.09 6.09 0 0 1-.971.778c-.72.463-1.751.92-3.029.92s-2.31-.457-3.029-.92A6.09 6.09 0 0 1 4 11.502V8.697l2.599 1.759a2.5 2.5 0 0 0 2.802 0L12 8.696Zm-8.5 3.005-.38.324.38-.325Zm3.679-8.416a1.5 1.5 0 0 1 1.642 0L13.597 6.4 8.841 9.628a1.5 1.5 0 0 1-1.682 0l-4.757-3.22L7.18 3.285Z" fill="#212121"/>
</svg>
