<svg viewBox="0 0 24 24" fill="none" xmlns="http://www.w3.org/2000/svg" height="1em" width="1em">
  <path d="m11.999 5.753.82-.822a5.38 5.38 0 0 1 7.613 7.599l-7.902 7.897a.75.75 0 0 1-1.06 0L3.574 12.53a5.375 5.375 0 1 1 7.602-7.601l.823.823ZM12 18.836l7.368-7.364a3.876 3.876 0 0 0 .002-5.48 3.88 3.88 0 0 0-5.284-.192l-.01.01-1.008.999-.522.526a.76.76 0 0 1-.088.079l-1.236 1.225 2.796 2.671a.75.75 0 0 1 .012 1.073l-2.5 2.5a.75.75 0 0 1-1.06-1.06l1.957-1.958-2.798-2.673a.75.75 0 0 1-.01-1.075l1.317-1.306-.821-.82a3.875 3.875 0 1 0-5.48 5.48L12 18.836Z" fill="#212121"/>
</svg>
