<svg viewBox="0 0 24 24" fill="none" xmlns="http://www.w3.org/2000/svg" height="1em" width="1em">
  <path d="M13.44 2.532a2.25 2.25 0 0 0-2.903.002l-6.74 5.698A2.25 2.25 0 0 0 3 9.95v9.3c0 .966.784 1.75 1.75 1.75h14.5A1.75 1.75 0 0 0 21 19.25V9.951a2.25 2.25 0 0 0-.8-1.72l-6.76-5.7ZM9 11.75a1.25 1.25 0 1 1-2.5 0 1.25 1.25 0 0 1 2.5 0Zm4.25 0a1.25 1.25 0 1 1-2.5 0 1.25 1.25 0 0 1 2.5 0Zm4.25 0a1.25 1.25 0 1 1-2.5 0 1.25 1.25 0 0 1 2.5 0Zm-8.5 4a1.25 1.25 0 1 1-2.5 0 1.25 1.25 0 0 1 2.5 0ZM12 17a1.25 1.25 0 1 1 0-2.5 1.25 1.25 0 0 1 0 2.5Zm4.25 0a1.25 1.25 0 1 1 0-2.5 1.25 1.25 0 0 1 0 2.5Z" fill="#212121"/>
</svg>
