<svg viewBox="0 0 24 24" fill="none" xmlns="http://www.w3.org/2000/svg" height="1em" width="1em">
  <path d="M13.45 2.533a2.25 2.25 0 0 0-2.9 0L3.8 8.227a2.25 2.25 0 0 0-.8 1.72v9.803c0 .966.784 1.75 1.75 1.75h3a1.75 1.75 0 0 0 1.75-1.75v-5a.75.75 0 0 1 .75-.75h4.785A3.501 3.501 0 0 1 21 12.05V9.947a2.25 2.25 0 0 0-.8-1.72l-6.75-5.694ZM21 14.5a2.5 2.5 0 1 1-5 0 2.5 2.5 0 0 1 5 0Zm2 5.375C23 21.431 21.714 23 18.5 23S14 21.437 14 19.875v-.103c0-.98.794-1.772 1.773-1.772h5.454c.98 0 1.773.793 1.773 1.772v.103Z" fill="#212121"/>
</svg>
