<svg viewBox="0 0 24 24" fill="none" xmlns="http://www.w3.org/2000/svg" height="1em" width="1em">
  <path d="M10.55 2.532a2.25 2.25 0 0 1 2.9 0l6.75 5.692c.507.428.8 1.057.8 1.72v2.078a6.471 6.471 0 0 0-1.5-.709V9.944a.75.75 0 0 0-.267-.573l-6.75-5.692a.75.75 0 0 0-.966 0L4.767 9.37a.75.75 0 0 0-.267.573v9.803c0 .138.112.25.25.25h6.747c.225.54.521 1.044.877 1.5H4.75A1.75 1.75 0 0 1 3 19.747V9.944c0-.663.293-1.292.8-1.72l6.75-5.692ZM23 17.5a5.5 5.5 0 1 0-11 0 5.5 5.5 0 0 0 11 0Zm-5 .5.001 2.503a.5.5 0 1 1-1 0V18h-2.505a.5.5 0 0 1 0-1H17v-2.5a.5.5 0 1 1 1 0V17h2.497a.5.5 0 0 1 0 1H18Z" fill="#212121"/>
</svg>
