<svg viewBox="0 0 24 24" fill="none" xmlns="http://www.w3.org/2000/svg" height="1em" width="1em">
  <path d="M13.45 2.533a2.25 2.25 0 0 0-2.9 0L3.8 8.228a2.25 2.25 0 0 0-.8 1.72v9.802c0 .967.784 1.75 1.75 1.75h7.475a2.321 2.321 0 0 1-.225-1v-6c0-1.273 1.006-2.157 2.017-2.662C15.088 11.302 16.497 11 18 11c1.078 0 2.108.156 3 .441V9.947a2.25 2.25 0 0 0-.8-1.72l-6.75-5.694ZM21 17.558c.35-.112.68-.245.983-.396a4.86 4.86 0 0 0 1.017-.67V20.5c0 1.38-2.239 2.5-5 2.5-2.05 0-3.812-.617-4.584-1.5-.268-.306-.416-.644-.416-1v-4.008c.31.27.663.493 1.017.67.134.067.273.13.417.19 1.008.416 2.252.648 3.566.648 1.078 0 2.108-.156 3-.442ZM13 14.5c0-.356.148-.694.416-1C14.188 12.617 15.95 12 18 12c1.126 0 2.164.186 3 .5 1.214.456 2 1.182 2 2 0 .818-.786 1.544-2 2-.836.314-1.874.5-3 .5-2.761 0-5-1.12-5-2.5Z" fill="#212121"/>
</svg>
