<svg viewBox="0 0 32 32" fill="none" xmlns="http://www.w3.org/2000/svg" height="1em" width="1em">
  <path d="M15.19 4.3a1.25 1.25 0 0 1 1.62 0l9.75 8.288c.279.238.44.586.44.953v12.214c0 .688-.557 1.245-1.245 1.245H6.245A1.245 1.245 0 0 1 5 25.755V13.541c0-.367.161-.715.44-.953l9.75-8.287Zm2.915-1.523a3.25 3.25 0 0 0-4.21 0l-9.75 8.287A3.25 3.25 0 0 0 3 13.54v12.215A3.245 3.245 0 0 0 6.245 29h19.51A3.245 3.245 0 0 0 29 25.755V13.541a3.25 3.25 0 0 0-1.145-2.477l-9.75-8.287ZM12 16.5a1.5 1.5 0 1 1-3 0 1.5 1.5 0 0 1 3 0ZM10.5 23a1.5 1.5 0 1 0 0-3 1.5 1.5 0 0 0 0 3Zm5.5 0a1.5 1.5 0 1 0 0-3 1.5 1.5 0 0 0 0 3Zm0-5a1.5 1.5 0 1 0 0-3 1.5 1.5 0 0 0 0 3Zm5.5 0a1.5 1.5 0 1 0 0-3 1.5 1.5 0 0 0 0 3Zm0 5a1.5 1.5 0 1 0 0-3 1.5 1.5 0 0 0 0 3Z" fill="#212121"/>
</svg>
