<svg viewBox="0 0 32 32" fill="none" xmlns="http://www.w3.org/2000/svg" height="1em" width="1em">
  <path d="M16.81 4.3a1.25 1.25 0 0 0-1.62 0l-9.75 8.288a1.25 1.25 0 0 0-.44.953V26.5a.5.5 0 0 0 .5.5H15v.5c0 .567.167 1.07.422 1.5H5.5A2.5 2.5 0 0 1 3 26.5V13.54a3.25 3.25 0 0 1 1.145-2.476l9.75-8.287a3.25 3.25 0 0 1 4.21 0l9.75 8.287A3.25 3.25 0 0 1 29 13.54v1.443c-.6-.254-1.274-.463-2-.622v-.82a1.25 1.25 0 0 0-.44-.953l-9.75-8.287Zm.627 24.7c-.596-.441-.937-.954-.937-1.5v-6.327c.436.33.936.603 1.46.827 1.494.64 3.454 1 5.54 1 1.234 0 2.424-.126 3.5-.361.726-.16 1.4-.368 2-.622l.04-.017a6.98 6.98 0 0 0 1.46-.827V27.5c0 1.657-3.134 3-7 3-2.591 0-4.853-.603-6.064-1.5ZM29 20.356c-.55.298-1.228.551-2 .743-1.03.255-2.225.401-3.5.401-3.866 0-7-1.343-7-3s3.134-3 7-3c1.275 0 2.47.146 3.5.401.772.192 1.45.445 2 .743.94.51 1.5 1.155 1.5 1.856 0 .7-.56 1.345-1.5 1.856Z" fill="#212121"/>
</svg>
