<svg viewBox="0 0 24 24" fill="none" xmlns="http://www.w3.org/2000/svg" height="1em" width="1em">
  <path d="M10.55 2.532a2.25 2.25 0 0 1 2.9 0l6.75 5.692c.507.428.8 1.057.8 1.72v1.497a9.081 9.081 0 0 0-1.5-.338V9.944a.75.75 0 0 0-.267-.573l-6.75-5.692a.75.75 0 0 0-.966 0L4.767 9.37a.75.75 0 0 0-.267.573v9.803c0 .138.112.25.25.25H7V20h5v.5c0 .365.083.699.225 1H8v-.003H4.75A1.75 1.75 0 0 1 3 19.747V9.944c0-.663.293-1.292.8-1.72l6.75-5.692Zm8.95 9.582a7.684 7.684 0 0 1 1.5.386c1.214.456 2 1.182 2 2 0 .818-.786 1.544-2 2a7.71 7.71 0 0 1-1.5.386A9.691 9.691 0 0 1 18 17c-2.761 0-5-1.12-5-2.5s2.239-2.5 5-2.5c.523 0 1.026.04 1.5.114Zm0 5.782a9.081 9.081 0 0 0 1.5-.338c.35-.112.68-.245.983-.396a4.86 4.86 0 0 0 1.017-.67V20.5c0 1.38-2.239 2.5-5 2.5-2.05 0-3.812-.617-4.584-1.5-.268-.306-.416-.644-.416-1v-4.008c.31.27.663.493 1.017.67 1.071.536 2.48.838 3.983.838.514 0 1.017-.035 1.5-.104Z" fill="#212121"/>
</svg>
