<svg viewBox="0 0 32 32" fill="none" xmlns="http://www.w3.org/2000/svg" height="1em" width="1em">
  <path d="M3 8a4.5 4.5 0 0 1 4.5-4.5h17A4.5 4.5 0 0 1 29 8v17a4.5 4.5 0 0 1-4.5 4.5h-17A4.5 4.5 0 0 1 3 25V8Zm4.5-2.5A2.5 2.5 0 0 0 5 8v17c0 .425.106.826.294 1.177l8.891-9.401a2.5 2.5 0 0 1 3.633 0l8.888 9.4c.188-.35.294-.75.294-1.176V8a2.5 2.5 0 0 0-2.5-2.5h-17Zm0 22h17c.218 0 .428-.028.63-.08l-8.765-9.27a.5.5 0 0 0-.727 0L6.87 27.42c.202.052.413.08.63.08Zm15.5-16a1.5 1.5 0 1 0-3 0 1.5 1.5 0 0 0 3 0Zm2 0a3.5 3.5 0 1 1-7 0 3.5 3.5 0 0 1 7 0Z" fill="#212121"/>
</svg>
