<svg viewBox="0 0 48 48" fill="none" xmlns="http://www.w3.org/2000/svg" height="1em" width="1em">
  <path d="M6 12.25A6.25 6.25 0 0 1 12.25 6h23.5A6.25 6.25 0 0 1 42 12.25v23.5A6.25 6.25 0 0 1 35.75 42h-23.5A6.25 6.25 0 0 1 6 35.75v-23.5Zm6.25-3.75a3.75 3.75 0 0 0-3.75 3.75v23.5c0 .596.139 1.159.386 1.66l12.48-12.317a3.75 3.75 0 0 1 5.268-.001l12.484 12.31a3.735 3.735 0 0 0 .382-1.652v-23.5a3.75 3.75 0 0 0-3.75-3.75h-23.5Zm25.081 30.651L24.88 26.871a1.25 1.25 0 0 0-1.756.001L10.676 39.155a3.736 3.736 0 0 0 1.574.345h23.5c.565 0 1.1-.125 1.581-.349ZM30.5 19.5a2 2 0 1 1 0-4 2 2 0 0 1 0 4Zm0 2.5a4.5 4.5 0 1 0 0-9 4.5 4.5 0 0 0 0 9Z" fill="#212121"/>
</svg>
