<svg viewBox="0 0 48 48" fill="none" xmlns="http://www.w3.org/2000/svg" height="1em" width="1em">
  <path d="M12.25 6A6.25 6.25 0 0 0 6 12.25v23.5c0 1.284.387 2.477 1.05 3.47l.596-.588-.023-.023L21.37 25.084a3.75 3.75 0 0 1 5.26 0l13.747 13.525-.018.018.595.586A6.22 6.22 0 0 0 42 35.75v-23.5A6.25 6.25 0 0 0 35.75 6h-23.5Zm0 36a6.22 6.22 0 0 1-3.423-1.02l14.296-14.108a1.25 1.25 0 0 1 1.755 0l14.303 14.103A6.22 6.22 0 0 1 35.75 42h-23.5ZM30.5 21.5a4 4 0 1 1 0-8 4 4 0 0 1 0 8Z" fill="#212121"/>
</svg>
