<svg viewBox="0 0 24 24" fill="none" xmlns="http://www.w3.org/2000/svg" height="1em" width="1em">
  <path d="M12 1.999c5.524 0 10.002 4.478 10.002 10.002 0 5.523-4.478 10.001-10.002 10.001-5.524 0-10-4.478-10-10.001C1.999 6.477 6.476 1.999 12 1.999Zm0 1.5a8.502 8.502 0 1 0 0 17.003A8.502 8.502 0 0 0 12 3.5Zm-.004 7a.75.75 0 0 1 .744.648l.007.102.004 5.502a.75.75 0 0 1-1.494.102l-.006-.101-.004-5.502a.75.75 0 0 1 .75-.75Zm.005-3.497a.999.999 0 1 1 0 1.997.999.999 0 0 1 0-1.997Z" fill="#212121"/>
</svg>
