<svg viewBox="0 0 24 24" fill="none" xmlns="http://www.w3.org/2000/svg" height="1em" width="1em">
  <path d="M13.322 2.603a1.75 1.75 0 0 0-2.644 0l-8.245 9.504c-.984 1.133-.179 2.897 1.321 2.897H7v2.246c0 .966.784 1.75 1.75 1.75h6.5A1.75 1.75 0 0 0 17 17.25v-2.246h3.245c1.5 0 2.305-1.764 1.322-2.897l-8.245-9.504Zm-1.511.983a.25.25 0 0 1 .378 0l8.245 9.504a.25.25 0 0 1-.189.414H16.25a.75.75 0 0 0-.75.75v2.996a.25.25 0 0 1-.25.25h-6.5a.25.25 0 0 1-.25-.25v-2.996a.75.75 0 0 0-.75-.75H3.754a.25.25 0 0 1-.188-.414l8.245-9.504ZM7.75 20.5a.75.75 0 0 0 0 1.5h8.5a.75.75 0 0 0 0-1.5h-8.5Z" fill="#212121"/>
</svg>
