<svg viewBox="0 0 24 24" fill="none" xmlns="http://www.w3.org/2000/svg" height="1em" width="1em">
  <path d="M10.678 2.603a1.75 1.75 0 0 1 2.644 0l8.245 9.504c.983 1.133.178 2.897-1.322 2.897H17v5.247A1.75 1.75 0 0 1 15.25 22h-6.5A1.75 1.75 0 0 1 7 20.25v-5.247H3.754c-1.5 0-2.305-1.764-1.321-2.897l8.245-9.504Zm1.51.983a.25.25 0 0 0-.377 0L3.566 13.09a.25.25 0 0 0 .188.414H7.75a.75.75 0 0 1 .75.75v5.997c0 .138.112.25.25.25h6.5a.25.25 0 0 0 .25-.25v-5.997a.75.75 0 0 1 .75-.75h3.995a.25.25 0 0 0 .189-.414l-8.245-9.504Z" fill="#212121"/>
</svg>
