<svg viewBox="0 0 24 24" fill="none" xmlns="http://www.w3.org/2000/svg" height="1em" width="1em">
  <path d="M21.707 2.297a1 1 0 0 1 0 1.414l-.5.5a1 1 0 1 1-1.414-1.414l.5-.5a1 1 0 0 1 1.414 0Zm-4.004 4a1 1 0 0 1 0 1.414l-.997.997a1 1 0 1 1-1.414-1.414l.997-.997a1 1 0 0 1 1.414 0Zm-4.496 4.496a1 1 0 0 1 0 1.414l-1 1a1 1 0 0 1-1.414-1.414l1-1a1 1 0 0 1 1.414 0ZM8.703 16.71a1 1 0 1 0-1.414-1.414l-.998.997a1 1 0 1 0 1.414 1.415l.998-.998Zm-4.491 4.496a1 1 0 0 0-1.414-1.414l-.5.5a1 1 0 0 0 1.414 1.414l.5-.5Z" fill="#212121"/>
</svg>
