<svg viewBox="0 0 28 28" fill="none" xmlns="http://www.w3.org/2000/svg" height="1em" width="1em">
  <path d="M13.348 2.686a.75.75 0 0 0-.696 0L4.199 7.118A2.238 2.238 0 0 0 3 9.1v8.65A3.25 3.25 0 0 0 6.25 21h13.5A3.25 3.25 0 0 0 23 17.75V9.1c0-.832-.462-1.596-1.199-1.982l-8.453-4.432Zm-8.453 5.76L13 4.196l8.105 4.25a.737.737 0 0 1 .282.262L13 13.151 4.613 8.708a.738.738 0 0 1 .282-.262Zm8.456 6.217 8.149-4.317v7.404a1.75 1.75 0 0 1-1.75 1.75H6.25a1.75 1.75 0 0 1-1.75-1.75v-7.404l8.149 4.317a.75.75 0 0 0 .702 0ZM6.011 22a3.247 3.247 0 0 0 2.74 1.5h11.5c2.9 0 5.25-2.35 5.25-5.25v-7.5a3.25 3.25 0 0 0-1.5-2.74v10.24A3.75 3.75 0 0 1 20.25 22H6.01Z" fill="#212121"/>
</svg>
