<svg viewBox="0 0 16 16" fill="none" xmlns="http://www.w3.org/2000/svg" height="1em" width="1em">
  <path d="m3 3 7.171-.002c-.088.25-.145.517-.164.793L10 4H3a1 1 0 0 0-1 1v.191l5.5 2.75 3.468-1.734a3 3 0 0 0 1.01.614L7.723 8.947a.5.5 0 0 1-.36.034l-.088-.034L2 6.31V11a1 1 0 0 0 1 1h9a1 1 0 0 0 1-1V7c.351 0 .688-.06 1-.171V11a2 2 0 0 1-2 2H3a2 2 0 0 1-2-2V5a2 2 0 0 1 2-2Zm10 3c-.076 0-.15-.004-.224-.012l-.172-.027-.066-.015-.092-.024a1.987 1.987 0 0 1-.317-.121l-.167-.091a2 2 0 0 1-.955-1.545L11 4l.002-.09.009-.121.022-.152.042-.182.052-.157.062-.148.08-.151a2 2 0 1 1 2.867 2.647l-.145.092-.141.073-.19.078-.06.02-.153.04-.116.024-.157.02A2.027 2.027 0 0 1 13 6Z" fill="#212121"/>
</svg>
