<svg viewBox="0 0 28 28" fill="none" xmlns="http://www.w3.org/2000/svg" height="1em" width="1em">
  <path d="M6.25 5h13.508c-.301.45-.523.956-.646 1.5H6.25a1.75 1.75 0 0 0-1.744 1.606L4.5 8.25v.964l9.5 4.94 6.445-3.35a4.5 4.5 0 0 0 1.49.916l-7.589 3.945a.75.75 0 0 1-.58.047l-.112-.047-9.154-4.76v8.845a1.75 1.75 0 0 0 1.606 1.744l.144.006h15.5a1.75 1.75 0 0 0 1.744-1.607l.006-.143V12c.526 0 1.032-.09 1.501-.256L25 19.75a3.25 3.25 0 0 1-3.066 3.245L21.75 23H6.25a3.25 3.25 0 0 1-3.245-3.066L3 19.75V8.25a3.25 3.25 0 0 1 3.066-3.245L6.25 5ZM23.5 4a3.5 3.5 0 1 1 0 7 3.5 3.5 0 0 1 0-7Z" fill="#212121"/>
</svg>
