<svg viewBox="0 0 28 28" fill="none" xmlns="http://www.w3.org/2000/svg" height="1em" width="1em">
  <path d="M13.348 2.686a.75.75 0 0 0-.696 0L4.199 7.118c-.387.203-.698.51-.906.876L13 13.15l9.707-5.157a2.237 2.237 0 0 0-.906-.876l-8.453-4.432ZM3 17.75V9.537l9.648 5.125a.75.75 0 0 0 .704 0L23 9.537v8.213A3.25 3.25 0 0 1 19.75 21H6.25A3.25 3.25 0 0 1 3 17.75ZM6.012 22a3.247 3.247 0 0 0 2.739 1.5h11.5c2.9 0 5.25-2.35 5.25-5.25v-7.5a3.25 3.25 0 0 0-1.5-2.74v10.24A3.75 3.75 0 0 1 20.25 22H6.01Z" fill="#212121"/>
</svg>
