<svg viewBox="0 0 28 28" fill="none" xmlns="http://www.w3.org/2000/svg" height="1em" width="1em">
  <path d="m3 10.124 10.654 5.541a.75.75 0 0 0 .692 0l7.588-3.945c.488.181 1.015.28 1.566.28.526 0 1.032-.09 1.5-.256v8.006a3.25 3.25 0 0 1-3.065 3.245L21.75 23H6.25a3.25 3.25 0 0 1-3.245-3.066L3 19.75v-9.626ZM6.25 5h13.508A4.48 4.48 0 0 0 19 7.5c0 1.306.556 2.482 1.445 3.304L14 14.154 3 8.435V8.25a3.25 3.25 0 0 1 3.066-3.245L6.25 5ZM23.5 4a3.5 3.5 0 1 1 0 7 3.5 3.5 0 0 1 0-7Z" fill="#212121"/>
</svg>
