<svg viewBox="0 0 48 48" fill="none" xmlns="http://www.w3.org/2000/svg" height="1em" width="1em">
  <path d="M30.674 11a6.959 6.959 0 0 0-.657 2.5H11.25a2.75 2.75 0 0 0-2.75 2.75v.592l14.5 8.7 9.846-5.907a6.967 6.967 0 0 0 2.8 1.234l-12.003 7.203a1.25 1.25 0 0 1-1.15.07l-.136-.07L8.5 19.757V32.75c0 .967.783 1.75 1.75 1.75h25.5a1.75 1.75 0 0 0 1.75-1.75V20.983a6.96 6.96 0 0 0 2.5-.657V32.75A4.25 4.25 0 0 1 35.75 37h-25.5A4.25 4.25 0 0 1 6 32.75l-.001-15.114a1.25 1.25 0 0 1-.001-.167L6 16.25C6 13.35 8.35 11 11.25 11h19.424ZM37 9a5 5 0 1 1 0 10 5 5 0 0 1 0-10Z" fill="#212121"/>
</svg>
