<svg viewBox="0 0 16 16" fill="none" xmlns="http://www.w3.org/2000/svg" height="1em" width="1em">
  <path d="M10.871 1.015a.5.5 0 0 1 .364.606l-.25 1a.5.5 0 1 1-.97-.242l.25-1a.5.5 0 0 1 .606-.364Zm2.983 1.131a.5.5 0 0 1 0 .708l-1 1a.5.5 0 1 1-.707-.708l1-1a.5.5 0 0 1 .707 0Zm-7.57 10.886a2 2 0 0 0 3.63-1.604l-3.63 1.604Zm-.92.407-.998.441a1.4 1.4 0 0 1-1.555-.288l-.4-.4a1.394 1.394 0 0 1-.293-1.548l3.871-8.809a1.4 1.4 0 0 1 2.269-.426l5.332 5.316a1.395 1.395 0 0 1-.422 2.264l-2.335 1.032a3 3 0 0 1-5.469 2.418ZM14.5 5h-1a.5.5 0 0 0 0 1h1a.5.5 0 1 0 0-1ZM6.905 3.238l-3.872 8.808a.394.394 0 0 0 .083.438l.401.4a.4.4 0 0 0 .444.082l8.802-3.892a.395.395 0 0 0 .12-.641l-5.33-5.316a.4.4 0 0 0-.647.12Z" fill="#212121"/>
</svg>
