<svg viewBox="0 0 24 24" fill="none" xmlns="http://www.w3.org/2000/svg" height="1em" width="1em">
  <path d="M15.891 3.048a3.578 3.578 0 1 1 5.061 5.06l-3.045 3.045a6.52 6.52 0 0 0-1.994-.127l3.978-3.979a2.078 2.078 0 0 0-2.94-2.939L5.002 16.06c-.21.21-.357.474-.426.763l-.813 3.416 3.416-.813c.289-.07.553-.217.763-.427l2.085-2.085a6.57 6.57 0 0 0 .127 1.994L9.002 20.06a3.105 3.105 0 0 1-1.477.826L2.924 21.98a.75.75 0 0 1-.904-.903l1.096-4.601c.133-.56.419-1.07.825-1.477l11.95-11.951ZM22 17.5a5.5 5.5 0 1 0-11 0 5.5 5.5 0 0 0 11 0Zm-9.5 0a4 4 0 0 1 6.248-3.309l-5.557 5.557A3.982 3.982 0 0 1 12.5 17.5Zm4 4a3.982 3.982 0 0 1-2.248-.691l5.557-5.557A4 4 0 0 1 16.5 21.5Z" fill="#212121"/>
</svg>
