<svg viewBox="0 0 16 16" fill="none" xmlns="http://www.w3.org/2000/svg" height="1em" width="1em">
  <path d="M12.44 1.56a1.914 1.914 0 0 0-2.707 0L2.338 8.955a1.649 1.649 0 0 0-.398.644l-.914 2.743a.5.5 0 0 0 .632.632l2.743-.914a1.65 1.65 0 0 0 .644-.398l.065-.064a5.5 5.5 0 0 1 6.489-6.488l.841-.842a1.914 1.914 0 0 0 0-2.708ZM6 10.5a4.5 4.5 0 1 0 9 0 4.5 4.5 0 0 0-9 0Zm1 0a3.5 3.5 0 0 1 5.596-2.803l-4.9 4.9A3.484 3.484 0 0 1 7 10.5Zm3.5 3.5c-.786 0-1.512-.26-2.096-.697l4.9-4.9A3.5 3.5 0 0 1 10.5 14Z" fill="#212121"/>
</svg>
