<svg viewBox="0 0 48 48" fill="none" xmlns="http://www.w3.org/2000/svg" height="1em" width="1em">
  <path d="M41.974 6.025a6.907 6.907 0 0 0-9.768 0L8.038 30.198a6.006 6.006 0 0 0-1.572 2.758L4.039 42.44a1.25 1.25 0 0 0 1.52 1.521l9.487-2.424a6.007 6.007 0 0 0 2.76-1.573l2.439-2.44A13.07 13.07 0 0 1 20 35c0-7.18 5.82-13 13-13 .863 0 1.707.084 2.523.245l6.451-6.452a6.907 6.907 0 0 0 0-9.768ZM33 46c6.075 0 11-4.925 11-11s-4.925-11-11-11-11 4.925-11 11 4.925 11 11 11Zm0-2.5a8.462 8.462 0 0 1-5.062-1.67L39.83 29.937A8.5 8.5 0 0 1 33 43.5Zm5.062-15.33L26.17 40.063a8.5 8.5 0 0 1 11.89-11.89Z" fill="#212121"/>
</svg>
