<svg viewBox="0 0 24 24" fill="none" xmlns="http://www.w3.org/2000/svg" height="1em" width="1em">
  <path d="M20.952 3.047a3.578 3.578 0 0 0-5.06 0L3.94 15a3.106 3.106 0 0 0-.825 1.477l-1.095 4.6a.75.75 0 0 0 .904.903l4.601-1.095a3.105 3.105 0 0 0 1.477-.826L19 10.062a1.75 1.75 0 0 1-.006 2.47l-1.783 1.783a.75.75 0 0 0 1.06 1.06l1.784-1.783A3.25 3.25 0 0 0 20.06 9l.892-.892a3.578 3.578 0 0 0 0-5.06Zm-4 1.061a2.078 2.078 0 1 1 2.94 2.94l-11.95 11.95a1.608 1.608 0 0 1-.764.428l-3.416.813.813-3.416c.069-.289.217-.553.427-.763l11.95-11.952Z" fill="#212121"/>
</svg>
