<svg viewBox="0 0 16 16" fill="none" xmlns="http://www.w3.org/2000/svg" height="1em" width="1em">
  <path d="M13.44 2.56a1.914 1.914 0 0 0-2.707 0L3.338 9.955a1.65 1.65 0 0 0-.398.644l-.914 2.743a.5.5 0 0 0 .632.632l2.743-.914a1.65 1.65 0 0 0 .644-.398L12 6.707l.263.263a.75.75 0 0 1 0 1.06l-1.117 1.116a.5.5 0 1 0 .708.708l1.116-1.117a1.75 1.75 0 0 0 0-2.474L12.707 6l.733-.732a1.914 1.914 0 0 0 0-2.708Zm-1.778 3.072a.458.458 0 0 0-.03.03l-6.294 6.293a.648.648 0 0 1-.253.156l-1.794.598.598-1.793a.649.649 0 0 1 .156-.254l7.395-7.394a.914.914 0 1 1 1.293 1.293l-1.071 1.071Z" fill="#212121"/>
</svg>
