<svg viewBox="0 0 24 24" fill="none" xmlns="http://www.w3.org/2000/svg" height="1em" width="1em">
  <path d="M8.94 10 2.22 3.28a.75.75 0 1 1 1.06-1.06l18.5 18.5a.75.75 0 0 1-1.06 1.06L14 15.06l-4.998 5a3.105 3.105 0 0 1-1.477.825L2.924 21.98a.75.75 0 0 1-.904-.903l1.096-4.601c.133-.56.419-1.07.825-1.477L8.939 10Zm4 4L10 11.06l-4.998 5c-.21.21-.358.474-.427.763l-.813 3.416 3.416-.813c.289-.07.553-.217.763-.427L12.94 14Zm6.951-6.953-4.83 4.832 1.06 1.06L19 10.062a1.75 1.75 0 0 1-.006 2.47l-1.641 1.64 1.06 1.061 1.642-1.64A3.25 3.25 0 0 0 20.06 9l.892-.892a3.578 3.578 0 0 0-5.06-5.06l-4.832 4.83 1.061 1.062 4.83-4.832a2.078 2.078 0 1 1 2.94 2.94Z" fill="#212121"/>
</svg>
