<svg viewBox="0 0 16 16" fill="none" xmlns="http://www.w3.org/2000/svg" height="1em" width="1em">
  <path d="M9.733 1.56a1.914 1.914 0 0 1 2.707 2.708l-.842.842a5.524 5.524 0 0 0-1.309-.106l1.444-1.443a.914.914 0 1 0-1.293-1.293L3.045 9.662a.649.649 0 0 0-.156.253L2.29 11.71l1.794-.599a.648.648 0 0 0 .253-.156l.666-.666a5.6 5.6 0 0 0 .106 1.309l-.065.064a1.65 1.65 0 0 1-.644.398l-2.743.914a.5.5 0 0 1-.632-.632l.914-2.743c.08-.243.217-.463.398-.644L9.733 1.56ZM6 10.5a4.5 4.5 0 1 1 9 0 4.5 4.5 0 0 1-9 0Zm1 0c0 .786.26 1.512.697 2.096l4.9-4.9A3.5 3.5 0 0 0 7 10.5Zm3.5 3.5a3.5 3.5 0 0 0 2.803-5.596l-4.9 4.9A3.49 3.49 0 0 0 10.5 14Z" fill="#212121"/>
</svg>
