<svg viewBox="0 0 48 48" fill="none" xmlns="http://www.w3.org/2000/svg" height="1em" width="1em">
  <path d="M41.974 6.025a6.907 6.907 0 0 0-9.768 0L8.038 30.198a6.006 6.006 0 0 0-1.572 2.758L4.039 42.44a1.25 1.25 0 0 0 1.52 1.521l9.487-2.424a6.007 6.007 0 0 0 2.76-1.573l20.165-20.167.88.939a1.75 1.75 0 0 1-.039 2.434l-3.446 3.446a1.25 1.25 0 0 0 1.768 1.768l3.446-3.446a4.25 4.25 0 0 0 .095-5.912l-.935-.998 2.234-2.235a6.907 6.907 0 0 0 0-9.768Zm-8 1.768a4.407 4.407 0 0 1 6.233 6.232L16.038 38.196a3.507 3.507 0 0 1-1.611.918l-7.443 1.903 1.904-7.442c.156-.61.473-1.166.917-1.61L33.974 7.793Z" fill="#212121"/>
</svg>
