<svg viewBox="0 0 24 24" fill="none" xmlns="http://www.w3.org/2000/svg" height="1em" width="1em">
  <path d="M20.952 3.047a3.578 3.578 0 0 0-5.06 0L3.94 15a3.106 3.106 0 0 0-.825 1.477l-1.095 4.6a.75.75 0 0 0 .904.903l4.601-1.095a3.105 3.105 0 0 0 1.477-.826l1.151-1.15a6.5 6.5 0 0 1 7.754-7.756l3.045-3.045a3.578 3.578 0 0 0 0-5.06ZM22 17.5a5.5 5.5 0 1 0-11 0 5.5 5.5 0 0 0 11 0Zm-9.5 0a4 4 0 0 1 6.248-3.309l-5.557 5.557A3.982 3.982 0 0 1 12.5 17.5Zm4 4a3.982 3.982 0 0 1-2.248-.691l5.557-5.557A4 4 0 0 1 16.5 21.5Z" fill="#212121"/>
</svg>
