<svg viewBox="0 0 24 24" fill="none" xmlns="http://www.w3.org/2000/svg" height="1em" width="1em">
  <path d="m14 15.06 6.72 6.72a.75.75 0 0 0 1.06-1.06L3.28 2.22a.75.75 0 1 0-1.06 1.06L8.94 10l-5 5a3.106 3.106 0 0 0-.825 1.477l-1.095 4.6a.75.75 0 0 0 .904.903l4.601-1.095a3.105 3.105 0 0 0 1.477-.826L14 15.061Zm4.995-2.53-1.642 1.642 1.061 1.06 1.642-1.64A3.25 3.25 0 0 0 20.06 9l.891-.892a3.578 3.578 0 0 0-5.06-5.06l-4.832 4.83 5.061 5.062L19 10.06a1.75 1.75 0 0 1-.005 2.47Z" fill="#212121"/>
</svg>
