<svg viewBox="0 0 48 48" fill="none" xmlns="http://www.w3.org/2000/svg" height="1em" width="1em">
  <path d="M32.206 6.026a6.907 6.907 0 1 1 9.768 9.767l-6.45 6.452a13.07 13.07 0 0 0-3.315-.221l7.998-7.999a4.407 4.407 0 1 0-6.233-6.232L9.805 31.965c-.444.444-.761 1-.917 1.61l-1.904 7.442 7.443-1.903a3.507 3.507 0 0 0 1.611-.918l3.986-3.985a13.15 13.15 0 0 0 .221 3.314l-2.439 2.439a6.007 6.007 0 0 1-2.76 1.572L5.56 43.961a1.25 1.25 0 0 1-1.521-1.52l2.427-9.486a6.007 6.007 0 0 1 1.572-2.758L32.206 6.026ZM33 46c6.075 0 11-4.925 11-11s-4.925-11-11-11-11 4.925-11 11 4.925 11 11 11Zm0-2.5a8.462 8.462 0 0 1-5.062-1.67L39.83 29.937A8.5 8.5 0 0 1 33 43.5Zm5.062-15.33L26.17 40.063a8.5 8.5 0 0 1 11.89-11.89Z" fill="#212121"/>
</svg>
