<svg viewBox="0 0 32 32" fill="none" xmlns="http://www.w3.org/2000/svg" height="1em" width="1em">
  <path d="M14.09 2.602a3.25 3.25 0 0 1 3.82 0l10.242 7.441a3.25 3.25 0 0 1 1.18 3.634l-3.911 12.04a3.25 3.25 0 0 1-3.091 2.245H9.67a3.25 3.25 0 0 1-3.09-2.245l-3.913-12.04a3.25 3.25 0 0 1 1.181-3.634l10.242-7.44Zm2.645 1.618a1.25 1.25 0 0 0-1.47 0L5.024 11.661a1.25 1.25 0 0 0-.455 1.398l3.912 12.04a1.25 1.25 0 0 0 1.19.863H22.33a1.25 1.25 0 0 0 1.189-.863l3.912-12.04a1.25 1.25 0 0 0-.454-1.398l-10.242-7.44Z" fill="#212121"/>
</svg>
