<svg viewBox="0 0 25 24" fill="none" xmlns="http://www.w3.org/2000/svg" height="1em" width="1em">
  <path d="M10.916 6a3 3 0 1 1-6 0 3 3 0 0 1 6 0Zm-5.75 4a1.75 1.75 0 0 0-1.75 1.75v4.75a4.5 4.5 0 1 0 9 0v-4.75a1.75 1.75 0 0 0-1.75-1.75h-5.5Zm6.11 10.854a5.49 5.49 0 0 0 2.14-4.354v-4.75c0-.665-.236-1.274-.629-1.75h2.379c.966 0 1.75.784 1.75 1.75v4.75a4.5 4.5 0 0 1-5.64 4.354ZM11.916 6c0 1-.367 1.913-.973 2.614a3 3 0 1 0 0-5.229c.606.702.973 1.616.973 2.615Zm3.86 14.854a5.49 5.49 0 0 0 2.14-4.354v-4.75c0-.665-.236-1.274-.629-1.75h2.379c.966 0 1.75.784 1.75 1.75v4.75a4.5 4.5 0 0 1-5.64 4.354ZM16.416 6c0 1-.367 1.913-.973 2.614a3 3 0 1 0 0-5.229c.606.702.973 1.616.973 2.615Z" fill="#212121"/>
</svg>
