<svg viewBox="0 0 28 28" fill="none" xmlns="http://www.w3.org/2000/svg" height="1em" width="1em">
  <path d="M17.25 18a2.25 2.25 0 0 1 2.25 2.25v1.502l-.008.108c-.31 2.127-2.22 3.149-5.425 3.149-3.193 0-5.134-1.01-5.553-3.112L8.5 21.75v-1.5A2.25 2.25 0 0 1 10.75 18h6.5Zm0 1.5h-6.5a.75.75 0 0 0-.75.75v1.42c.28 1.2 1.55 1.839 4.067 1.839 2.516 0 3.73-.631 3.933-1.816V20.25a.75.75 0 0 0-.75-.75Zm.994-7.501L23.75 12A2.25 2.25 0 0 1 26 14.25v1.502l-.008.108c-.31 2.127-2.22 3.149-5.425 3.149l-.315-.003a3.255 3.255 0 0 0-1.519-1.648c.515.1 1.125.151 1.834.151 2.516 0 3.73-.631 3.933-1.816V14.25a.75.75 0 0 0-.75-.75H18.5c0-.526-.09-1.032-.256-1.501ZM4.25 12l5.506-.001a4.481 4.481 0 0 0-.249 1.24L9.5 13.5H4.25a.75.75 0 0 0-.75.75v1.42c.28 1.2 1.55 1.839 4.067 1.839.622 0 1.164-.039 1.632-.115a3.257 3.257 0 0 0-1.453 1.613l-.18.002c-3.192 0-5.133-1.01-5.552-3.112L2 15.75v-1.5A2.25 2.25 0 0 1 4.25 12ZM14 10a3.5 3.5 0 1 1 0 7 3.5 3.5 0 0 1 0-7Zm0 1.5a2 2 0 1 0 0 4 2 2 0 0 0 0-4ZM20.5 4a3.5 3.5 0 1 1 0 7 3.5 3.5 0 0 1 0-7Zm-13 0a3.5 3.5 0 1 1 0 7 3.5 3.5 0 0 1 0-7Zm13 1.5a2 2 0 1 0 0 4 2 2 0 0 0 0-4Zm-13 0a2 2 0 1 0 0 4 2 2 0 0 0 0-4Z" fill="#212121"/>
</svg>
