<svg viewBox="0 0 16 16" fill="none" xmlns="http://www.w3.org/2000/svg" height="1em" width="1em">
  <path d="M5.5 3a1.5 1.5 0 1 0 0 3 1.5 1.5 0 0 0 0-3ZM3 4.5a2.5 2.5 0 1 1 5 0 2.5 2.5 0 0 1-5 0Zm8.5-.5a1 1 0 1 0 0 2 1 1 0 0 0 0-2Zm-2 1a2 2 0 1 1 3.177 1.617c-.09.046-.177.1-.26.16A2 2 0 0 1 9.5 5ZM3 8a1.5 1.5 0 0 0-1.5 1.5v.112a1.387 1.387 0 0 0 .01.137 2.853 2.853 0 0 0 .524 1.342c.548.755 1.588 1.409 3.466 1.409 1.878 0 2.918-.654 3.467-1.409a2.853 2.853 0 0 0 .523-1.342 1.908 1.908 0 0 0 .01-.137V9.5A1.5 1.5 0 0 0 8 8H3Zm-.5 1.597V9.5A.5.5 0 0 1 3 9h5a.5.5 0 0 1 .5.5v.097l-.004.048a1.853 1.853 0 0 1-.338.857c-.326.449-1.036.998-2.658.998-1.622 0-2.332-.549-2.658-.997a1.853 1.853 0 0 1-.338-.858.906.906 0 0 1-.004-.048Zm8.698 2.647.861.287c.344-.26.63-.588.86-.982.197-.338.326-.681.386-1.029l.025-.174-.717-.68a.876.876 0 0 1-.226-.888l.031-.085.326-.767a.784.784 0 0 1 .877-.482l.076.02.408.13c.404.13.713.476.813.91.238 1.034-.047 2.292-.855 3.774-.806 1.48-1.69 2.371-2.65 2.67a1.138 1.138 0 0 1-1.076-.22l-.08-.074-.31-.31a.88.88 0 0 1-.143-1.03l.045-.074.467-.686a.786.786 0 0 1 .695-.347c.035.002.07.007.105.014l.082.023Z" fill="#212121"/>
</svg>
