<svg viewBox="0 0 24 24" fill="none" xmlns="http://www.w3.org/2000/svg" height="1em" width="1em">
  <path d="M17.498 11.995a5.5 5.5 0 1 1 0 11 5.5 5.5 0 0 1 0-11Zm0 2-.09.007a.5.5 0 0 0-.402.402l-.008.09v2.5l-2.503.001-.09.008a.5.5 0 0 0-.402.402l-.008.09.008.09a.5.5 0 0 0 .402.402l.09.008h2.503v2.504l.009.09a.5.5 0 0 0 .402.402l.09.008.09-.008a.5.5 0 0 0 .402-.402l.008-.09v-2.505l2.503.001.09-.008a.5.5 0 0 0 .402-.402l.008-.09-.008-.09a.5.5 0 0 0-.402-.402l-.09-.008h-2.505v-2.5l-.008-.09a.5.5 0 0 0-.402-.403l-.09-.008Zm-5.479 0a6.468 6.468 0 0 0-.708 1.5H9.248a.25.25 0 0 0-.25.25v1c0 .977.612 1.545 2.069 1.709.08.536.225 1.05.426 1.536-2.553-.137-3.995-1.222-3.995-3.245v-1c0-.966.783-1.75 1.75-1.75h2.772Zm-3.895-5a4.007 4.007 0 0 0-.096 1.5h-4.28a.25.25 0 0 0-.25.25v1c0 1.176.886 1.76 3.066 1.76a8.19 8.19 0 0 0 1.208-.078 2.743 2.743 0 0 0-1.173 1.576l-.035.001c-2.909 0-4.566-1.09-4.566-3.259v-1a1.75 1.75 0 0 1 1.606-1.744l.144-.006h4.376Zm3.874-2a3 3 0 1 1 0 6 3 3 0 0 1 0-6Zm8.25 2c.966 0 1.75.784 1.75 1.75l-.002.962a3.4 3.4 0 0 1-.087 1.014 6.514 6.514 0 0 0-1.41-.993l-.001-.983a.25.25 0 0 0-.25-.25h-4.281a4.03 4.03 0 0 0-.095-1.5h4.376Zm-8.25-.5a1.5 1.5 0 1 0 0 3 1.5 1.5 0 0 0 0-3Zm-5.5-6.5a3 3 0 1 1 0 6 3 3 0 0 1 0-6Zm11 0a3 3 0 1 1 0 6 3 3 0 0 1 0-6Zm-11 1.5a1.5 1.5 0 1 0 0 3 1.5 1.5 0 0 0 0-3Zm11 0a1.5 1.5 0 1 0 0 3 1.5 1.5 0 0 0 0-3Z" fill="#212121"/>
</svg>
