<svg viewBox="0 0 24 24" fill="none" xmlns="http://www.w3.org/2000/svg" height="1em" width="1em">
  <path d="M13.025 15.5a4.965 4.965 0 0 1 .391-1.5H6.252a2.249 2.249 0 0 0-2.249 2.25v.577c0 .892.319 1.756.899 2.435 1.566 1.834 3.952 2.74 7.098 2.74 1.175 0 2.244-.127 3.204-.38l-.294-1.474c-.85.235-1.82.353-2.91.353-2.738 0-4.704-.745-5.958-2.213a2.25 2.25 0 0 1-.539-1.461v-.578a.75.75 0 0 1 .75-.749h6.772ZM17 7.005a5 5 0 1 0-10 0 5 5 0 0 0 10 0Zm-8.5 0a3.5 3.5 0 1 1 7 0 3.5 3.5 0 0 1-7 0ZM22 16a4 4 0 0 1-1.763 3.317L20.1 20h-4.2l-.137-.683A4 4 0 1 1 22 16Zm-5.9 5 .159.794A1.5 1.5 0 0 0 17.729 23h.541a1.5 1.5 0 0 0 1.471-1.206L19.9 21h-3.8Z" fill="#212121"/>
</svg>
