<svg viewBox="0 0 24 24" fill="none" xmlns="http://www.w3.org/2000/svg" height="1em" width="1em">
  <path d="M13 16c0-.711.148-1.387.416-2H6.252a2.249 2.249 0 0 0-2.249 2.25v.919c0 .572.179 1.13.51 1.596C6.057 20.929 8.58 22 12 22c1.175 0 2.244-.126 3.204-.38l-.346-1.731A4.992 4.992 0 0 1 13 16Zm4-8.995a5 5 0 1 0-10 0 5 5 0 0 0 10 0ZM22 16a4 4 0 0 1-1.763 3.317L20.1 20h-4.2l-.137-.683A4 4 0 1 1 22 16Zm-5.9 5 .159.794A1.5 1.5 0 0 0 17.729 23h.541a1.5 1.5 0 0 0 1.471-1.206L19.9 21h-3.8Z" fill="#212121"/>
</svg>
