<svg viewBox="0 0 24 24" fill="none" xmlns="http://www.w3.org/2000/svg" height="1em" width="1em">
  <path d="M17.5 12a5.5 5.5 0 1 1 0 11 5.5 5.5 0 0 1 0-11Zm-2.647 5.147a.5.5 0 1 0-.707.707l2 2a.5.5 0 0 0 .707 0l4-4a.5.5 0 1 0-.707-.707L16.5 18.793l-1.647-1.646ZM12.023 14a6.47 6.47 0 0 0-.71 1.5h-7.06a.749.749 0 0 0-.75.75v.577c0 .535.192 1.053.54 1.46 1.253 1.469 3.219 2.214 5.957 2.214.596 0 1.156-.035 1.68-.106.245.495.553.954.912 1.367-.796.16-1.66.24-2.592.24-3.146 0-5.532-.906-7.098-2.74a3.75 3.75 0 0 1-.899-2.435v-.578A2.249 2.249 0 0 1 4.253 14h7.77ZM10 2.005a5 5 0 1 1 0 10 5 5 0 0 1 0-10Zm0 1.5a3.5 3.5 0 1 0 0 7 3.5 3.5 0 0 0 0-7Z" fill="#212121"/>
</svg>
