<svg viewBox="0 0 24 24" fill="none" xmlns="http://www.w3.org/2000/svg" height="1em" width="1em">
  <path d="M17.5 12a5.5 5.5 0 1 1 0 11 5.5 5.5 0 0 1 0-11Zm-5.478 2a6.47 6.47 0 0 0-.709 1.5h-7.06a.75.75 0 0 0-.75.75v.907c0 .656.286 1.28.784 1.707C5.545 19.945 7.44 20.5 10 20.5c.599 0 1.161-.03 1.688-.09.249.5.563.963.929 1.38-.802.14-1.675.21-2.617.21-2.89 0-5.128-.656-6.691-2a3.75 3.75 0 0 1-1.306-2.844v-.907A2.25 2.25 0 0 1 4.253 14h7.77Zm4.697.589-.07.058-2.515 2.516-.04.05-.035.058-.032.078-.012.043-.011.087.004.087.019.085.032.078.024.042.051.066 2.516 2.517a.5.5 0 0 0 .765-.638l-.058-.07L15.711 18H20.5a.5.5 0 0 0 .492-.41L21 17.5a.5.5 0 0 0-.41-.492L20.5 17h-4.79l1.647-1.646a.5.5 0 0 0 .058-.638l-.058-.07a.5.5 0 0 0-.638-.057ZM10 2.005a5 5 0 1 1 0 10 5 5 0 0 1 0-10Zm0 1.5a3.5 3.5 0 1 0 0 7 3.5 3.5 0 0 0 0-7Z" fill="#212121"/>
</svg>
