<svg viewBox="0 0 28 28" fill="none" xmlns="http://www.w3.org/2000/svg" height="1em" width="1em">
  <path d="M9.747 10a2.25 2.25 0 0 1 2.244 2.096l.006.154v11.5A2.25 2.25 0 0 1 9.9 25.995L9.747 26H4.25a2.25 2.25 0 0 1-2.245-2.096L2 23.75v-11.5a2.25 2.25 0 0 1 2.096-2.245L4.25 10h5.497ZM7.75 21.5H6.249l-.102.007a.75.75 0 0 0 0 1.486L6.25 23h1.5l.102-.007a.75.75 0 0 0 0-1.486L7.75 21.5ZM23.753 2a2.25 2.25 0 0 1 2.244 2.096l.006.154V15.5a2.25 2.25 0 0 1-2.096 2.245l-.154.005h-4.755v2.75h1.252a.75.75 0 0 1 .102 1.493L20.25 22H13v-1.5h4.498v-2.75H13V11.5a2.5 2.5 0 0 0-2.336-2.495L10.5 9H5V4.25a2.25 2.25 0 0 1 2.096-2.245L7.25 2h16.503Z" fill="#212121"/>
</svg>
