<svg viewBox="0 0 28 28" fill="none" xmlns="http://www.w3.org/2000/svg" height="1em" width="1em">
  <path d="M15.779 3.744c2.34-2.337 6.137-2.328 8.475.01 2.34 2.34 2.346 6.142.004 8.481L12.22 24.255c-2.34 2.337-6.137 2.328-8.475-.01-2.34-2.34-2.346-6.142-.004-8.48L15.779 3.743Zm1.933 12.908 5.486-5.478a4.498 4.498 0 0 0-.005-6.36 4.499 4.499 0 0 0-6.354-.009l-5.49 5.483 6.363 6.364ZM11.78 21.28a.75.75 0 0 0-1.06-1.06l-1.978 1.977a1.05 1.05 0 0 1-1.484 0l-.478-.477a.75.75 0 0 0-1.06 1.06l.477.477a2.55 2.55 0 0 0 3.606 0l1.977-1.977Z" fill="#212121"/>
</svg>
