<svg viewBox="0 0 48 48" fill="none" xmlns="http://www.w3.org/2000/svg" height="1em" width="1em">
  <path d="M6.002 17v18.75a6.25 6.25 0 0 0 6.25 6.25h23.5a6.25 6.25 0 0 0 6.25-6.25v-23.5A6.25 6.25 0 0 0 35.752 6H17v2.5h.002V17h-11Zm2.5 11.5v-9h8.5v9h-8.5Zm0 7.25V31h8.5v8.5h-4.75a3.75 3.75 0 0 1-3.75-3.75Zm20 3.75h-9V31h9v8.5Zm7.25 0h-4.75V31h8.5v4.75a3.75 3.75 0 0 1-3.75 3.75Zm3.75-20v9h-8.5v-9h8.5Zm0-7.25V17h-8.5V8.5h4.75a3.75 3.75 0 0 1 3.75 3.75Zm-20-3.75h9V17h-9V8.5Zm9 11v9h-9v-9h9Z" fill="#212121"/>
</svg>
