<svg viewBox="0 0 24 24" fill="none" xmlns="http://www.w3.org/2000/svg" height="1em" width="1em">
  <path d="M21.25 13a.75.75 0 0 1 .743.648l.007.102v5a3.25 3.25 0 0 1-3.066 3.245L18.75 22h-4.668c.536-.385.973-.9 1.265-1.499l3.403-.001a1.75 1.75 0 0 0 1.744-1.607l.006-.143v-5a.75.75 0 0 1 .75-.75Zm-9.5-4A3.25 3.25 0 0 1 15 12.25v6.5A3.25 3.25 0 0 1 11.75 22h-6.5A3.25 3.25 0 0 1 2 18.75v-6.5A3.25 3.25 0 0 1 5.25 9h6.5Zm0 1.5h-6.5a1.75 1.75 0 0 0-1.75 1.75v6.5c0 .966.783 1.75 1.75 1.75h6.5a1.75 1.75 0 0 0 1.75-1.75v-6.5a1.75 1.75 0 0 0-1.75-1.75Zm-5.69 2.603a.5.5 0 0 1 .596-.236l.082.036 3.956 2.158a.5.5 0 0 1 .075.828l-.075.05-3.956 2.158a.5.5 0 0 1-.731-.35L6 17.658v-4.315a.5.5 0 0 1 .061-.24ZM18.75 2a3.25 3.25 0 0 1 3.245 3.066L22 5.25v5a.75.75 0 0 1-1.493.102l-.007-.102v-5a1.75 1.75 0 0 0-1.607-1.744L18.75 3.5h-5a.75.75 0 0 1-.102-1.493L13.75 2h5Zm-8.5 0a.75.75 0 0 1 .102 1.493l-.102.007h-5a1.75 1.75 0 0 0-1.744 1.606L3.5 5.25v3.402A4.01 4.01 0 0 0 2 9.918V5.25a3.25 3.25 0 0 1 3.065-3.245L5.25 2h5Z" fill="#212121"/>
</svg>
