<svg viewBox="0 0 24 24" fill="none" xmlns="http://www.w3.org/2000/svg" height="1em" width="1em">
  <path d="M7 11.5A.75.75 0 1 0 7 10a.75.75 0 0 0 0 1.5Zm3.25-.75a.75.75 0 1 1-1.5 0 .75.75 0 0 1 1.5 0Zm-2 3.25a.75.75 0 1 0 0-1.5.75.75 0 0 0 0 1.5Zm3.25-.75a.75.75 0 1 1-1.5 0 .75.75 0 0 1 1.5 0Zm1.75.75a.75.75 0 1 0 0-1.5.75.75 0 0 0 0 1.5Zm3.25-.75a.75.75 0 1 1-1.5 0 .75.75 0 0 1 1.5 0ZM12 11.5a.75.75 0 1 0 0-1.5.75.75 0 0 0 0 1.5Zm3.25-.75a.75.75 0 1 1-1.5 0 .75.75 0 0 1 1.5 0Zm1.75.75a.75.75 0 1 0 0-1.5.75.75 0 0 0 0 1.5ZM4.907 6.999a2.75 2.75 0 0 0-2.675 3.387l1.071 4.501A2.75 2.75 0 0 0 5.98 17h12.038a2.75 2.75 0 0 0 2.675-2.111l1.074-4.502A2.75 2.75 0 0 0 19.092 7H4.906Zm-1.216 3.04a1.25 1.25 0 0 1 1.216-1.54h14.184a1.25 1.25 0 0 1 1.216 1.54l-1.074 4.502a1.25 1.25 0 0 1-1.216.96H5.98a1.25 1.25 0 0 1-1.216-.961L3.69 10.039Z" fill="#212121"/>
</svg>
