<svg viewBox="0 0 24 24" fill="none" xmlns="http://www.w3.org/2000/svg" height="1em" width="1em">
  <path d="M2.232 10.386a2.75 2.75 0 0 1 2.675-3.387h14.184a2.75 2.75 0 0 1 2.675 3.388l-1.074 4.502A2.75 2.75 0 0 1 18.017 17H5.98a2.75 2.75 0 0 1-2.676-2.113l-1.071-4.501ZM7 11.5A.75.75 0 1 0 7 10a.75.75 0 0 0 0 1.5Zm3.25-.75a.75.75 0 1 0-1.5 0 .75.75 0 0 0 1.5 0Zm-2 3.25a.75.75 0 1 0 0-1.5.75.75 0 0 0 0 1.5Zm3.25-.75a.75.75 0 1 0-1.5 0 .75.75 0 0 0 1.5 0Zm1.75.75a.75.75 0 1 0 0-1.5.75.75 0 0 0 0 1.5Zm3.25-.75a.75.75 0 1 0-1.5 0 .75.75 0 0 0 1.5 0ZM12 11.5a.75.75 0 1 0 0-1.5.75.75 0 0 0 0 1.5Zm3.25-.75a.75.75 0 1 0-1.5 0 .75.75 0 0 0 1.5 0Zm1.75.75a.75.75 0 1 0 0-1.5.75.75 0 0 0 0 1.5Z" fill="#212121"/>
</svg>
