<svg viewBox="0 0 24 24" fill="none" xmlns="http://www.w3.org/2000/svg" height="1em" width="1em">
  <path d="M12.013 2.25c.734.008 1.465.093 2.181.253a.75.75 0 0 1 .582.649l.17 1.527a1.384 1.384 0 0 0 1.928 1.116l1.4-.615a.75.75 0 0 1 .85.174 9.793 9.793 0 0 1 2.204 3.792.75.75 0 0 1-.271.825l-1.242.916a1.38 1.38 0 0 0-.37.409 6.483 6.483 0 0 0-1.52-.282 2.878 2.878 0 0 1 1.001-1.336l.797-.587a8.293 8.293 0 0 0-1.348-2.317l-.896.393a2.884 2.884 0 0 1-4.023-2.324l-.11-.976a8.99 8.99 0 0 0-1.333-.117 9.135 9.135 0 0 0-1.355.117l-.109.977A2.886 2.886 0 0 1 6.525 7.17l-.898-.394a8.293 8.293 0 0 0-1.348 2.317l.798.587a2.881 2.881 0 0 1 0 4.643l-.798.588c.32.842.775 1.626 1.347 2.322l.906-.397a2.882 2.882 0 0 1 4.017 2.318l.108.984c.314.053.63.087.947.103l.01.024-.44 1.45a9.53 9.53 0 0 1-1.375-.223.75.75 0 0 1-.572-.647l-.17-1.524a1.382 1.382 0 0 0-1.924-1.11l-1.407.616a.75.75 0 0 1-.849-.175 9.798 9.798 0 0 1-2.203-3.796.75.75 0 0 1 .271-.826l1.244-.916a1.38 1.38 0 0 0 0-2.226l-1.243-.914a.75.75 0 0 1-.272-.826 9.793 9.793 0 0 1 2.205-3.792.75.75 0 0 1 .849-.174l1.4.615a1.387 1.387 0 0 0 1.93-1.118l.17-1.526a.75.75 0 0 1 .583-.65c.718-.159 1.45-.243 2.202-.252Zm5.74 9.756a5.504 5.504 0 0 1 5.25 5.496 5.501 5.501 0 0 1-8.169 4.812l-2.187.666a.5.5 0 0 1-.624-.625l.666-2.186a5.501 5.501 0 0 1 5.063-8.163ZM17.5 18h-2a.5.5 0 0 0-.395.807.5.5 0 0 0 .395.194h2a.5.5 0 1 0 0-1Zm-2-1h4a.5.5 0 1 0 0-1h-4a.5.5 0 0 0-.365.841.499.499 0 0 0 .365.16ZM12 8.25a3.751 3.751 0 0 1 3.676 3.01 6.468 6.468 0 0 0-1.43.612 2.25 2.25 0 1 0-2.375 2.374 6.46 6.46 0 0 0-.612 1.43A3.751 3.751 0 0 1 12 8.25Z" fill="#212121"/>
</svg>
