<svg viewBox="0 0 24 25" fill="none" xmlns="http://www.w3.org/2000/svg" height="1em" width="1em">
  <path d="M7 7.5v-2a3 3 0 0 1 5-2.236A3 3 0 0 1 17 5.5v2h1.5A1.5 1.5 0 0 1 20 9v2.998a6.452 6.452 0 0 0-1.5-.422V9h-3.99v3.227a6.518 6.518 0 0 0-1.5 1.073V9H5.5v9.5A2.5 2.5 0 0 0 8 21h3.732a6.518 6.518 0 0 0 1.078 1.5H8a4 4 0 0 1-4-4V9a1.5 1.5 0 0 1 1.5-1.5H7Zm4.5 0v-2a1.5 1.5 0 0 0-3 0v2h3Zm1.5 0h2.5v-2a1.5 1.5 0 0 0-2.656-.956c.101.3.156.622.156.956v2ZM23 18a5.5 5.5 0 1 1-11 0 5.5 5.5 0 0 1 11 0Zm-7.5-3a.5.5 0 0 0-.5.5v5a.5.5 0 0 0 1 0v-5a.5.5 0 0 0-.5-.5Zm4 0a.5.5 0 0 0-.5.5v5a.5.5 0 0 0 1 0v-5a.5.5 0 0 0-.5-.5Z" fill="#212121"/>
</svg>
