<svg viewBox="0 0 24 24" fill="none" xmlns="http://www.w3.org/2000/svg" height="1em" width="1em">
  <path d="M15 4.249a1.25 1.25 0 0 0-2.057-.955L7.975 7.498H4.25A2.25 2.25 0 0 0 2 9.748v4.5a2.25 2.25 0 0 0 2.25 2.25h3.725l4.967 4.206A1.25 1.25 0 0 0 15 19.75V4.25Zm-6.475 4.75L13.5 4.787V19.21l-4.975-4.213H4.25a.75.75 0 0 1-.75-.75v-4.5a.75.75 0 0 1 .75-.75h4.275Zm7.638 4.956L17.5 16v2a1 1 0 0 0 1 1h2a1 1 0 0 0 1-1v-2l1.333-2.006a1 1 0 0 0 .167-.553V10a1 1 0 0 0-1-1V7a1 1 0 0 0-1-1h-3a1 1 0 0 0-1 1v2a1 1 0 0 0-1 1v3.408a1 1 0 0 0 .163.547ZM18.5 7.5h2V9h-2V7.5Z" fill="#212121"/>
</svg>
