<svg viewBox="0 0 16 16" fill="none" xmlns="http://www.w3.org/2000/svg" height="1em" width="1em">
  <path d="M8.808 2.102a.9.9 0 0 0-1.614 0L5.673 5.184l-3.401.494a.898.898 0 0 0-.5 1.535l2.462 2.4L3.653 13a.899.899 0 0 0 1.306.949L8 12.348l3.042 1.6a.9.9 0 0 0 1.306-.95l-.581-3.387 2.461-2.399a.9.9 0 0 0-.499-1.535l-3.4-.494-1.522-3.082ZM6 12.272V6.136a.9.9 0 0 0 .546-.464l1.455-2.947 1.455 2.947a.9.9 0 0 0 .677.493l3.253.472-2.354 2.295a.9.9 0 0 0-.258.796l.555 3.24-2.91-1.53a.9.9 0 0 0-.837 0L6 12.271Z" fill="#212121"/>
</svg>
