<svg viewBox="0 0 28 28" fill="none" xmlns="http://www.w3.org/2000/svg" height="1em" width="1em">
  <path d="M12.701 3.908a1.433 1.433 0 0 1 1.301-.808c.517 0 1.034.27 1.3.808l2.69 5.453 6.018.874c1.19.173 1.664 1.635.804 2.473l-4.355 4.245 1.028 5.992c.204 1.185-1.04 2.088-2.103 1.529l-5.382-2.83-5.382 2.83c-1.064.56-2.307-.344-2.104-1.529l1.028-5.992-4.355-4.245c-.86-.838-.385-2.3.804-2.473l6.017-.874 2.691-5.453Zm1.301 16.23c.232 0 .463.056.674.167l5.316 2.794-1.015-5.919c-.081-.47.075-.95.417-1.283l4.3-4.192-5.943-.864a1.45 1.45 0 0 1-1.092-.793l-2.657-5.384v15.474Z" fill="#212121"/>
</svg>
