<svg viewBox="0 0 28 28" fill="none" xmlns="http://www.w3.org/2000/svg" height="1em" width="1em">
  <path d="m15.302 3.908 2.69 5.453 6.018.874c1.19.173 1.664 1.635.804 2.473l-4.355 4.245 1.028 5.992c.204 1.185-1.04 2.088-2.103 1.529L14 21.644l-5.381 2.83c-1.064.56-2.307-.344-2.104-1.529l1.028-5.992-4.355-4.245c-.86-.838-.385-2.3.804-2.473l6.017-.874L12.7 3.908c.532-1.077 2.069-1.077 2.6 0Zm1.7 6.587v11.032l2.99 1.572-1.015-5.919c-.081-.47.075-.95.417-1.283l4.3-4.192-5.943-.864a1.45 1.45 0 0 1-.749-.346Z" fill="#212121"/>
</svg>
