<svg viewBox="0 0 24 24" fill="none" xmlns="http://www.w3.org/2000/svg" height="1em" width="1em">
  <path d="M13.209 3.103c-.495-1.004-1.926-1.004-2.421 0L8.43 7.88l-5.273.766c-1.107.161-1.55 1.522-.748 2.303l3.815 3.719-.9 5.251c-.15.87.54 1.578 1.325 1.581.21.002.426-.048.635-.158L9 20.441v-.002l2.998-1.576 4.716 2.48c.99.52 2.148-.321 1.96-1.424l-.902-5.251 3.816-3.719c.8-.781.359-2.142-.748-2.303l-5.273-.766-2.358-4.777ZM9 18.745V9.283a1.35 1.35 0 0 0 .74-.668l2.258-4.576 2.259 4.576a1.35 1.35 0 0 0 1.016.738l5.05.734-3.654 3.562a1.35 1.35 0 0 0-.388 1.195l.862 5.03-4.516-2.375a1.35 1.35 0 0 0-1.257 0L9 18.745Z" fill="#212121"/>
</svg>
