<svg viewBox="0 0 12 12" fill="none" xmlns="http://www.w3.org/2000/svg" height="1em" width="1em">
  <path d="m6 9.428-2.223 1.169a.8.8 0 0 1-1.16-.843l.424-2.476-1.799-1.754a.8.8 0 0 1 .444-1.364l2.486-.361 1.111-2.253A.79.79 0 0 1 6 1.1a.79.79 0 0 1 .718.446L7.83 3.799l2.486.36a.8.8 0 0 1 .443 1.365L8.96 7.278l.425 2.476a.8.8 0 0 1-1.16.843L6 9.428Zm0-7.074v6.048a.8.8 0 0 1 .373.092l1.958 1.03-.374-2.18a.8.8 0 0 1 .23-.709l1.584-1.544-2.189-.318a.8.8 0 0 1-.602-.438L6 2.352v.002Z" fill="#212121"/>
</svg>
