<svg viewBox="0 0 28 28" fill="none" xmlns="http://www.w3.org/2000/svg" height="1em" width="1em">
  <path d="M15.302 3.908c-.532-1.077-2.069-1.077-2.6 0L10.01 9.361l-6.017.874A1.447 1.447 0 0 0 2.75 11.68c0 .365.138.735.44 1.03l4.354 4.244-1.028 5.992c-.108.63.193 1.182.66 1.475.41.257.946.316 1.444.054l5.382-2.83 5.382 2.83c1.063.56 2.306-.344 2.103-1.529l-1.027-5.992 4.354-4.245c.86-.838.385-2.3-.804-2.473l-6.017-.874-2.691-5.453Zm-4.3 17.619V10.494a1.45 1.45 0 0 0 .342-.446l2.658-5.385 2.657 5.385c.212.428.62.725 1.092.793l5.943.864-4.3 4.192a1.45 1.45 0 0 0-.417 1.283l1.015 5.92-5.316-2.795a1.45 1.45 0 0 0-1.35 0l-2.324 1.222Z" fill="#212121"/>
</svg>
