<svg viewBox="0 0 24 24" fill="none" xmlns="http://www.w3.org/2000/svg" height="1em" width="1em">
  <path d="M13.211 3.103 15 6.727v.004l.567 1.15 5.273.765c1.107.161 1.549 1.522.748 2.303l-3.816 3.719.901 5.251c.19 1.103-.968 1.944-1.959 1.423L12 18.864l-4.715 2.478a1.343 1.343 0 0 1-.629.158c-.787.001-1.481-.708-1.331-1.58l.9-5.252-3.815-3.719c-.801-.781-.359-2.142.748-2.303L8.43 7.88l2.358-4.777c.248-.503.73-.753 1.211-.753.482 0 .964.25 1.212.753ZM15 9.283v9.463l2.143 1.127-.862-5.03a1.35 1.35 0 0 1 .388-1.194l3.654-3.562-5.05-.734a1.349 1.349 0 0 1-.273-.07Z" fill="#212121"/>
</svg>
