<svg viewBox="0 0 28 28" fill="none" xmlns="http://www.w3.org/2000/svg" height="1em" width="1em">
  <path d="M12.701 3.908c.532-1.077 2.069-1.077 2.6 0l2.692 5.453 6.017.874c1.19.173 1.664 1.635.804 2.474l-1.06 1.032a7.5 7.5 0 0 0-10.587 8.342L8.62 24.474c-1.064.56-2.307-.344-2.104-1.528l1.028-5.993-4.355-4.244c-.86-.84-.385-2.3.804-2.474l6.017-.874 2.691-5.453ZM27 20.5a6.5 6.5 0 1 1-13 0 6.5 6.5 0 0 1 13 0Zm-9.146-3.354a.5.5 0 0 0-.708.708l2.647 2.646-2.647 2.646a.5.5 0 0 0 .708.708l2.646-2.647 2.646 2.647a.5.5 0 0 0 .708-.708L21.207 20.5l2.647-2.646a.5.5 0 0 0-.708-.708L20.5 19.793l-2.646-2.647Z" fill="#212121"/>
</svg>
