<svg viewBox="0 0 16 16" fill="none" xmlns="http://www.w3.org/2000/svg" height="1em" width="1em">
  <path d="m5.673 5.184 1.52-3.082A.89.89 0 0 1 8 1.6a.89.89 0 0 1 .808.502l1.521 3.082 3.401.494a.9.9 0 0 1 .5 1.535l-2.462 2.4.581 3.387a.9.9 0 0 1-1.306.948L8.001 12.35l-3.042 1.6A.9.9 0 0 1 3.653 13l.58-3.387-2.46-2.399a.9.9 0 0 1 .499-1.535l3.4-.494ZM8 11.336a.9.9 0 0 1 .42.103l2.91 1.53-.556-3.24a.9.9 0 0 1 .258-.796l2.354-2.295-3.253-.472a.9.9 0 0 1-.677-.493L8 2.726v8.61Z" fill="#212121"/>
</svg>
