<svg viewBox="0 0 12 12" fill="none" xmlns="http://www.w3.org/2000/svg" height="1em" width="1em">
  <path d="M6.718 1.546a.8.8 0 0 0-1.435 0L4.172 3.798l-2.486.362a.798.798 0 0 0-.444 1.364l1.8 1.754-.425 2.476a.837.837 0 0 0-.005.253.801.801 0 0 0 1.165.59l2.224-1.169 2.223 1.169a.8.8 0 0 0 1.161-.843L8.96 7.278l1.8-1.754a.8.8 0 0 0-.444-1.364L7.83 3.799 6.718 1.546ZM5 8.824V4.377a.795.795 0 0 0 .022-.042L6 2.352l.979 1.983a.8.8 0 0 0 .602.438l2.19.318-1.585 1.544a.8.8 0 0 0-.23.708l.374 2.18-1.958-1.03a.8.8 0 0 0-.744 0L5 8.825Z" fill="#212121"/>
</svg>
