<svg viewBox="0 0 16 16" fill="none" xmlns="http://www.w3.org/2000/svg" height="1em" width="1em">
  <path d="M7.194 2.102a.9.9 0 0 1 1.614 0l1.433 2.904A5.5 5.5 0 0 0 5.87 13.47l-.911.478A.9.9 0 0 1 3.653 13l.58-3.388-2.46-2.399a.9.9 0 0 1 .499-1.535l3.4-.494 1.522-3.082ZM15 10.5a4.5 4.5 0 1 1-9 0 4.5 4.5 0 0 1 9 0Zm-2.646-1.146a.5.5 0 0 0-.708-.708L10.5 9.793 9.354 8.646a.5.5 0 1 0-.708.708L9.793 10.5l-1.147 1.146a.5.5 0 0 0 .708.708l1.146-1.147 1.146 1.147a.5.5 0 0 0 .708-.708L11.207 10.5l1.147-1.146Z" fill="#212121"/>
</svg>
