<svg viewBox="0 0 24 24" fill="none" xmlns="http://www.w3.org/2000/svg" height="1em" width="1em">
  <path d="m17.404 4.723 2.718 10.142a2.75 2.75 0 0 1-1.945 3.368L11.9 19.915a2.75 2.75 0 0 1-3.368-1.944L5.813 7.828A2.75 2.75 0 0 1 7.758 4.46l6.278-1.682a2.75 2.75 0 0 1 3.368 1.945Zm-6.438 3.019a1 1 0 1 0-1.932.517 1 1 0 0 0 1.932-.517Zm-5.163 3.917 1.762 6.57a3.732 3.732 0 0 0 1.002 1.713l-.443-.023a2.75 2.75 0 0 1-2.602-2.89l.281-5.37Zm-.925-1.479-.355 6.796c-.037.699.12 1.363.424 1.94l-.414-.16a2.75 2.75 0 0 1-1.582-3.553l1.927-5.023Z" fill="#212121"/>
</svg>
