<svg viewBox="0 0 24 24" fill="none" xmlns="http://www.w3.org/2000/svg" height="1em" width="1em">
  <path d="M3 5.75A2.75 2.75 0 0 1 5.75 3h12.5A2.75 2.75 0 0 1 21 5.75v6.272a6.463 6.463 0 0 0-2-.848V5.75a.75.75 0 0 0-.75-.75H5.75a.75.75 0 0 0-.75.75v12.5c0 .414.336.75.75.75h5.424c.17.72.46 1.395.848 2H5.75A2.75 2.75 0 0 1 3 18.25V5.75ZM23 17.5a5.5 5.5 0 1 1-11 0 5.5 5.5 0 0 1 11 0Zm-9.5 0c0 .834.255 1.608.691 2.248l5.557-5.557A4 4 0 0 0 13.5 17.5Zm4 4a4 4 0 0 0 3.309-6.248l-5.557 5.557a3.98 3.98 0 0 0 2.248.691Z" fill="#212121"/>
</svg>
