<svg viewBox="0 0 16 16" fill="none" xmlns="http://www.w3.org/2000/svg" height="1em" width="1em">
  <path d="M1.535 6.327 6.295 1.6a2.02 2.02 0 0 1 1.415-.585L10.974 1a2.007 2.007 0 0 1 2.022 2.014l-.019 2.574a5.5 5.5 0 0 0-7.428 7.31 2.008 2.008 0 0 1-.704-.454l-3.31-3.288a1.99 1.99 0 0 1 0-2.829Zm7.729-1.669c.3.299.788.299 1.089 0 .3-.298.3-.783 0-1.082a.774.774 0 0 0-1.09 0c-.3.3-.3.784 0 1.082ZM15 10.5a4.5 4.5 0 1 1-9 0 4.5 4.5 0 0 1 9 0ZM10.5 8a.5.5 0 0 0-.5.5v2a.5.5 0 0 0 1 0v-2a.5.5 0 0 0-.5-.5Zm0 5.125a.625.625 0 1 0 0-1.25.625.625 0 0 0 0 1.25Z" fill="#212121"/>
</svg>
