<svg viewBox="0 0 24 24" fill="none" xmlns="http://www.w3.org/2000/svg" height="1em" width="1em">
  <path d="M6.5 12a5.5 5.5 0 1 0 0 11 5.5 5.5 0 0 0 0-11Zm.78 2.589.07.057 2.516 2.517.04.05.044.077.023.059.02.085.002.11-.016.086-.029.08-.033.061-.051.066-2.516 2.517a.5.5 0 0 1-.765-.638l.058-.07L8.289 18H3.5a.5.5 0 0 1-.492-.41L3 17.5a.5.5 0 0 1 .41-.492L3.5 17h4.789l-1.646-1.646a.5.5 0 0 1-.058-.638l.058-.07a.5.5 0 0 1 .638-.057ZM12.982 17h8.269l.102.007a.75.75 0 0 1-.102 1.493h-8.326a6.554 6.554 0 0 0 .057-1.5Zm-.713-2.5h8.982a.75.75 0 0 0 .102-1.493L21.25 13H11.19c.427.444.79.949 1.078 1.5ZM2.75 9h18.5l.102.007a.75.75 0 0 1-.102 1.493H2.75l-.102-.007A.75.75 0 0 1 2.75 9Zm0-4h18.5l.102.007A.75.75 0 0 1 21.25 6.5H2.75l-.102-.007A.75.75 0 0 1 2.75 5Z" fill="#212121"/>
</svg>
