<svg viewBox="0 0 16 16" fill="none" xmlns="http://www.w3.org/2000/svg" height="1em" width="1em">
  <path d="M2.002 4.001a2 2 0 0 1 2-2H12a2 2 0 0 1 2 2v6.13l-1-1.696V4.001a1 1 0 0 0-1-1H4.002a1 1 0 0 0-1 1V12a1 1 0 0 0 1 1h2.306l-.04.068c-.167.283-.26.604-.267.932h-2a2 2 0 0 1-2-2V4Zm5.19 7.499.59-1h-.778a.5.5 0 0 0 0 1h.189Zm1.77-3 .308-.523a1.96 1.96 0 0 1 .395-.477H7.004a.5.5 0 0 0 0 1h1.958ZM5.5 5A.75.75 0 1 1 4 5a.75.75 0 0 1 1.5 0Zm-.75 3.752a.75.75 0 1 0 0-1.5.75.75 0 0 0 0 1.5ZM5.5 11A.75.75 0 1 1 4 11a.75.75 0 0 1 1.5 0Zm1.504-6.5a.5.5 0 0 0 0 1h4.474a.5.5 0 1 0 0-1H7.004Zm3.731 3.534c.251-.066.526-.039.767.095.154.086.28.21.367.356l3.002 5.09c.134.228.16.484.095.716a.956.956 0 0 1-.462.58 1.038 1.038 0 0 1-.501.129H7.998c-.28 0-.53-.11-.71-.285a.93.93 0 0 1-.159-1.14l3.003-5.09a.988.988 0 0 1 .603-.45Zm.766 1.468a.5.5 0 0 0-1 0v1.996a.5.5 0 1 0 1 0V9.502ZM11 14.5a.75.75 0 1 0 0-1.5.75.75 0 0 0 0 1.5Z" fill="#212121"/>
</svg>
