<svg viewBox="0 0 24 25" fill="none" xmlns="http://www.w3.org/2000/svg" height="1em" width="1em">
  <path d="M4 5.5a1 1 0 0 0 0 2h16a1 1 0 1 0 0-2H4Zm0 4a1 1 0 0 0 0 2h16a1 1 0 1 0 0-2H4Zm7 8.5c0-.168.006-.335.019-.5H4a1 1 0 1 0 0 2h7.174A6.52 6.52 0 0 1 11 18Zm.498-2.5a6.506 6.506 0 0 1 1.312-2H4a1 1 0 1 0 0 2h7.498ZM23 18a5.5 5.5 0 1 1-11 0 5.5 5.5 0 0 1 11 0Zm-4.471-3.5h-1.433a.5.5 0 0 0-.468.324l-1.125 3a.5.5 0 0 0 .469.676h.778l-.773 2.318a.518.518 0 0 0 .926.446l2.625-4.038a.47.47 0 0 0-.393-.726H18.5l.497-1.324a.5.5 0 0 0-.468-.676Z" fill="#212121"/>
</svg>
