<svg viewBox="0 0 16 16" fill="none" xmlns="http://www.w3.org/2000/svg" height="1em" width="1em">
  <path d="M13 1.5a.5.5 0 0 0-1 0v11.793l-1.146-1.147a.5.5 0 0 0-.708.708l2 2a.5.5 0 0 0 .708 0l2-2a.5.5 0 0 0-.708-.708L13 13.293V1.5Zm-10.5 8a.5.5 0 0 0-1 0v5a.5.5 0 0 0 .5.5h6a.5.5 0 0 0 .5-.5v-5a.5.5 0 0 0-1 0V14h-2v-2.5a.5.5 0 0 0-1 0V14h-2V9.5Zm2.962-8.192a.5.5 0 0 0-.923 0l-2.5 6a.5.5 0 0 0 .923.384L3.667 6h2.666l.705 1.692a.5.5 0 1 0 .924-.384l-2.5-6ZM4.083 5 5 2.8 5.917 5H4.083Z" fill="#212121"/>
</svg>
