<svg viewBox="0 0 24 24" fill="none" xmlns="http://www.w3.org/2000/svg" height="1em" width="1em">
  <path d="M21.25 5H2.75a.75.75 0 0 0-.102 1.493l.102.007h18.5a.75.75 0 0 0 .102-1.493L21.25 5ZM2.75 9h18.5l.102.007a.75.75 0 0 1-.102 1.493H2.75l-.102-.007A.75.75 0 0 1 2.75 9Zm18.5 5.5h-8.982A6.518 6.518 0 0 0 11.19 13h10.06l.102.007a.75.75 0 0 1-.102 1.493Zm0 2.5h-8.269a6.62 6.62 0 0 1-.057 1.5h8.326a.75.75 0 0 0 .102-1.493L21.25 17Zm-9.25.5a5.5 5.5 0 1 1-11 0 5.5 5.5 0 0 1 11 0Zm-6.35 2.854.07.057a.5.5 0 0 0 .637-.057l.058-.07a.5.5 0 0 0-.058-.638L4.711 18H9.5l.09-.008A.5.5 0 0 0 10 17.5l-.008-.09A.5.5 0 0 0 9.5 17H4.711l1.646-1.646.058-.07a.5.5 0 0 0-.765-.638l-2.516 2.517-.05.066-.034.061-.03.08-.015.086.003.11.019.085.023.059.044.077.04.05 2.516 2.517Z" fill="#212121"/>
</svg>
