<svg viewBox="0 0 24 24" fill="none" xmlns="http://www.w3.org/2000/svg" height="1em" width="1em">
  <path d="M6.75 4.5h14.5a.75.75 0 0 0 .102-1.493L21.25 3H6.75a.75.75 0 0 0-.102 1.493l.102.007Zm0 15h14.5a.75.75 0 0 0 .102-1.493L21.25 18H6.75a.75.75 0 0 0-.102 1.493l.102.007Zm7-11.5a.75.75 0 0 0 0 1.5h7.5a.75.75 0 0 0 0-1.5h-7.5ZM13 13.75a.75.75 0 0 1 .75-.75h7.5a.75.75 0 0 1 0 1.5h-7.5a.75.75 0 0 1-.75-.75Zm-2-2.25a4.5 4.5 0 1 1-9 0 4.5 4.5 0 0 1 9 0Zm-2 0a.5.5 0 0 0-.5-.5h-4a.5.5 0 0 0 0 1h4a.5.5 0 0 0 .5-.5Z" fill="#212121"/>
</svg>
