<svg viewBox="0 0 16 16" fill="none" xmlns="http://www.w3.org/2000/svg" height="1em" width="1em">
  <path d="M2.5 1.75a.75.75 0 0 0-1.5 0v4.5c0 .414.336.75.75.75h6a.75.75 0 0 0 .75-.75v-4.5a.75.75 0 0 0-1.5 0V5.5H5.5V3.75a.75.75 0 0 0-1.5 0V5.5H2.5V1.75Zm10.5 0a.75.75 0 0 0-1.5 0v10.69l-.72-.72a.75.75 0 1 0-1.06 1.06l2 2a.75.75 0 0 0 1.06 0l2-2a.75.75 0 1 0-1.06-1.06l-.72.72V1.75ZM5 9a.75.75 0 0 1 .697.471l2 5a.75.75 0 0 1-1.393.557l-.211-.527H3.908l-.211.527a.75.75 0 0 1-1.393-.556l2-5A.75.75 0 0 1 5 9Zm0 2.77L4.508 13h.985L5 11.77Z" fill="#212121"/>
</svg>
