<svg viewBox="0 0 24 24" fill="none" xmlns="http://www.w3.org/2000/svg" height="1em" width="1em">
  <path d="M17.5 20.75a1.25 1.25 0 1 1 2.499 0 1.25 1.25 0 0 1-2.499 0Zm.5-3.5V2.75a.75.75 0 0 1 1.493-.102l.007.102v14.5a.75.75 0 0 1-1.493.102L18 17.25Zm-7 3.5a1.25 1.25 0 1 1 2.499 0 1.25 1.25 0 0 1-2.499 0Zm.5-3.5V2.75a.75.75 0 0 1 1.493-.102L13 2.75v14.5a.75.75 0 0 1-1.493.102l-.007-.102Zm-7 3.5a1.25 1.25 0 1 1 2.499 0 1.25 1.25 0 0 1-2.499 0Zm.5-3.5V2.75a.75.75 0 0 1 1.493-.102l.007.102v14.5a.75.75 0 0 1-1.493.102L5 17.25Z" fill="#212121"/>
</svg>
