<svg viewBox="0 0 16 16" fill="none" xmlns="http://www.w3.org/2000/svg" height="1em" width="1em">
  <path d="M5 0a.75.75 0 0 1 .697.471l2 5a.75.75 0 1 1-1.393.558L6.093 5.5H3.908l-.211.528a.75.75 0 1 1-1.393-.558l2-5A.75.75 0 0 1 5 0Zm0 2.77L4.508 4h.985L5 2.77Zm8-1.02a.75.75 0 0 0-1.5 0v10.69l-.72-.72a.75.75 0 1 0-1.06 1.06l2 2a.75.75 0 0 0 1.06 0l2-2a.75.75 0 1 0-1.06-1.06l-.72.72V1.75Zm-10.5 8a.75.75 0 0 0-1.5 0v4.5c0 .414.336.75.75.75h6a.75.75 0 0 0 .75-.75v-4.5a.75.75 0 0 0-1.5 0v3.75H5.5v-1.75a.75.75 0 0 0-1.5 0v1.75H2.5V9.75Z" fill="#212121"/>
</svg>
