<svg viewBox="0 0 24 24" fill="none" xmlns="http://www.w3.org/2000/svg" height="1em" width="1em">
  <path d="M21 5H3a1 1 0 0 0-.117 1.993L3 7h18a1 1 0 0 0 .117-1.993L21 5Zm0 6a1 1 0 0 0 .117-1.993L21 9H3a1 1 0 0 0-.117 1.993L3 11h18Zm0 4h-8.498a6.506 6.506 0 0 0-1.312-2H21l.117.007A1 1 0 0 1 21 15Zm0 2h-8.019a6.62 6.62 0 0 1-.155 2H21a1 1 0 0 0 .117-1.993L21 17Zm-9 .5a5.5 5.5 0 1 1-11 0 5.5 5.5 0 0 1 11 0Zm-6.35 2.854.07.057a.5.5 0 0 0 .637-.057l.058-.07a.5.5 0 0 0-.058-.638L4.711 18H9.5l.09-.008A.5.5 0 0 0 10 17.5l-.008-.09A.5.5 0 0 0 9.5 17H4.711l1.646-1.646.058-.07a.5.5 0 0 0-.765-.638l-2.516 2.517-.05.066-.034.061-.03.08-.015.086.003.11.019.085.023.059.044.077.04.05 2.516 2.517Z" fill="#212121"/>
</svg>
