<svg viewBox="0 0 24 24" fill="none" xmlns="http://www.w3.org/2000/svg" height="1em" width="1em">
  <path d="M21 6a1 1 0 0 0-1-1h-9a1 1 0 1 0 0 2h9a1 1 0 0 0 1-1ZM8 6a1 1 0 0 0-1-1H4a1 1 0 0 0 0 2h3a1 1 0 0 0 1-1Zm13 4a1 1 0 0 0-1-1h-9a1 1 0 1 0 0 2h9a1 1 0 0 0 1-1ZM8 10a1 1 0 0 0-1-1H4a1 1 0 0 0 0 2h3a1 1 0 0 0 1-1Zm13 4a1 1 0 0 0-1-1h-9a1 1 0 1 0 0 2h9a1 1 0 0 0 1-1ZM8 14a1 1 0 0 0-1-1H4a1 1 0 1 0 0 2h3a1 1 0 0 0 1-1Zm13 4a1 1 0 0 0-1-1h-9a1 1 0 1 0 0 2h9a1 1 0 0 0 1-1ZM8 18a1 1 0 0 0-1-1H4a1 1 0 1 0 0 2h3a1 1 0 0 0 1-1Z" fill="#212121"/>
</svg>
