<svg viewBox="0 0 24 24" fill="none" xmlns="http://www.w3.org/2000/svg" height="1em" width="1em">
  <path d="M7 2a.75.75 0 0 1 .703.49l2.952 7.985.012.032.223.602-.829 2.086-.626-1.694H4.563l-1.112 3.01a.75.75 0 1 1-1.407-.521l1.288-3.483a.766.766 0 0 1 .012-.033L6.296 2.49A.75.75 0 0 1 7 2Zm-1.882 8h3.763L7 4.914 5.118 10Zm8.688-3.527a.75.75 0 0 1 1.394 0l5.555 14.031h.494a.75.75 0 1 1 0 1.5H18.75a.75.75 0 0 1 0-1.5h.392l-1.19-3.004h-6.91L9.85 20.504h.399a.75.75 0 1 1 0 1.5H7.75a.75.75 0 1 1 0-1.5h.486l5.57-14.03ZM17.358 16l-2.856-7.215L11.638 16h5.72Z" fill="#212121"/>
</svg>
