<svg viewBox="0 0 24 24" fill="none" xmlns="http://www.w3.org/2000/svg" height="1em" width="1em">
  <path d="M3.5 2.75a.75.75 0 0 0-1.5 0v7.5c0 .414.336.75.75.75h8.5a.75.75 0 0 0 .75-.75v-7.5a.75.75 0 0 0-1.5 0V9.5H7.75V5.75a.75.75 0 0 0-1.5 0V9.5H3.5V2.75Zm4.188 10.702a.75.75 0 0 0-1.376 0l-3.25 7.5a.75.75 0 1 0 1.376.596L5.11 20h3.782l.671 1.548a.75.75 0 1 0 1.376-.596l-3.25-7.5Zm.553 5.048H5.76L7 15.636 8.241 18.5ZM17.25 2a.75.75 0 0 1 .75.75v16.69l2.22-2.22a.75.75 0 1 1 1.06 1.06l-3.5 3.5a.75.75 0 0 1-1.06 0l-3.5-3.5a.75.75 0 1 1 1.06-1.06l2.22 2.22V2.75a.75.75 0 0 1 .75-.75Z" fill="#212121"/>
</svg>
