<svg viewBox="0 0 24 24" fill="none" xmlns="http://www.w3.org/2000/svg" height="1em" width="1em">
  <path d="M6.5 12a5.5 5.5 0 1 0 0 11 5.5 5.5 0 0 0 0-11Zm.78 2.589.07.057 2.516 2.517.04.05.044.077.023.059.02.085.002.11-.016.086-.029.08-.033.061-.051.066-2.516 2.517a.5.5 0 0 1-.765-.638l.058-.07L8.289 18H3.5a.5.5 0 0 1-.492-.41L3 17.5a.5.5 0 0 1 .41-.492L3.5 17h4.789l-1.646-1.646a.5.5 0 0 1-.058-.638l.058-.07a.5.5 0 0 1 .638-.057ZM12.982 17H21l.117.007A1 1 0 0 1 21 19h-8.174a6.52 6.52 0 0 0 .155-2Zm-.48-2H21a1 1 0 0 0 .117-1.993L21 13h-9.81a6.49 6.49 0 0 1 1.312 2ZM21 11a1 1 0 0 0 .117-1.993L21 9H3a1 1 0 0 0-.117 1.993L3 11h18ZM3 5h18l.117.007A1 1 0 0 1 21 7H3l-.117-.007A1 1 0 0 1 3 5Z" fill="#212121"/>
</svg>
