<svg viewBox="0 0 24 24" fill="none" xmlns="http://www.w3.org/2000/svg" height="1em" width="1em">
  <path d="M4 3a1 1 0 0 0-2 0v7a1 1 0 0 0 1 1h8a1 1 0 0 0 1-1V3a1 1 0 1 0-2 0v6H8V6a1 1 0 0 0-2 0v3H4V3Zm14.5 0a1 1 0 1 0-2 0v15.586l-1.793-1.793a1 1 0 0 0-1.414 1.414l3.5 3.5a1 1 0 0 0 1.414 0l3.5-3.5a1 1 0 0 0-1.414-1.414L18.5 18.586V3ZM7 13a1 1 0 0 1 .92.606l3 7a1 1 0 1 1-1.839.788L8.484 20H5.517l-.598 1.394a1 1 0 1 1-1.838-.788l3-7a1 1 0 0 1 .92-.606Zm0 3.539L6.374 18h1.253L7 16.539Z" fill="#212121"/>
</svg>
