<svg viewBox="0 0 16 16" fill="none" xmlns="http://www.w3.org/2000/svg" height="1em" width="1em">
  <path d="M9.976 1.352a1.4 1.4 0 0 0-1.936.042L1.424 8.011a1.4 1.4 0 0 0 0 1.98l.926.925c.347.348.846.264 1.14.068a1.1 1.1 0 0 1 1.525 1.525c-.195.294-.279.794.068 1.141l.905.904a1.4 1.4 0 0 0 2.01-.03l6.598-7.012a1.4 1.4 0 0 0-.073-1.991l-.886-.813a.842.842 0 0 0-.727-.197c-.227.04-.442.16-.598.33a1.1 1.1 0 1 1-1.622-1.487c.157-.168.258-.393.279-.623a.841.841 0 0 0-.26-.706l-.733-.673Z" fill="#212121"/>
</svg>
