<svg viewBox="0 0 24 24" fill="none" xmlns="http://www.w3.org/2000/svg" height="1em" width="1em">
  <path d="m21.695 8.853.084-.072a.75.75 0 0 0 .072-.977l-.072-.084-2.22-2.219 2.22-2.22a.75.75 0 0 0 .072-.976l-.072-.084a.75.75 0 0 0-.977-.072l-.084.072-2.22 2.22-2.218-2.22a.75.75 0 0 0-.976-.072l-.085.072a.75.75 0 0 0-.072.977l.072.084 2.219 2.22L15.22 7.72a.75.75 0 0 0-.073.976l.072.085a.75.75 0 0 0 .977.072l.084-.072 2.22-2.219 2.22 2.219a.75.75 0 0 0 .976.072ZM18.75 21A2.25 2.25 0 0 0 21 18.75V13.5a2.25 2.25 0 0 0-2.25-2.25h-6v-6A2.25 2.25 0 0 0 10.5 3H5.25A2.25 2.25 0 0 0 3 5.25v13.5A2.25 2.25 0 0 0 5.25 21h13.5Zm-7.5-9.749H4.5V5.25a.75.75 0 0 1 .75-.75h5.25a.75.75 0 0 1 .75.75v6.001Zm7.5 8.249h-6v-6.75h6a.75.75 0 0 1 .75.75v5.25a.75.75 0 0 1-.75.75Zm-7.5 0h-6a.75.75 0 0 1-.75-.75v-5.999l6.75-.001v6.75Z" fill="#212121"/>
</svg>
