<svg viewBox="0 0 28 28" fill="none" xmlns="http://www.w3.org/2000/svg" height="1em" width="1em">
  <path d="M2.227 8.78a2.25 2.25 0 0 0-.216-.171l-.008-.011a2.214 2.214 0 0 0-.65-.365l-1.07-.348A.425.425 0 0 1 0 7.486a.419.419 0 0 1 .283-.399l1.07-.348a2.2 2.2 0 0 0 .739-.445.675.675 0 0 1 .05-.039.5.5 0 0 0 .064-.053c.231-.235.407-.52.514-.832l.01-.027.348-1.07a.422.422 0 0 1 .399-.279.42.42 0 0 1 .244.078.425.425 0 0 1 .119.156c.004.008.01.015.017.022.007.008.015.016.019.026l.347 1.07c.04.104.085.204.138.3a2.2 2.2 0 0 0 .4.568c.243.243.539.426.865.533l1.07.348.022.006a.422.422 0 0 1 .278.4.43.43 0 0 1-.278.399l-1.071.347A2.2 2.2 0 0 0 4.25 9.644l-.35 1.07-.01.026a.429.429 0 0 1-.143.178.418.418 0 0 1-.485-.001.418.418 0 0 1-.155-.2l-.348-1.07a2.218 2.218 0 0 0-.532-.867ZM5.006 4h17.989A2.997 2.997 0 0 1 26 7v13.995a3 3 0 0 1-2.998 3H5.012a2.998 2.998 0 0 1-2.998-3V10.577l.146.449a1.425 1.425 0 0 0 1.35.972v8.997a1.5 1.5 0 0 0 1.499 1.5h3.244v-4a2 2 0 0 1 1.998-1.999h7.496a1.998 1.998 0 0 1 1.999 2v3.999h3.249a1.499 1.499 0 0 0 1.499-1.5V6.999a1.5 1.5 0 0 0-1.5-1.5H5.466a1.2 1.2 0 0 1-.288-.461l-.332-1.02a.773.773 0 0 0 .071-.01c.03-.004.059-.008.09-.008Zm12.491 7.498a3.5 3.5 0 0 0-5.971-2.474 3.5 3.5 0 0 0 4.947 4.948 3.5 3.5 0 0 0 1.024-2.474Zm-11.83.772.611-.2c.181-.061.346-.162.483-.295a1.266 1.266 0 0 0 .3-.492l.2-.612a.244.244 0 0 1 .137-.144.25.25 0 0 1 .27.063.256.256 0 0 1 .048.081l.2.612c.06.186.163.355.3.494.139.138.308.243.494.305l.612.2h.012a.247.247 0 0 1 .117.088.24.24 0 0 1 0 .279.238.238 0 0 1-.117.088l-.612.2c-.186.06-.355.163-.494.3-.137.139-.24.308-.3.493l-.2.612a.238.238 0 0 1-.228.161.244.244 0 0 1-.228-.161l-.2-.612a1.267 1.267 0 0 0-.3-.5 1.266 1.266 0 0 0-.494-.306l-.612-.2a.241.241 0 0 1 0-.455Z" fill="#212121"/>
</svg>
