<svg viewBox="0 0 16 16" fill="none" xmlns="http://www.w3.org/2000/svg" height="1em" width="1em">
  <path d="M1 4.75C1 3.784 1.784 3 2.75 3h10.5c.966 0 1.75.784 1.75 1.75v2.187a2.159 2.159 0 0 0-.59-.295l-.41-.13V4.75a.75.75 0 0 0-.75-.75H2.75a.75.75 0 0 0-.75.75v6.5c0 .414.336.75.75.75H5v-1a1 1 0 0 1 1-1h4a1 1 0 0 1 1 1v.205a1.782 1.782 0 0 0-1.51.787l-.481.706-.072.12-.013.022a1.848 1.848 0 0 0-.076.16H2.75A1.75 1.75 0 0 1 1 11.25v-6.5Zm13.92 3.755c.052.23.079.472.08.725v.028c-.003.874-.315 1.881-.936 3.02-.13.24-.262.464-.397.672-.697 1.081-1.448 1.747-2.254 1.999a1.139 1.139 0 0 1-1.076-.222l-.08-.073-.309-.31a.88.88 0 0 1-.144-1.03l.046-.074.467-.686a.785.785 0 0 1 .708-.346c.03.002.061.007.092.013l.082.023.861.287c.344-.26.63-.588.86-.982a3.1 3.1 0 0 0 .386-1.029l.025-.174-.717-.68a.875.875 0 0 1-.226-.888l.03-.085.326-.767a.784.784 0 0 1 .877-.482l.077.02.407.13c.405.13.714.476.814.91ZM10 7a2 2 0 1 1-4 0 2 2 0 0 1 4 0Z" fill="#212121"/>
</svg>
