<svg viewBox="0 0 32 32" fill="none" xmlns="http://www.w3.org/2000/svg" height="1em" width="1em">
  <path d="M2 9.5A3.5 3.5 0 0 1 5.5 6h21A3.5 3.5 0 0 1 30 9.5v4.683a4.993 4.993 0 0 0-.562-.245l-.02-.008-.235-.078-.737-.222a3.53 3.53 0 0 0-.446-.104V9.5A1.5 1.5 0 0 0 26.5 8h-21A1.5 1.5 0 0 0 4 9.5v13A1.5 1.5 0 0 0 5.5 24H10v-2a2 2 0 0 1 2-2h8a2 2 0 0 1 2 2v.879a3.001 3.001 0 0 0-2.255 1.015l-.024.028-.137.172L18.208 26H5.5A3.5 3.5 0 0 1 2 22.5v-13ZM20 14a4 4 0 1 1-8 0 4 4 0 0 1 8 0Zm5.686 2.012a2 2 0 0 1 2.327-.946l.717.216.192.064a3.5 3.5 0 0 1 2.262 2.79c.297 2.068-.367 4.486-1.968 7.259-1.597 2.766-3.355 4.548-5.29 5.328a3.5 3.5 0 0 1-3.715-.705l-.542-.514-.122-.126a2 2 0 0 1-.125-2.497l1.357-1.88.091-.114a1.5 1.5 0 0 1 1.563-.442l2.051.627.053.01h.043c.245-.027.743-.522 1.355-1.582.68-1.178.82-1.867.633-2.045l-1.043-.972-.133-.133a2.497 2.497 0 0 1-.442-2.718l.662-1.471.074-.149Z" fill="#212121"/>
</svg>
