<svg viewBox="0 0 24 24" fill="none" xmlns="http://www.w3.org/2000/svg" height="1em" width="1em">
  <path d="M3.28 2.22a.75.75 0 1 0-1.06 1.06l.702.702A3.24 3.24 0 0 0 2 6.25v11.5A3.25 3.25 0 0 0 5.25 21h13.5a3.24 3.24 0 0 0 1.024-.165l.945.945a.75.75 0 0 0 1.061-1.06L3.28 2.22ZM18.44 19.5H5.25a1.75 1.75 0 0 1-1.75-1.75V6.25c0-.468.184-.893.483-1.207L9.5 10.561v4.055c0 .57.61.931 1.11.658l2.33-1.273 5.499 5.499Zm-4.967-9.21 2.163 2.164a.751.751 0 0 0-.24-1.112l-1.923-1.051ZM20.5 6.25v11.069l1.364 1.364A3.25 3.25 0 0 0 22 17.75V6.25A3.25 3.25 0 0 0 18.75 3H6.182l1.5 1.5H18.75c.966 0 1.75.784 1.75 1.75Z" fill="#212121"/>
</svg>
