<svg viewBox="0 0 28 28" fill="none" xmlns="http://www.w3.org/2000/svg" height="1em" width="1em">
  <path d="M15.627 12h-3.254A3.5 3.5 0 1 1 9.5 10.5h9a3.5 3.5 0 1 1-2.873 1.5Zm2.873 0a2 2 0 1 0 0 4 2 2 0 0 0 0-4Zm-9 0a2 2 0 1 0 0 4 2 2 0 0 0 0-4Z" fill="#212121"/>
  <path d="M5.754 3.998a3.75 3.75 0 0 0-3.75 3.75v12.5a3.75 3.75 0 0 0 3.75 3.75H22.25a3.75 3.75 0 0 0 3.75-3.75v-12.5a3.75 3.75 0 0 0-3.75-3.75H5.755Zm-2.25 3.75a2.25 2.25 0 0 1 2.25-2.25H22.25a2.25 2.25 0 0 1 2.25 2.25v12.5a2.25 2.25 0 0 1-2.25 2.25H5.755a2.25 2.25 0 0 1-2.25-2.25v-12.5Z" fill="#212121"/>
</svg>
