<svg viewBox="0 0 24 24" fill="none" xmlns="http://www.w3.org/2000/svg" height="1em" width="1em">
  <path d="M9 17a2 2 0 1 1 0 4 2 2 0 0 1 0-4Zm9.998-7a3.001 3.001 0 1 1 0 6h-.03l-.103.006H17.7c.19.374.298.796.298 1.243 0 1.53-1.153 2.756-2.675 2.756-1.505 0-2.415-.881-2.66-2.103a.75.75 0 0 1 1.47-.294c.114.565.457.897 1.19.897.672 0 1.175-.534 1.175-1.256 0-.688-.568-1.25-1.273-1.25l-12.488.007a.75.75 0 0 1-.102-1.493l.102-.007h12.387l.101-.006c.065 0 .128.002.191.006l3.472.002.054-.006.2-.01a1.5 1.5 0 1 0-1.629-1.722l-.027.239A.75.75 0 0 1 16 12.816 3.001 3.001 0 0 1 18.998 10ZM9 18.5a.5.5 0 1 0 0 1 .5.5 0 0 0 0-1Zm3-14.501a4 4 0 0 1 .022 8H2.756a.75.75 0 0 1-.102-1.492l.102-.007H12l.165-.006A2.5 2.5 0 1 0 9.5 8 .75.75 0 0 1 8 8a4 4 0 0 1 4-4Zm-7.994 1a2 2 0 1 1 0 4 2 2 0 0 1 0-4ZM20 4a2 2 0 1 1 0 4 2 2 0 0 1 0-4ZM4.006 6.5a.5.5 0 1 0 0 1 .5.5 0 0 0 0-1ZM20 5.5a.5.5 0 1 0 0 1 .5.5 0 0 0 0-1Z" fill="#212121"/>
</svg>
