<svg viewBox="0 0 24 24" fill="none" xmlns="http://www.w3.org/2000/svg" height="1em" width="1em">
  <path d="M10.75 20a.75.75 0 1 1 0 1.5.75.75 0 0 1 0-1.5Zm4.5 0a.75.75 0 1 1 0 1.5.75.75 0 0 1 0-1.5ZM8.5 19a.75.75 0 1 1 0 1.5.75.75 0 0 1 0-1.5Zm4.5 0a.75.75 0 1 1 0 1.5.75.75 0 0 1 0-1.5Zm4.5 0a.75.75 0 1 1 0 1.5.75.75 0 0 1 0-1.5ZM13.002 6.01c3.169 0 4.966 2.097 5.227 4.63h.08a3.687 3.687 0 0 1 3.692 3.682 3.687 3.687 0 0 1-3.692 3.683H7.695a3.687 3.687 0 0 1-3.692-3.682 3.687 3.687 0 0 1 3.692-3.683h.08c.263-2.55 2.059-4.63 5.227-4.63Zm0 1.497c-2.071 0-3.877 1.634-3.877 3.89 0 .357-.319.638-.684.638h-.69c-1.261 0-2.284 1-2.284 2.236 0 1.235 1.023 2.236 2.284 2.236h10.502c1.262 0 2.284-1 2.284-2.236 0-1.235-1.022-2.236-2.284-2.236h-.69c-.365 0-.684-.28-.684-.638 0-2.285-1.806-3.89-3.877-3.89Zm-8.634 2.658a.75.75 0 0 1-.315.935l-.091.045-.927.384a.75.75 0 0 1-.665-1.34l.091-.046.927-.384a.75.75 0 0 1 .98.406Zm6.487-4.833-.172.058a5.822 5.822 0 0 0-1.46.758A2.442 2.442 0 0 0 6.43 9.815a4.608 4.608 0 0 0-1.367.64 3.942 3.942 0 0 1 5.791-5.122Zm-7.914.031.105.035.927.384a.75.75 0 0 1-.469 1.42L3.4 7.168l-.927-.384a.75.75 0 0 1 .469-1.42Zm3.815-2.986.045.091.384.926a.75.75 0 0 1-1.34.666l-.046-.092-.383-.926a.75.75 0 0 1 1.34-.665Zm4.354-.319a.75.75 0 0 1 .44.875l-.035.105-.383.926a.75.75 0 0 1-1.421-.468l.035-.106.384-.926a.75.75 0 0 1 .98-.406Z" fill="#212121"/>
</svg>
