<svg viewBox="0 0 24 24" fill="none" xmlns="http://www.w3.org/2000/svg" height="1em" width="1em">
  <path d="M13.002 6.01c3.169 0 4.966 2.097 5.227 4.63h.08a3.687 3.687 0 0 1 3.692 3.682 3.687 3.687 0 0 1-3.692 3.683h-.515l-1.645 2.627a.75.75 0 0 1-1.344-.659l.045-.091 1.212-1.877h-2.136l-1.645 2.627a.75.75 0 0 1-1.344-.659l.045-.091 1.212-1.877h-2.136l-1.645 2.627a.75.75 0 0 1-1.344-.659l.045-.091 1.212-1.877h-.631a3.687 3.687 0 0 1-3.692-3.682 3.687 3.687 0 0 1 3.692-3.683h.08c.263-2.55 2.059-4.63 5.227-4.63Zm-8.634 4.155a.75.75 0 0 1-.315.935l-.091.045-.927.384a.75.75 0 0 1-.665-1.34l.091-.046.927-.384a.75.75 0 0 1 .98.406Zm6.487-4.833-.172.058C8.9 6.02 7.621 7.395 7.068 9.213l-.07.25-.058.238-.206.038a4.638 4.638 0 0 0-1.67.715 3.942 3.942 0 0 1 5.791-5.122Zm-7.914.031.105.035.927.384a.75.75 0 0 1-.469 1.42L3.4 7.168l-.927-.384a.75.75 0 0 1 .469-1.42Zm3.815-2.986.045.091.384.926a.75.75 0 0 1-1.34.666l-.046-.092-.383-.926a.75.75 0 0 1 1.34-.665Zm4.354-.319a.75.75 0 0 1 .44.875l-.035.105-.383.926a.75.75 0 0 1-1.421-.468l.035-.106.384-.926a.75.75 0 0 1 .98-.406Z" fill="#212121"/>
</svg>
