<svg viewBox="0 0 48 48" fill="none" xmlns="http://www.w3.org/2000/svg" height="1em" width="1em">
  <path d="M25.996 15.998c6.337 0 9.932 4.194 10.454 9.26h.16c4.078 0 7.384 3.298 7.384 7.365 0 4.068-3.306 7.365-7.384 7.365H15.38c-4.077 0-7.383-3.297-7.383-7.365 0-4.067 3.306-7.365 7.384-7.365h.16c.526-5.099 4.117-9.26 10.455-9.26ZM7.569 24.191a1.75 1.75 0 0 1-.499 2.299l-.142.091-1.299.75a1.75 1.75 0 0 1-1.892-2.94l.142-.091 1.3-.75a1.75 1.75 0 0 1 2.39.64Zm14.136-9.54c-3.801 1.22-6.509 4.09-7.62 7.921l-.094.34-.116.476-.412.077a9.278 9.278 0 0 0-3.342 1.431A7.883 7.883 0 0 1 21.705 14.65Zm-16.2-.672.132.055 1.36.634a1.75 1.75 0 0 1-1.347 3.228l-.132-.056-1.36-.634a1.75 1.75 0 0 1 1.347-3.227Zm19.11-5.762a1.75 1.75 0 0 1 .508 2.316l-.078.121-.86 1.229a1.75 1.75 0 0 1-2.945-1.887l.078-.12.86-1.23a1.75 1.75 0 0 1 2.438-.43Zm-10.291-.42.065.156.513 1.41a1.75 1.75 0 0 1-3.224 1.353l-.065-.156-.513-1.41a1.75 1.75 0 0 1 3.224-1.352Z" fill="#212121"/>
</svg>
