<svg viewBox="0 0 48 48" fill="none" xmlns="http://www.w3.org/2000/svg" height="1em" width="1em">
  <path d="M29.068 35.12a1.5 1.5 0 1 1 0 3 1.5 1.5 0 0 1 0-3ZM24 7c6.337 0 9.932 4.195 10.455 9.26h.16c4.078 0 7.384 3.298 7.384 7.365 0 4.068-3.306 7.365-7.384 7.365h-2.661a1.5 1.5 0 1 1-2.774 0l-11.76.001-.04.094-.066.128-3.5 6.063a1.5 1.5 0 0 1-2.665-1.372l.067-.129 2.762-4.785h-.593c-4.078 0-7.384-3.297-7.384-7.365 0-4.067 3.306-7.365 7.384-7.365h.16C14.072 11.161 17.664 7 24.001 7Zm-.646 26.317a1.5 1.5 0 0 1 .615 1.92l-.066.129-1.084 1.89a1.5 1.5 0 0 1-2.664-1.371l.066-.129 1.083-1.89a1.5 1.5 0 0 1 2.05-.55Zm10.712.303a1.5 1.5 0 1 1 0 3 1.5 1.5 0 0 1 0-3ZM24 9.495c-4.261 0-7.975 3.448-7.975 8.21 0 .755-.656 1.348-1.407 1.348h-1.421c-2.594 0-4.697 2.113-4.697 4.72 0 2.608 2.103 4.722 4.697 4.722h21.606c2.594 0 4.697-2.114 4.697-4.721 0-2.608-2.103-4.722-4.697-4.722h-1.42c-.752 0-1.408-.592-1.408-1.346 0-4.824-3.714-8.21-7.975-8.21Z" fill="#212121"/>
</svg>
