<svg viewBox="0 0 48 48" fill="none" xmlns="http://www.w3.org/2000/svg" height="1em" width="1em">
  <path d="m10.078 32.091-.11.115a1.75 1.75 0 0 1-2.62-2.3l.1-.125L11.21 25.5H4.75a1.75 1.75 0 0 1-.144-3.494L4.75 22h6.455l-3.757-4.282-.1-.124a1.75 1.75 0 0 1 2.62-2.3l.11.116L15.863 22H22v-6.128l-6.591-5.796a1.75 1.75 0 0 1 2.186-2.728l.125.1L22 11.21V4.75a1.75 1.75 0 0 1 3.494-.144l.006.144v6.462l4.28-3.76.125-.1a1.75 1.75 0 0 1 2.3 2.619l-.114.11-6.591 5.79V22h6.642l5.797-6.591a1.75 1.75 0 0 1 2.728 2.186l-.1.125L36.803 22h6.447a1.75 1.75 0 0 1 .144 3.494l-.144.006h-6.448l3.761 4.28a1.75 1.75 0 0 1-2.519 2.426l-.11-.115-5.791-6.591H25.5v6.635l6.591 5.791a1.75 1.75 0 0 1-2.186 2.73l-.124-.1-4.281-3.761v6.455a1.75 1.75 0 0 1-3.494.144L22 43.25v-6.459l-4.28 3.764-.125.1a1.75 1.75 0 0 1-2.301-2.618l.115-.11L22 32.13V25.5h-6.132l-5.79 6.591Z" fill="#212121"/>
</svg>
