<svg viewBox="0 0 24 24" fill="none" xmlns="http://www.w3.org/2000/svg" height="1em" width="1em">
  <path d="M18.748 9.494a3.251 3.251 0 0 1 .184 6.495l-.2.005-.116.007h-.787c.11.31.17.644.17.993 0 1.664-1.262 3.006-2.926 3.006-1.3 0-2.235-.628-2.688-1.627a1 1 0 0 1 1.767-.93l.098.189c.14.242.373.368.823.368.53 0 .925-.42.925-1.006 0-.511-.393-.936-.904-.993H3a1 1 0 0 1-.117-1.994L3 14.002h11.859l.117-.007c.063 0 .126.002.189.006l3.462.001.06-.005.06-.002.129-.006a1.25 1.25 0 1 0-1.254-1.793l-.097.226a1 1 0 0 1-1.83-.796 3.253 3.253 0 0 1 3.053-2.13ZM11.75 12H3a1 1 0 0 1-.117-1.994L3 10h8.75A2.25 2.25 0 1 0 9.5 7.75a1 1 0 0 1-2 0 4.25 4.25 0 1 1 4.484 4.243L11.75 12H3h8.75Z" fill="#212121"/>
</svg>
