<svg viewBox="0 0 48 48" fill="none" xmlns="http://www.w3.org/2000/svg" height="1em" width="1em">
  <path d="M19.544 11.02c-1.06-.537-2.23-.623-3.303-.418l-2.243.43a5.737 5.737 0 0 0-4.033 3.032c-2.734 5.383-4.788 9.773-5.59 13.51-.822 3.836-.349 7.102 2.045 10.082 1.6 1.991 4.403 1.595 5.86-.066a477.51 477.51 0 0 0 3.394-3.92A4.773 4.773 0 0 1 19.295 32h9.413c1.39 0 2.713.61 3.622 1.67a477.51 477.51 0 0 0 3.393 3.92c1.457 1.66 4.261 2.057 5.86.066 2.394-2.98 2.867-6.246 2.045-10.081-.802-3.738-2.856-8.128-5.59-13.51a5.737 5.737 0 0 0-4.032-3.032l-2.244-.43c-1.072-.206-2.243-.12-3.303.417a27.32 27.32 0 0 0-.626.327c-.784.42-1.626.653-2.462.653h-2.738c-.837 0-1.678-.232-2.462-.653a27.36 27.36 0 0 0-.627-.327Zm-2.832 2.038c.627-.12 1.22-.053 1.703.192.185.094.377.194.573.3 1.099.59 2.344.95 3.645.95h2.738c1.3 0 2.545-.36 3.645-.95.195-.106.387-.206.572-.3.484-.245 1.076-.312 1.703-.192l2.244.43c.981.188 1.823.82 2.274 1.708 2.756 5.426 4.652 9.533 5.374 12.903.702 3.273.273 5.724-1.549 7.992-.416.518-1.365.61-2.031-.15a474.369 474.369 0 0 1-3.376-3.899 7.273 7.273 0 0 0-5.519-2.542h-9.413a7.277 7.277 0 0 0-5.52 2.542 474.369 474.369 0 0 1-3.374 3.899c-.666.76-1.615.668-2.032.15-1.822-2.268-2.25-4.719-1.55-7.992.724-3.37 2.62-7.477 5.375-12.903a3.237 3.237 0 0 1 2.275-1.708l2.243-.43ZM23.998 21a2 2 0 1 0 0-4 2 2 0 0 0 0 4Z" fill="#212121"/>
</svg>
