<svg viewBox="0 0 24 24" fill="none" xmlns="http://www.w3.org/2000/svg" height="1em" width="1em">
  <path d="M9.807 5.507a2.576 2.576 0 0 0-1.639-.205l-1.182.225a2.852 2.852 0 0 0-2.004 1.5c-1.367 2.673-2.4 4.862-2.8 6.73-.41 1.925-.16 3.574 1.08 5.076.821.995 2.23.794 2.963-.036.56-.633 1.195-1.365 1.818-2.087a2.153 2.153 0 0 1 1.63-.748h4.655c.625 0 1.22.273 1.63.748.622.722 1.258 1.454 1.817 2.087.734.83 2.142 1.031 2.964.036 1.239-1.502 1.49-3.15 1.079-5.077-.399-1.867-1.433-4.056-2.8-6.728a2.852 2.852 0 0 0-2.003-1.5l-1.183-.226a2.576 2.576 0 0 0-1.639.205c-.143.072-.29.15-.439.23a2.344 2.344 0 0 1-1.113.296h-1.282c-.376 0-.757-.104-1.113-.296a15.07 15.07 0 0 0-.44-.23ZM12 11a1 1 0 1 1 0-2 1 1 0 0 1 0 2Z" fill="#212121"/>
</svg>
