<svg viewBox="0 0 16 16" fill="none" xmlns="http://www.w3.org/2000/svg" height="1em" width="1em">
  <path d="M9.979 4.575a.806.806 0 0 1 .514-.056l.826.158c.302.057.56.252.7.524.966 1.895 1.625 3.317 1.872 4.478.239 1.12.085 1.949-.548 2.719a.285.285 0 0 1-.244.104.45.45 0 0 1-.31-.155c-.392-.445-.84-.962-1.28-1.473a2.507 2.507 0 0 0-1.9-.873H6.383c-.731 0-1.425.32-1.9.873-.44.51-.887 1.028-1.279 1.473a.45.45 0 0 1-.31.155.285.285 0 0 1-.245-.104c-.633-.77-.787-1.598-.548-2.719.248-1.161.907-2.583 1.873-4.478a.996.996 0 0 1 .7-.524l.826-.158a.806.806 0 0 1 .514.056c.064.032.13.067.198.103.375.2.8.322 1.247.322h1.075a2.65 2.65 0 0 0 1.246-.322 9.01 9.01 0 0 1 .199-.103Zm.702-1.038a1.803 1.803 0 0 0-1.15.144 9.981 9.981 0 0 0-.221.115c-.25.132-.515.204-.776.204H7.459c-.262 0-.527-.072-.776-.204a9.98 9.98 0 0 0-.221-.115 1.803 1.803 0 0 0-1.15-.144l-.826.157a1.996 1.996 0 0 0-1.403 1.053c-.957 1.876-1.68 3.413-1.96 4.724-.288 1.351-.112 2.508.754 3.562.575.7 1.564.558 2.077-.025.396-.45.847-.97 1.287-1.482a1.507 1.507 0 0 1 1.142-.525H9.61c.438 0 .856.192 1.143.525.44.512.89 1.033 1.286 1.482.514.583 1.502.724 2.077.025.867-1.054 1.042-2.211.754-3.562-.279-1.311-1.002-2.848-1.96-4.724a1.998 1.998 0 0 0-1.402-1.053l-.826-.157ZM8 7.5A.75.75 0 1 0 8 6a.75.75 0 0 0 0 1.5Z" fill="#212121"/>
</svg>
