<svg viewBox="0 0 24 24" fill="none" xmlns="http://www.w3.org/2000/svg" height="1em" width="1em">
  <path d="M9.808 5.507a2.576 2.576 0 0 0-1.639-.205l-1.182.225a2.852 2.852 0 0 0-2.004 1.5c-1.367 2.673-2.4 4.862-2.8 6.73-.41 1.925-.16 3.574 1.08 5.076.821.995 2.23.794 2.963-.036.56-.633 1.195-1.365 1.818-2.087a2.153 2.153 0 0 1 1.63-.748h4.655c.625 0 1.22.273 1.63.748.622.722 1.258 1.454 1.817 2.087.734.83 2.142 1.031 2.964.036 1.239-1.502 1.49-3.15 1.079-5.077-.399-1.867-1.433-4.056-2.8-6.728a2.852 2.852 0 0 0-2.003-1.5l-1.183-.226a2.576 2.576 0 0 0-1.639.205 14.99 14.99 0 0 0-.439.23 2.344 2.344 0 0 1-1.113.296H11.36c-.376 0-.757-.104-1.113-.296a14.94 14.94 0 0 0-.44-.23ZM8.437 6.705a1.15 1.15 0 0 1 .732.08c.127.064.26.133.398.208.54.292 1.152.469 1.793.469h1.282c.641 0 1.254-.177 1.794-.47.137-.074.27-.143.397-.207.203-.102.457-.132.733-.08l1.182.225c.43.082.8.36 1 .748 1.38 2.698 2.32 4.723 2.674 6.377.34 1.594.12 2.772-.784 3.869a.407.407 0 0 1-.348.148.642.642 0 0 1-.444-.221 236.7 236.7 0 0 1-1.805-2.073 3.582 3.582 0 0 0-2.712-1.245H9.673a3.581 3.581 0 0 0-2.711 1.245c-.62.719-1.253 1.446-1.806 2.073a.643.643 0 0 1-.443.221.407.407 0 0 1-.348-.148c-.905-1.097-1.125-2.275-.784-3.87.353-1.653 1.293-3.678 2.674-6.376a1.423 1.423 0 0 1 1-.748l1.182-.225ZM12 11a1 1 0 1 0 0-2 1 1 0 0 0 0 2Z" fill="#212121"/>
</svg>
