<svg viewBox="0 0 16 16" fill="none" xmlns="http://www.w3.org/2000/svg" height="1em" width="1em">
  <path d="M10.682 3.537a1.803 1.803 0 0 0-1.15.144 9.405 9.405 0 0 0-.221.115c-.25.132-.515.204-.776.204H7.46c-.262 0-.527-.072-.776-.204a9.957 9.957 0 0 0-.221-.115 1.803 1.803 0 0 0-1.15-.144l-.826.157a1.996 1.996 0 0 0-1.403 1.053c-.957 1.876-1.68 3.413-1.96 4.724-.288 1.351-.112 2.508.754 3.562.575.7 1.563.558 2.077-.025.396-.45.847-.97 1.287-1.482a1.507 1.507 0 0 1 1.142-.525H9.61c.439 0 .856.192 1.143.525.44.512.89 1.033 1.286 1.482.514.583 1.502.724 2.077.025.867-1.054 1.042-2.211.754-3.562-.279-1.311-1.002-2.848-1.96-4.724a1.998 1.998 0 0 0-1.402-1.053l-.826-.157ZM8 7.5A.75.75 0 1 1 8 6a.75.75 0 0 1 0 1.5Z" fill="#212121"/>
</svg>
