<svg viewBox="0 0 16 16" fill="none" xmlns="http://www.w3.org/2000/svg" height="1em" width="1em">
  <path d="M5.655 2.638a.5.5 0 0 0 .69.724l1.313-1.254a.5.5 0 0 1 .692 0l1.304 1.253a.5.5 0 1 0 .693-.722L9.042 1.387a1.5 1.5 0 0 0-2.075-.002L5.655 2.638ZM3.362 6.346a.5.5 0 0 0-.723-.691l-1.25 1.31a1.5 1.5 0 0 0 0 2.072l1.25 1.31a.5.5 0 0 0 .724-.692L2.11 8.345a.5.5 0 0 1 0-.69l1.251-1.31Zm2.984 6.293a.5.5 0 0 0-.691.722l1.314 1.257a1.5 1.5 0 0 0 2.078-.005l1.3-1.253a.5.5 0 0 0-.694-.72l-1.3 1.253a.5.5 0 0 1-.693.002l-1.314-1.256Zm7.015-6.985a.5.5 0 0 0-.721.692l1.257 1.31a.5.5 0 0 1 0 .694L12.64 9.654a.5.5 0 1 0 .72.694l1.257-1.305a1.5 1.5 0 0 0 .002-2.08l-1.258-1.31Zm-8.36.846A1.5 1.5 0 0 1 6.5 5h3A1.5 1.5 0 0 1 11 6.5v3A1.5 1.5 0 0 1 9.5 11h-3A1.5 1.5 0 0 1 5 9.5v-3Z" fill="#212121"/>
</svg>
