<svg viewBox="0 0 16 16" fill="none" xmlns="http://www.w3.org/2000/svg" height="1em" width="1em">
  <path d="M5.656 2.638a.5.5 0 1 0 .69.723L7.66 2.107a.5.5 0 0 1 .692.001L9.655 3.36a.5.5 0 1 0 .693-.721L9.043 1.387a1.5 1.5 0 0 0-2.075-.003L5.656 2.638ZM3.363 6.345a.5.5 0 1 0-.723-.69L1.389 6.963a1.5 1.5 0 0 0 0 2.072l1.252 1.31a.5.5 0 1 0 .723-.691l-1.252-1.31a.5.5 0 0 1 0-.69l1.251-1.31Zm2.984 6.293a.5.5 0 0 0-.691.723l1.314 1.256a1.5 1.5 0 0 0 2.078-.004l1.3-1.253a.5.5 0 1 0-.694-.72l-1.3 1.253a.5.5 0 0 1-.693.001l-1.314-1.256Zm7.015-6.985a.5.5 0 0 0-.721.693l1.257 1.31a.5.5 0 0 1 0 .693L12.64 9.653a.5.5 0 1 0 .72.694l1.257-1.304a1.5 1.5 0 0 0 .002-2.08l-1.258-1.31ZM6.5 5A1.5 1.5 0 0 0 5 6.5v3A1.5 1.5 0 0 0 6.5 11h3A1.5 1.5 0 0 0 11 9.5v-3A1.5 1.5 0 0 0 9.5 5h-3ZM6 6.5a.5.5 0 0 1 .5-.5h3a.5.5 0 0 1 .5.5v3a.5.5 0 0 1-.5.5h-3a.5.5 0 0 1-.5-.5v-3Z" fill="#212121"/>
</svg>
