<svg xmlns="http://www.w3.org/2000/svg" width="120" height="60">
  <radialGradient id="a" cx="-170.853" cy="-57.563" r="14.369" gradientTransform="matrix(.8015 0 0 -.8003 178.01 -19.359)" gradientUnits="userSpaceOnUse">
    <stop offset=".022" stop-color="#fff2ee"/>
    <stop offset=".251" stop-color="#f9826d"/>
    <stop offset=".406" stop-color="#f7270a"/>
    <stop offset=".5" stop-color="#e62308"/>
    <stop offset=".966" stop-color="#cf2109"/>
  </radialGradient>
  <radialGradient id="b" cx="-4446.109" cy="-757.762" r="190.804" gradientTransform="matrix(.1204 0 0 -.12021 576.089 -64.007)" gradientUnits="userSpaceOnUse">
    <stop offset=".022" stop-color="#fde6df"/>
    <stop offset=".64" stop-color="#f84a31"/>
    <stop offset=".843" stop-color="#cf2109"/>
  </radialGradient>
  <g fill="#231f20">
    <path d="M102.654 27.772h1.1c-1.572 1.835-4.77 5.924-5.977 7.55h-1.1l.157-.157c1.1-1.311 4.614-5.716 5.82-7.393zm-35.025 0h1.101c-1.573 1.835-4.771 5.924-5.977 7.55h-1.101l.157-.157c1.101-1.311 4.614-5.716 5.82-7.393z"/>
    <path d="M96.781 27.772h1.52c1.102 1.573 3.933 5.662 5.506 7.55h-1.52c-.682-1.101-4.3-6.03-5.506-7.55zm9.595 7.55h-1.153v-7.55c.524.052.734.052 1.153 0zm-.576-9.333c-.42 0-.734-.42-.734-.787 0-.419.314-.734.734-.734a.75.75 0 0 1 .734.734c0 .367-.315.787-.734.787zm2.779 7.812c.367.577 1.1 1.154 1.835 1.154.996 0 1.573-.63 1.52-1.468-.105-2.202-3.723-.682-3.775-3.46 0-1.521 1.154-2.36 2.57-2.36.838 0 1.782.367 1.782.367l-.42 1.153c-.314-.576-.838-1.048-1.415-1.048-.787 0-1.416.472-1.416 1.31 0 2.045 3.88 1.05 3.828 3.566 0 1.363-1.049 2.517-2.832 2.412-.839-.053-2.097-.525-2.097-.525l.42-1.1zm-17.723-2.779c.105-1.31.734-2.726 2.203-2.726 1.573 0 1.94 1.363 1.992 2.726h-4.195zm5.4.63c.158-2.622-1.467-3.88-3.197-3.88-2.36 0-3.618 1.677-3.618 3.88 0 2.464 1.52 3.88 3.722 3.88.944 0 1.94-.367 2.727-.944V33.8c-.42.42-1.258 1.101-2.307 1.101-1.888 0-2.831-1.468-2.727-3.198zm-34.5-3.88h1.521c1.101 1.573 3.933 5.662 5.505 7.55h-1.52c-.682-1.101-4.3-6.03-5.505-7.55zm9.648 7.55h-1.153v-7.55c.524.052.734.052 1.153 0zm-.63-9.333c-.419 0-.733-.42-.733-.787 0-.419.314-.734.734-.734a.75.75 0 0 1 .734.734c.052.367-.315.787-.734.787zm2.832 7.812c.367.577 1.101 1.154 1.835 1.154.997 0 1.573-.63 1.52-1.468-.104-2.202-3.722-.682-3.774-3.46 0-1.521 1.153-2.36 2.569-2.36.839 0 1.783.367 1.783.367l-.42 1.153c-.314-.576-.839-1.048-1.415-1.048-.787 0-1.416.472-1.416 1.31 0 2.045 3.88 1.05 3.827 3.566 0 1.363-1.048 2.517-2.83 2.412-.84-.053-2.098-.525-2.098-.525.105-.367.367-1.1.42-1.1zm-17.774-2.779c.105-1.31.734-2.726 2.202-2.726 1.573 0 1.94 1.363 1.992 2.726h-4.194zm5.453.63c.157-2.622-1.468-3.88-3.199-3.88-2.36 0-3.618 1.677-3.618 3.88 0 2.464 1.521 3.88 3.723 3.88.944 0 1.94-.367 2.727-.944V33.8c-.42.42-1.259 1.101-2.307 1.101-1.888 0-2.832-1.468-2.727-3.198zM49.802 34.43c1.049.052 3.46-.053 4.352-.158v.996h-5.768V24.521h1.416zm38.17.89h-.471c-.158-.209-6.869-8.546-6.869-8.546v8.547h-.839V24.52h.63l6.553 8.127.158.157V24.52h.891z"/>
  </g>
  <g transform="matrix(1.89853 0 0 1.89853 -49.436 -32.24)">
    <circle r="7.922" cy="32.784" cx="38.849" fill="url(#a)"/>
    <path d="M41.55 26.876c.046-.046 1.786-.137 1.786-.183 0-.092-1.282-.046-1.786 0 .23-.092 1.1-.366 1.1-.458s-1.51.412-1.694.458c-1.328-1.1-2.6-1.557-3.755-1.603-.595.137-1.19.366-1.74.595 1.328-.275 2.84-.183 4.442.687-2.6-.824-4.854-.366-6.457.687-1.007.962-1.694 2.107-2.107 3.435 1.374-2.885 4.442-4.763 8.472-3.847-5.724-.183-8.243 3.71-8.747 7.28a7.6 7.6 0 0 0 1.374 3.39c-1.282-4.03.64-10.075 7.464-10.44-7.28 1.465-7.877 9.16-5.633 12.227.64.458 1.42.87 2.198 1.145-3.297-2.244-3.022-11.174 3.664-13.143-6 2.84-5.816 11.678-2.015 13.555a4.19 4.19 0 0 0 .733.046 7.11 7.11 0 0 0 1.42-.137c-3.938-1.374-5.633-10.487.504-13.464l.183.183c.78.595 2.336 2.198 2.427 2.152s-1.374-1.51-1.923-2.107c.733.32 2.3 1.19 2.336 1.145s-1.51-1.007-2.336-1.42c.824.137 2.336.458 2.336.412.092-.092-1.328-.412-2.244-.595z" fill="url(#b)"/>
  </g>
</svg>
