<svg viewBox="0 0 20 20" fill="none" xmlns="http://www.w3.org/2000/svg" height="1em" width="1em">
  <g opacity="0.8">
    <mask id="a" fill="white">
      <rect x="5" y="5" width="13.5" height="13.5" rx="0.5"/>
    </mask>
    <rect x="5" y="5" width="13.5" height="13.5" rx="0.5" fill="currentColor" stroke="currentColor" stroke-width="3" stroke-linecap="square" stroke-linejoin="round" mask="url(#a)"/>
  </g>
  <mask id="b" fill="white">
    <rect x="4.5" y="4.5" width="5" height="5" rx="0.5"/>
  </mask>
  <rect x="4.5" y="4.5" width="5" height="5" rx="0.5" stroke="black" stroke-width="2" stroke-linecap="square" stroke-linejoin="round" mask="url(#b)"/>
  <mask id="c" fill="white">
    <rect x="10.5" y="4.5" width="5" height="5" rx="0.5"/>
  </mask>
  <rect x="10.5" y="4.5" width="5" height="5" rx="0.5" stroke="black" stroke-width="2" stroke-linecap="square" stroke-linejoin="round" mask="url(#c)"/>
  <mask id="d" fill="white">
    <rect x="4.5" y="10.5" width="5" height="5" rx="0.5"/>
  </mask>
  <rect x="4.5" y="10.5" width="5" height="5" rx="0.5" stroke="black" stroke-width="2" stroke-linecap="square" stroke-linejoin="round" mask="url(#d)"/>
  <mask id="e" fill="white">
    <rect x="10.5" y="10.5" width="5" height="5" rx="0.5"/>
  </mask>
  <rect x="10.5" y="10.5" width="5" height="5" rx="0.5" fill="black" stroke="black" stroke-width="2" stroke-linecap="square" stroke-linejoin="round" mask="url(#e)"/>
  <path d="M3 3H6.5" stroke="black" stroke-linecap="round"/>
  <path d="M3 3V6.5" stroke="black" stroke-linecap="round"/>
  <path d="M3 17L3 13.5" stroke="black" stroke-linecap="round"/>
  <path d="M3 17H6.5" stroke="black" stroke-linecap="round"/>
  <path d="M17 17H13.5" stroke="black" stroke-linecap="round"/>
  <path d="M17 17V13.5" stroke="black" stroke-linecap="round"/>
  <path d="M17 3V6.5" stroke="black" stroke-linecap="round"/>
  <path d="M17 3L13.5 3" stroke="black" stroke-linecap="round"/>
</svg>
